<svg width="24" height="24" viewBox="0 0 24 24" fill="none" xmlns="http://www.w3.org/2000/svg">
<mask id="mask0_1_577" style="mask-type:alpha" maskUnits="userSpaceOnUse" x="0" y="0" width="24" height="24">
<rect width="24" height="24" fill="#D9D9D9"/>
</mask>
<g mask="url(#mask0_1_577)">
<path d="M17 21.4999C15.7513 21.4999 14.6892 21.0621 13.8135 20.1864C12.9378 19.3108 12.5 18.2486 12.5 16.9999C12.5 15.7513 12.9378 14.6891 13.8135 13.8134C14.6892 12.9378 15.7513 12.4999 17 12.4999C18.2487 12.4999 19.3108 12.9378 20.1865 13.8134C21.0622 14.6891 21.5 15.7513 21.5 16.9999C21.5 18.2486 21.0622 19.3108 20.1865 20.1864C19.3108 21.0621 18.2487 21.4999 17 21.4999ZM4.5 11.0999V6.59619C4.5 6.21785 4.60967 5.87652 4.829 5.57219C5.04817 5.26769 5.33017 5.04686 5.675 4.90969L11.3672 2.78469C11.5814 2.70769 11.7923 2.66919 12 2.66919C12.2077 2.66919 12.4186 2.70769 12.6328 2.78469L18.325 4.90969C18.6698 5.04686 18.9518 5.26769 19.171 5.57219C19.3903 5.87652 19.5 6.21785 19.5 6.59619V9.90569C19.5 10.1634 19.391 10.3733 19.173 10.5354C18.955 10.6978 18.714 10.7469 18.45 10.6827C18.2142 10.6185 17.9751 10.572 17.7327 10.5432C17.4904 10.5144 17.2462 10.4999 17 10.4999C15.2013 10.4999 13.6683 11.1336 12.401 12.4009C11.1337 13.6683 10.5 15.2013 10.5 16.9999C10.5 17.4756 10.5545 17.9484 10.6635 18.4182C10.7725 18.888 10.9373 19.3653 11.1578 19.8499C11.2949 20.1409 11.2539 20.4019 11.0348 20.6327C10.8154 20.8634 10.5602 20.9134 10.2692 20.7827C9.53725 20.4289 8.86992 19.9884 8.26725 19.4614C7.66475 18.9346 7.1225 18.332 6.6405 17.6537C5.96867 16.7217 5.444 15.6986 5.0665 14.5844C4.68883 13.4704 4.5 12.3089 4.5 11.0999ZM17 16.9999C17.4167 16.9999 17.7708 16.8541 18.0625 16.5624C18.3542 16.2708 18.5 15.9166 18.5 15.4999C18.5 15.0833 18.3542 14.7291 18.0625 14.4374C17.7708 14.1458 17.4167 13.9999 17 13.9999C16.5833 13.9999 16.2292 14.1458 15.9375 14.4374C15.6458 14.7291 15.5 15.0833 15.5 15.4999C15.5 15.9166 15.6458 16.2708 15.9375 16.5624C16.2292 16.8541 16.5833 16.9999 17 16.9999ZM17 19.9999C17.423 19.9999 17.8243 19.9192 18.2038 19.7577C18.5833 19.5962 18.9147 19.359 19.198 19.0462C19.275 18.9525 19.3036 18.8496 19.2837 18.7374C19.2637 18.6253 19.1968 18.539 19.0828 18.4787C18.7596 18.3159 18.4224 18.1954 18.0712 18.1172C17.7199 18.039 17.3628 17.9999 17 17.9999C16.6372 17.9999 16.2801 18.039 15.9288 18.1172C15.5776 18.1954 15.2404 18.3159 14.9173 18.4787C14.8033 18.539 14.7363 18.6253 14.7163 18.7374C14.6964 18.8496 14.725 18.9525 14.802 19.0462C15.0853 19.359 15.4167 19.5962 15.7962 19.7577C16.1757 19.9192 16.577 19.9999 17 19.9999Z" fill="#1C1B1F"/>
</g>
</svg>
