<svg width="24" height="24" viewBox="0 0 24 24" fill="none" xmlns="http://www.w3.org/2000/svg">
<mask id="mask0_1_563" style="mask-type:alpha" maskUnits="userSpaceOnUse" x="0" y="0" width="24" height="24">
<rect width="24" height="24" fill="#D9D9D9"/>
</mask>
<g mask="url(#mask0_1_563)">
<path d="M11.25 20.75V17.1442C11.25 16.2237 11.1148 15.5192 10.8443 15.0307C10.5738 14.5422 10.1923 14.0781 9.70001 13.6385L10.7693 12.5692C10.9821 12.7654 11.1946 12.9933 11.4068 13.253C11.6189 13.5125 11.8167 13.7878 12 14.079C12.2142 13.7173 12.4613 13.3836 12.7413 13.078C13.0214 12.7721 13.3122 12.4833 13.6135 12.2115C14.3493 11.5513 14.9692 10.7577 15.473 9.8307C15.9768 8.9037 16.2327 7.42104 16.2405 5.3827L14.9423 6.6807C14.8038 6.8192 14.6323 6.89004 14.428 6.8932C14.2235 6.89637 14.0437 6.82554 13.8885 6.6807C13.7333 6.52554 13.6558 6.34737 13.6558 6.1462C13.6558 5.94487 13.7333 5.76662 13.8885 5.61145L16.3673 3.1327C16.4609 3.03904 16.5597 2.97304 16.6635 2.9347C16.7673 2.8962 16.8795 2.87695 17 2.87695C17.1205 2.87695 17.2327 2.8962 17.3365 2.9347C17.4403 2.97304 17.5391 3.03904 17.6328 3.1327L20.127 5.62695C20.2653 5.76545 20.3387 5.93687 20.347 6.1412C20.3553 6.3457 20.282 6.52554 20.127 6.6807C19.982 6.82554 19.8063 6.89795 19.6 6.89795C19.3937 6.89795 19.218 6.82554 19.073 6.6807L17.7403 5.36345C17.7326 7.67629 17.4188 9.39454 16.799 10.5182C16.1792 11.6419 15.4583 12.5781 14.6365 13.327C14.084 13.8295 13.6314 14.3243 13.2788 14.8115C12.9263 15.2986 12.75 16.0762 12.75 17.1442V20.75C12.75 20.9628 12.6782 21.141 12.5345 21.2845C12.391 21.4281 12.2128 21.5 12 21.5C11.7872 21.5 11.609 21.4281 11.4655 21.2845C11.3218 21.141 11.25 20.9628 11.25 20.75ZM6.47876 8.1462C6.40576 7.80637 6.3536 7.3852 6.32226 6.8827C6.29076 6.38004 6.26993 5.87362 6.25976 5.36345L4.92701 6.6962C4.78851 6.83454 4.61701 6.90537 4.41251 6.9087C4.20801 6.91187 4.02818 6.83587 3.87301 6.6807C3.72818 6.53587 3.65576 6.3602 3.65576 6.1537C3.65576 5.94737 3.72818 5.77179 3.87301 5.62695L6.36726 3.1327C6.46093 3.03904 6.55968 2.97304 6.66351 2.9347C6.76735 2.8962 6.87951 2.87695 7.00001 2.87695C7.12051 2.87695 7.23268 2.8962 7.33651 2.9347C7.44035 2.97304 7.5391 3.03904 7.63276 3.1327L10.127 5.62695C10.2757 5.77562 10.349 5.94962 10.347 6.14895C10.3452 6.34829 10.2667 6.52554 10.1115 6.6807C9.95634 6.82554 9.78068 6.89795 9.58451 6.89795C9.38851 6.89795 9.21293 6.82554 9.05776 6.6807L7.75951 5.39795C7.75318 5.85062 7.76826 6.2872 7.80476 6.7077C7.84126 7.1282 7.88585 7.49104 7.93851 7.7962L6.47876 8.1462ZM8.48476 12.4595C8.18343 12.1223 7.89143 11.7285 7.60876 11.278C7.3261 10.8273 7.09051 10.3275 6.90201 9.7787L8.34626 9.4192C8.48726 9.80504 8.66126 10.1644 8.86826 10.4972C9.07526 10.8299 9.30376 11.1276 9.55376 11.3905L8.48476 12.4595Z" fill="#1C1B1F"/>
</g>
</svg>
