<svg width="24" height="24" viewBox="0 0 24 24" fill="none" xmlns="http://www.w3.org/2000/svg">
<mask id="mask0_1_591" style="mask-type:alpha" maskUnits="userSpaceOnUse" x="0" y="0" width="24" height="24">
<rect width="24" height="24" fill="#D9D9D9"/>
</mask>
<g mask="url(#mask0_1_591)">
<path d="M9.57698 14.5H6.53473C6.19873 14.5 5.95256 14.3512 5.79623 14.0537C5.63973 13.7564 5.65898 13.4699 5.85398 13.1942L12.4057 3.74245C12.5404 3.55395 12.7122 3.42503 12.9212 3.3557C13.1301 3.28653 13.3473 3.29237 13.573 3.3732C13.7986 3.45387 13.9637 3.59195 14.0682 3.78745C14.1727 3.98295 14.2115 4.19354 14.1845 4.4192L13.4327 10.5H17.1635C17.5198 10.5 17.7711 10.6596 17.9172 10.979C18.0634 11.2981 18.0205 11.5955 17.7885 11.8712L10.5442 20.548C10.3994 20.7198 10.2225 20.831 10.0135 20.8817C9.80448 20.9322 9.60065 20.912 9.40198 20.821C9.20331 20.73 9.04915 20.5909 8.93948 20.4037C8.82981 20.2165 8.78848 20.0101 8.81548 19.7845L9.57698 14.5Z" fill="#1C1B1F"/>
</g>
</svg>
