<svg width="261" height="52" viewBox="0 0 261 52" fill="none" xmlns="http://www.w3.org/2000/svg">
<g clip-path="url(#clip0_1_394)">
<rect x="0.670898" y="0.0957031" width="259.98" height="51.7889" rx="25.8945" fill="#FF9900"/>
<path d="M45.8277 20.3395V21.5576H42.449V30.4902H41.2309V21.5576H37.8594V20.3395H45.8277ZM46.2257 30.4902V23.2397H47.4437V24.146C47.6999 23.8077 48.0238 23.5394 48.4153 23.3412C48.8068 23.1382 49.2322 23.0367 49.6914 23.0367C49.9717 23.0367 50.2424 23.073 50.5034 23.1455L50.0104 24.3635C49.8122 24.3007 49.6189 24.2693 49.4304 24.2693C49.0678 24.2693 48.7343 24.3587 48.4298 24.5376C48.1301 24.7116 47.8909 24.9484 47.712 25.2481C47.5332 25.5478 47.4437 25.8813 47.4437 26.2487V30.4902H46.2257ZM56.9592 23.2397H58.1773V30.4902H56.9592L56.9084 29.2648C56.6813 29.6854 56.3671 30.0261 55.9659 30.2872C55.5695 30.5482 55.0958 30.6787 54.5448 30.6787C54.0131 30.6787 53.5152 30.5796 53.0512 30.3814C52.5872 30.1784 52.1763 29.9005 51.8186 29.5476C51.4658 29.1899 51.1903 28.7791 50.9921 28.315C50.7939 27.851 50.6948 27.3507 50.6948 26.8142C50.6948 26.297 50.7915 25.8088 50.9848 25.3496C51.1782 24.8904 51.4464 24.4892 51.7896 24.146C52.1377 23.798 52.5388 23.5273 52.9932 23.334C53.4476 23.1358 53.9358 23.0367 54.4578 23.0367C55.0282 23.0367 55.5284 23.1721 55.9586 23.4427C56.3888 23.7086 56.7369 24.0542 57.0027 24.4796L56.9592 23.2397ZM54.523 29.4969C55.0016 29.4969 55.4149 29.3809 55.7629 29.1488C56.1157 28.912 56.3864 28.593 56.5749 28.1918C56.7683 27.7906 56.8649 27.3483 56.8649 26.8649C56.8649 26.3719 56.7683 25.9272 56.5749 25.5309C56.3816 25.1297 56.1085 24.8131 55.7556 24.5811C55.4076 24.3442 54.9967 24.2258 54.523 24.2258C54.0445 24.2258 53.6095 24.3442 53.218 24.5811C52.8264 24.8179 52.5147 25.1369 52.2827 25.5381C52.0555 25.9345 51.9419 26.3768 51.9419 26.8649C51.9419 27.3531 52.0603 27.7978 52.2972 28.199C52.534 28.5954 52.8482 28.912 53.2397 29.1488C53.6312 29.3809 54.059 29.4969 54.523 29.4969ZM66.1394 25.9804V30.4902H64.9214V26.2487C64.9214 25.8813 64.8319 25.5478 64.6531 25.2481C64.4742 24.9484 64.235 24.7116 63.9353 24.5376C63.6356 24.3587 63.3021 24.2693 62.9347 24.2693C62.5722 24.2693 62.2387 24.3587 61.9342 24.5376C61.6345 24.7116 61.3952 24.9484 61.2164 25.2481C61.0375 25.5478 60.9481 25.8813 60.9481 26.2487V30.4902H59.73V23.2397H60.9481V24.146C61.2043 23.8077 61.5281 23.5394 61.9197 23.3412C62.3112 23.1382 62.7366 23.0367 63.1957 23.0367C63.7371 23.0367 64.2301 23.1696 64.6748 23.4355C65.1244 23.6965 65.4796 24.0494 65.7407 24.4941C66.0065 24.9387 66.1394 25.4342 66.1394 25.9804ZM69.9044 30.6279C69.5128 30.6134 69.131 30.5409 68.7588 30.4104C68.3914 30.2751 68.0676 30.0938 67.7872 29.8666C67.5117 29.6346 67.3111 29.3688 67.1855 29.0691L68.2295 28.6196C68.302 28.7839 68.4325 28.9386 68.621 29.0836C68.8096 29.2286 69.0271 29.3446 69.2736 29.4316C69.5201 29.5186 69.769 29.5621 70.0204 29.5621C70.2862 29.5621 70.5352 29.521 70.7672 29.4389C70.9992 29.3567 71.1877 29.2358 71.3327 29.0763C71.4826 28.912 71.5575 28.7162 71.5575 28.489C71.5575 28.2474 71.4753 28.0589 71.311 27.9235C71.1514 27.7833 70.9484 27.6746 70.7019 27.5972C70.4602 27.5151 70.2137 27.4377 69.9624 27.3652C69.4645 27.2396 69.0198 27.0897 68.6283 26.9157C68.2368 26.7369 67.9274 26.5121 67.7002 26.2414C67.4779 25.9659 67.3667 25.6155 67.3667 25.1901C67.3667 24.7406 67.49 24.3515 67.7365 24.0228C67.9878 23.6941 68.3165 23.4403 68.7225 23.2615C69.1286 23.0826 69.5636 22.9932 70.0276 22.9932C70.6125 22.9932 71.1466 23.1189 71.63 23.3702C72.1133 23.6216 72.4734 23.9624 72.7103 24.3925L71.7315 24.9653C71.6493 24.7913 71.5236 24.6391 71.3545 24.5086C71.1853 24.3732 70.9919 24.2669 70.7744 24.1895C70.5569 24.1122 70.3346 24.0711 70.1074 24.0663C69.827 24.0566 69.5636 24.0929 69.3171 24.175C69.0754 24.2572 68.8796 24.3829 68.7298 24.5521C68.5848 24.7164 68.5123 24.9218 68.5123 25.1683C68.5123 25.41 68.5896 25.5937 68.7443 25.7194C68.9038 25.8451 69.1092 25.9466 69.3606 26.0239C69.6168 26.0964 69.8947 26.181 70.1944 26.2777C70.6343 26.4178 71.0451 26.5798 71.427 26.7634C71.8088 26.9471 72.1158 27.1767 72.3478 27.4522C72.5846 27.7278 72.7006 28.0685 72.6958 28.4745C72.6958 28.9192 72.5629 29.3084 72.297 29.6419C72.0312 29.9706 71.6856 30.2219 71.2602 30.3959C70.8397 30.5699 70.3877 30.6473 69.9044 30.6279ZM75.6874 21.4489V23.2397H77.8118V24.4578H75.6874V30.4902H74.4694V24.4578H73.534V23.2397H74.4694V21.4489C74.4694 21.0767 74.5588 20.7407 74.7376 20.4411C74.9213 20.1365 75.1654 19.8949 75.4699 19.716C75.7793 19.5323 76.1176 19.4405 76.485 19.4405C76.7557 19.4405 77.0191 19.4961 77.2753 19.6073C77.5315 19.7136 77.7586 19.8731 77.9568 20.0858L77.0868 20.9486C77.0191 20.8567 76.9297 20.7867 76.8185 20.7383C76.7122 20.6852 76.601 20.6586 76.485 20.6586C76.2675 20.6586 76.079 20.7359 75.9194 20.8906C75.7648 21.0453 75.6874 21.2314 75.6874 21.4489ZM82.1076 30.6787C81.4406 30.6787 80.8315 30.5071 80.2805 30.1639C79.7343 29.8207 79.2969 29.3615 78.9682 28.7863C78.6443 28.2063 78.4824 27.5658 78.4824 26.8649C78.4824 26.3333 78.5766 25.8378 78.7652 25.3786C78.9537 24.9146 79.2123 24.5086 79.541 24.1605C79.8745 23.8077 80.2612 23.5322 80.701 23.334C81.1409 23.1358 81.6098 23.0367 82.1076 23.0367C82.7747 23.0367 83.3813 23.2083 83.9275 23.5515C84.4785 23.8947 84.916 24.3563 85.2398 24.9363C85.5685 25.5164 85.7328 26.1592 85.7328 26.8649C85.7328 27.3918 85.6386 27.8848 85.4501 28.344C85.2616 28.8032 85.0005 29.2093 84.667 29.5621C84.3383 29.9101 83.9541 30.1832 83.5142 30.3814C83.0792 30.5796 82.6103 30.6787 82.1076 30.6787ZM82.1076 29.4606C82.562 29.4606 82.9704 29.3422 83.3329 29.1053C83.7003 28.8637 83.9879 28.5471 84.1957 28.1555C84.4084 27.7592 84.5148 27.329 84.5148 26.8649C84.5148 26.3913 84.406 25.9562 84.1885 25.5599C83.9758 25.1635 83.6882 24.8469 83.3257 24.6101C82.9632 24.3732 82.5571 24.2548 82.1076 24.2548C81.6533 24.2548 81.2448 24.3756 80.8823 24.6173C80.5198 24.8542 80.2322 25.1708 80.0195 25.5671C79.8068 25.9635 79.7005 26.3961 79.7005 26.8649C79.7005 27.3483 79.8092 27.7882 80.0267 28.1845C80.2443 28.5761 80.5367 28.8878 80.904 29.1198C81.2714 29.347 81.6726 29.4606 82.1076 29.4606ZM87.0361 30.4902V23.2397H88.2542V24.146C88.5104 23.8077 88.8343 23.5394 89.2258 23.3412C89.6173 23.1382 90.0427 23.0367 90.5019 23.0367C90.7822 23.0367 91.0529 23.073 91.3139 23.1455L90.8209 24.3635C90.6227 24.3007 90.4294 24.2693 90.2408 24.2693C89.8783 24.2693 89.5448 24.3587 89.2403 24.5376C88.9406 24.7116 88.7013 24.9484 88.5225 25.2481C88.3436 25.5478 88.2542 25.8813 88.2542 26.2487V30.4902H87.0361ZM92.3368 30.4902V23.2397H93.5549V24.146C93.8111 23.8077 94.1325 23.5394 94.5192 23.3412C94.9107 23.1382 95.3361 23.0367 95.7953 23.0367C96.3318 23.0367 96.8224 23.1672 97.2671 23.4282C97.7118 23.6893 98.0623 24.0349 98.3184 24.4651C98.5746 24.0349 98.9226 23.6893 99.3625 23.4282C99.8072 23.1672 100.295 23.0367 100.827 23.0367C101.373 23.0367 101.869 23.1696 102.313 23.4355C102.758 23.6965 103.111 24.0494 103.372 24.4941C103.638 24.9387 103.771 25.4342 103.771 25.9804V30.4902H102.553V26.2704C102.553 25.9127 102.466 25.5816 102.292 25.2771C102.118 24.9726 101.883 24.7285 101.588 24.5448C101.294 24.3611 100.967 24.2693 100.61 24.2693C100.252 24.2693 99.9256 24.3563 99.6308 24.5303C99.3359 24.6995 99.1015 24.9363 98.9275 25.2408C98.7535 25.5405 98.6665 25.8837 98.6665 26.2704V30.4902H97.4484V26.2704C97.4484 25.8837 97.3614 25.5405 97.1874 25.2408C97.0134 24.9363 96.7765 24.6995 96.4768 24.5303C96.182 24.3563 95.8557 24.2693 95.498 24.2693C95.1452 24.2693 94.8189 24.3611 94.5192 24.5448C94.2243 24.7285 93.9899 24.9726 93.8159 25.2771C93.6419 25.5816 93.5549 25.9127 93.5549 26.2704V30.4902H92.3368ZM108.376 30.6787C107.708 30.6787 107.099 30.5071 106.548 30.1639C106.002 29.8207 105.565 29.3615 105.236 28.7863C104.912 28.2063 104.75 27.5658 104.75 26.8649C104.75 26.3333 104.845 25.8378 105.033 25.3786C105.222 24.9146 105.48 24.5086 105.809 24.1605C106.142 23.8077 106.529 23.5322 106.969 23.334C107.409 23.1358 107.878 23.0367 108.376 23.0367C108.922 23.0367 109.422 23.1479 109.876 23.3702C110.336 23.5877 110.727 23.8923 111.051 24.2838C111.38 24.6753 111.624 25.1297 111.783 25.6469C111.948 26.1641 112.008 26.7175 111.964 27.3072H106.048C106.106 27.7181 106.241 28.0854 106.454 28.4093C106.667 28.7283 106.938 28.9821 107.266 29.1706C107.6 29.3591 107.969 29.4558 108.376 29.4606C108.811 29.4606 109.204 29.3494 109.557 29.1271C109.91 28.8999 110.195 28.5906 110.413 28.199L111.653 28.489C111.363 29.1319 110.925 29.6588 110.34 30.0696C109.756 30.4757 109.101 30.6787 108.376 30.6787ZM106.012 26.3502H110.739C110.7 25.9441 110.57 25.5744 110.348 25.2408C110.125 24.9025 109.843 24.6318 109.499 24.4288C109.156 24.2258 108.782 24.1243 108.376 24.1243C107.969 24.1243 107.597 24.2234 107.259 24.4215C106.921 24.6197 106.64 24.888 106.418 25.2263C106.2 25.5599 106.065 25.9345 106.012 26.3502ZM122.813 19.6145H124.031V30.4902H122.813V29.2576C122.566 29.683 122.235 30.0261 121.82 30.2872C121.404 30.5482 120.916 30.6787 120.355 30.6787C119.828 30.6787 119.335 30.5796 118.876 30.3814C118.417 30.1832 118.011 29.9101 117.658 29.5621C117.31 29.2093 117.037 28.8032 116.838 28.344C116.64 27.8848 116.541 27.3918 116.541 26.8649C116.541 26.3381 116.64 25.8451 116.838 25.3859C117.037 24.9218 117.31 24.5158 117.658 24.1678C118.011 23.8149 118.417 23.5394 118.876 23.3412C119.335 23.1431 119.828 23.044 120.355 23.044C120.916 23.044 121.404 23.1745 121.82 23.4355C122.235 23.6965 122.566 24.0397 122.813 24.4651V19.6145ZM120.369 29.4969C120.848 29.4969 121.261 29.3809 121.609 29.1488C121.962 28.912 122.233 28.593 122.421 28.1918C122.615 27.7906 122.711 27.3483 122.711 26.8649C122.711 26.3719 122.615 25.9272 122.421 25.5309C122.228 25.1297 121.955 24.8131 121.602 24.5811C121.254 24.3442 120.843 24.2258 120.369 24.2258C119.891 24.2258 119.456 24.3442 119.064 24.5811C118.678 24.8179 118.368 25.1369 118.136 25.5381C117.904 25.9345 117.788 26.3768 117.788 26.8649C117.788 27.3531 117.907 27.7978 118.144 28.199C118.38 28.5954 118.695 28.912 119.086 29.1488C119.478 29.3809 119.905 29.4969 120.369 29.4969ZM131.632 23.2397H132.85V30.4902H131.632L131.582 29.2648C131.354 29.6854 131.04 30.0261 130.639 30.2872C130.243 30.5482 129.769 30.6787 129.218 30.6787C128.686 30.6787 128.188 30.5796 127.724 30.3814C127.26 30.1784 126.849 29.9005 126.492 29.5476C126.139 29.1899 125.863 28.7791 125.665 28.315C125.467 27.851 125.368 27.3507 125.368 26.8142C125.368 26.297 125.465 25.8088 125.658 25.3496C125.851 24.8904 126.12 24.4892 126.463 24.146C126.811 23.798 127.212 23.5273 127.666 23.334C128.121 23.1358 128.609 23.0367 129.131 23.0367C129.701 23.0367 130.202 23.1721 130.632 23.4427C131.062 23.7086 131.41 24.0542 131.676 24.4796L131.632 23.2397ZM129.196 29.4969C129.675 29.4969 130.088 29.3809 130.436 29.1488C130.789 28.912 131.06 28.593 131.248 28.1918C131.441 27.7906 131.538 27.3483 131.538 26.8649C131.538 26.3719 131.441 25.9272 131.248 25.5309C131.055 25.1297 130.782 24.8131 130.429 24.5811C130.081 24.3442 129.67 24.2258 129.196 24.2258C128.718 24.2258 128.283 24.3442 127.891 24.5811C127.5 24.8179 127.188 25.1369 126.956 25.5381C126.729 25.9345 126.615 26.3768 126.615 26.8649C126.615 27.3531 126.733 27.7978 126.97 28.199C127.207 28.5954 127.521 28.912 127.913 29.1488C128.304 29.3809 128.732 29.4969 129.196 29.4969ZM140.098 19.6145H141.316V30.4902H140.098V29.2576C139.852 29.683 139.521 30.0261 139.105 30.2872C138.689 30.5482 138.201 30.6787 137.64 30.6787C137.113 30.6787 136.62 30.5796 136.161 30.3814C135.702 30.1832 135.296 29.9101 134.943 29.5621C134.595 29.2093 134.322 28.8032 134.124 28.344C133.926 27.8848 133.827 27.3918 133.827 26.8649C133.827 26.3381 133.926 25.8451 134.124 25.3859C134.322 24.9218 134.595 24.5158 134.943 24.1678C135.296 23.8149 135.702 23.5394 136.161 23.3412C136.62 23.1431 137.113 23.044 137.64 23.044C138.201 23.044 138.689 23.1745 139.105 23.4355C139.521 23.6965 139.852 24.0397 140.098 24.4651V19.6145ZM137.655 29.4969C138.133 29.4969 138.547 29.3809 138.895 29.1488C139.247 28.912 139.518 28.593 139.707 28.1918C139.9 27.7906 139.997 27.3483 139.997 26.8649C139.997 26.3719 139.9 25.9272 139.707 25.5309C139.513 25.1297 139.24 24.8131 138.887 24.5811C138.539 24.3442 138.128 24.2258 137.655 24.2258C137.176 24.2258 136.741 24.3442 136.35 24.5811C135.963 24.8179 135.654 25.1369 135.422 25.5381C135.19 25.9345 135.074 26.3768 135.074 26.8649C135.074 27.3531 135.192 27.7978 135.429 28.199C135.666 28.5954 135.98 28.912 136.371 29.1488C136.763 29.3809 137.191 29.4969 137.655 29.4969ZM146.279 30.6787C145.611 30.6787 145.002 30.5071 144.451 30.1639C143.905 29.8207 143.468 29.3615 143.139 28.7863C142.815 28.2063 142.653 27.5658 142.653 26.8649C142.653 26.3333 142.748 25.8378 142.936 25.3786C143.125 24.9146 143.383 24.5086 143.712 24.1605C144.045 23.8077 144.432 23.5322 144.872 23.334C145.312 23.1358 145.781 23.0367 146.279 23.0367C146.946 23.0367 147.552 23.2083 148.098 23.5515C148.649 23.8947 149.087 24.3563 149.411 24.9363C149.739 25.5164 149.904 26.1592 149.904 26.8649C149.904 27.3918 149.809 27.8848 149.621 28.344C149.432 28.8032 149.171 29.2093 148.838 29.5621C148.509 29.9101 148.125 30.1832 147.685 30.3814C147.25 30.5796 146.781 30.6787 146.279 30.6787ZM146.279 29.4606C146.733 29.4606 147.141 29.3422 147.504 29.1053C147.871 28.8637 148.159 28.5471 148.367 28.1555C148.579 27.7592 148.686 27.329 148.686 26.8649C148.686 26.3913 148.577 25.9562 148.359 25.5599C148.147 25.1635 147.859 24.8469 147.497 24.6101C147.134 24.3732 146.728 24.2548 146.279 24.2548C145.824 24.2548 145.416 24.3756 145.053 24.6173C144.691 24.8542 144.403 25.1708 144.19 25.5671C143.978 25.9635 143.871 26.3961 143.871 26.8649C143.871 27.3483 143.98 27.7882 144.198 28.1845C144.415 28.5761 144.708 28.8878 145.075 29.1198C145.442 29.347 145.844 29.4606 146.279 29.4606ZM153.447 30.6279C153.055 30.6134 152.673 30.5409 152.301 30.4104C151.934 30.2751 151.61 30.0938 151.33 29.8666C151.054 29.6346 150.854 29.3688 150.728 29.0691L151.772 28.6196C151.844 28.7839 151.975 28.9386 152.163 29.0836C152.352 29.2286 152.569 29.3446 152.816 29.4316C153.062 29.5186 153.311 29.5621 153.563 29.5621C153.829 29.5621 154.078 29.521 154.31 29.4389C154.542 29.3567 154.73 29.2358 154.875 29.0763C155.025 28.912 155.1 28.7162 155.1 28.489C155.1 28.2474 155.018 28.0589 154.853 27.9235C154.694 27.7833 154.491 27.6746 154.244 27.5972C154.003 27.5151 153.756 27.4377 153.505 27.3652C153.007 27.2396 152.562 27.0897 152.171 26.9157C151.779 26.7369 151.47 26.5121 151.243 26.2414C151.02 25.9659 150.909 25.6155 150.909 25.1901C150.909 24.7406 151.032 24.3515 151.279 24.0228C151.53 23.6941 151.859 23.4403 152.265 23.2615C152.671 23.0826 153.106 22.9932 153.57 22.9932C154.155 22.9932 154.689 23.1189 155.172 23.3702C155.656 23.6216 156.016 23.9624 156.253 24.3925L155.274 24.9653C155.192 24.7913 155.066 24.6391 154.897 24.5086C154.728 24.3732 154.534 24.2669 154.317 24.1895C154.099 24.1122 153.877 24.0711 153.65 24.0663C153.369 24.0566 153.106 24.0929 152.859 24.175C152.618 24.2572 152.422 24.3829 152.272 24.5521C152.127 24.7164 152.055 24.9218 152.055 25.1683C152.055 25.41 152.132 25.5937 152.287 25.7194C152.446 25.8451 152.652 25.9466 152.903 26.0239C153.159 26.0964 153.437 26.181 153.737 26.2777C154.177 26.4178 154.587 26.5798 154.969 26.7634C155.351 26.9471 155.658 27.1767 155.89 27.4522C156.127 27.7278 156.243 28.0685 156.238 28.4745C156.238 28.9192 156.105 29.3084 155.839 29.6419C155.574 29.9706 155.228 30.2219 154.803 30.3959C154.382 30.5699 153.93 30.6473 153.447 30.6279ZM164.361 30.6787C163.694 30.6787 163.085 30.5071 162.534 30.1639C161.988 29.8207 161.551 29.3615 161.222 28.7863C160.898 28.2063 160.736 27.5658 160.736 26.8649C160.736 26.3333 160.83 25.8378 161.019 25.3786C161.207 24.9146 161.466 24.5086 161.795 24.1605C162.128 23.8077 162.515 23.5322 162.955 23.334C163.395 23.1358 163.863 23.0367 164.361 23.0367C164.908 23.0367 165.408 23.1479 165.862 23.3702C166.321 23.5877 166.713 23.8923 167.037 24.2838C167.365 24.6753 167.61 25.1297 167.769 25.6469C167.933 26.1641 167.994 26.7175 167.95 27.3072H162.034C162.092 27.7181 162.227 28.0854 162.44 28.4093C162.653 28.7283 162.923 28.9821 163.252 29.1706C163.586 29.3591 163.955 29.4558 164.361 29.4606C164.796 29.4606 165.19 29.3494 165.543 29.1271C165.896 28.8999 166.181 28.5906 166.399 28.199L167.639 28.489C167.349 29.1319 166.911 29.6588 166.326 30.0696C165.741 30.4757 165.086 30.6787 164.361 30.6787ZM161.998 26.3502H166.725C166.686 25.9441 166.556 25.5744 166.333 25.2408C166.111 24.9025 165.828 24.6318 165.485 24.4288C165.142 24.2258 164.767 24.1243 164.361 24.1243C163.955 24.1243 163.583 24.2234 163.245 24.4215C162.906 24.6197 162.626 24.888 162.404 25.2263C162.186 25.5599 162.051 25.9345 161.998 26.3502ZM169.276 30.4902V23.2397H170.494V24.146C170.75 23.8077 171.071 23.5394 171.458 23.3412C171.85 23.1382 172.275 23.0367 172.734 23.0367C173.271 23.0367 173.761 23.1672 174.206 23.4282C174.651 23.6893 175.001 24.0349 175.257 24.4651C175.514 24.0349 175.862 23.6893 176.301 23.4282C176.746 23.1672 177.234 23.0367 177.766 23.0367C178.312 23.0367 178.808 23.1696 179.252 23.4355C179.697 23.6965 180.05 24.0494 180.311 24.4941C180.577 24.9387 180.71 25.4342 180.71 25.9804V30.4902H179.492V26.2704C179.492 25.9127 179.405 25.5816 179.231 25.2771C179.057 24.9726 178.822 24.7285 178.527 24.5448C178.232 24.3611 177.906 24.2693 177.548 24.2693C177.191 24.2693 176.865 24.3563 176.57 24.5303C176.275 24.6995 176.04 24.9363 175.866 25.2408C175.692 25.5405 175.605 25.8837 175.605 26.2704V30.4902H174.387V26.2704C174.387 25.8837 174.3 25.5405 174.126 25.2408C173.952 24.9363 173.715 24.6995 173.416 24.5303C173.121 24.3563 172.795 24.2693 172.437 24.2693C172.084 24.2693 171.758 24.3611 171.458 24.5448C171.163 24.7285 170.929 24.9726 170.755 25.2771C170.581 25.5816 170.494 25.9127 170.494 26.2704V30.4902H169.276ZM187.071 34.1154H185.853V23.2397H187.071V24.4796C187.318 24.0542 187.646 23.711 188.057 23.45C188.468 23.1841 188.956 23.0512 189.522 23.0512C190.049 23.0512 190.542 23.1503 191.001 23.3485C191.465 23.5467 191.871 23.8222 192.219 24.175C192.567 24.5231 192.84 24.9267 193.038 25.3859C193.236 25.8451 193.335 26.3381 193.335 26.8649C193.335 27.3918 193.236 27.8873 193.038 28.3513C192.84 28.8153 192.567 29.2238 192.219 29.5766C191.871 29.9246 191.465 30.1977 191.001 30.3959C190.542 30.5941 190.049 30.6932 189.522 30.6932C188.956 30.6932 188.468 30.5627 188.057 30.3017C187.646 30.0358 187.318 29.6902 187.071 29.2648V34.1154ZM189.507 24.233C189.038 24.233 188.628 24.3515 188.275 24.5883C187.922 24.8252 187.649 25.1418 187.455 25.5381C187.267 25.9345 187.173 26.3768 187.173 26.8649C187.173 27.3483 187.267 27.7906 187.455 28.1918C187.649 28.593 187.919 28.912 188.267 29.1488C188.62 29.3857 189.034 29.5041 189.507 29.5041C189.976 29.5041 190.406 29.3881 190.798 29.1561C191.189 28.9192 191.504 28.6026 191.74 28.2063C191.977 27.8051 192.096 27.358 192.096 26.8649C192.096 26.3816 191.98 25.9417 191.748 25.5454C191.516 25.1442 191.204 24.8252 190.812 24.5883C190.421 24.3515 189.986 24.233 189.507 24.233ZM197.799 30.6787C197.132 30.6787 196.523 30.5071 195.972 30.1639C195.426 29.8207 194.988 29.3615 194.66 28.7863C194.336 28.2063 194.174 27.5658 194.174 26.8649C194.174 26.3333 194.268 25.8378 194.457 25.3786C194.645 24.9146 194.904 24.5086 195.233 24.1605C195.566 23.8077 195.953 23.5322 196.393 23.334C196.832 23.1358 197.301 23.0367 197.799 23.0367C198.466 23.0367 199.073 23.2083 199.619 23.5515C200.17 23.8947 200.608 24.3563 200.931 24.9363C201.26 25.5164 201.424 26.1592 201.424 26.8649C201.424 27.3918 201.33 27.8848 201.142 28.344C200.953 28.8032 200.692 29.2093 200.359 29.5621C200.03 29.9101 199.646 30.1832 199.206 30.3814C198.771 30.5796 198.302 30.6787 197.799 30.6787ZM197.799 29.4606C198.254 29.4606 198.662 29.3422 199.025 29.1053C199.392 28.8637 199.679 28.5471 199.887 28.1555C200.1 27.7592 200.206 27.329 200.206 26.8649C200.206 26.3913 200.098 25.9562 199.88 25.5599C199.667 25.1635 199.38 24.8469 199.017 24.6101C198.655 24.3732 198.249 24.2548 197.799 24.2548C197.345 24.2548 196.936 24.3756 196.574 24.6173C196.211 24.8542 195.924 25.1708 195.711 25.5671C195.498 25.9635 195.392 26.3961 195.392 26.8649C195.392 27.3483 195.501 27.7882 195.718 28.1845C195.936 28.5761 196.228 28.8878 196.596 29.1198C196.963 29.347 197.364 29.4606 197.799 29.4606ZM208.522 19.6145H209.74V30.4902H208.522V29.2576C208.275 29.683 207.944 30.0261 207.529 30.2872C207.113 30.5482 206.625 30.6787 206.064 30.6787C205.537 30.6787 205.044 30.5796 204.585 30.3814C204.126 30.1832 203.72 29.9101 203.367 29.5621C203.019 29.2093 202.746 28.8032 202.547 28.344C202.349 27.8848 202.25 27.3918 202.25 26.8649C202.25 26.3381 202.349 25.8451 202.547 25.3859C202.746 24.9218 203.019 24.5158 203.367 24.1678C203.72 23.8149 204.126 23.5394 204.585 23.3412C205.044 23.1431 205.537 23.044 206.064 23.044C206.625 23.044 207.113 23.1745 207.529 23.4355C207.944 23.6965 208.275 24.0397 208.522 24.4651V19.6145ZM206.078 29.4969C206.557 29.4969 206.97 29.3809 207.318 29.1488C207.671 28.912 207.942 28.593 208.13 28.1918C208.324 27.7906 208.42 27.3483 208.42 26.8649C208.42 26.3719 208.324 25.9272 208.13 25.5309C207.937 25.1297 207.664 24.8131 207.311 24.5811C206.963 24.3442 206.552 24.2258 206.078 24.2258C205.6 24.2258 205.165 24.3442 204.773 24.5811C204.387 24.8179 204.077 25.1369 203.845 25.5381C203.613 25.9345 203.497 26.3768 203.497 26.8649C203.497 27.3531 203.616 27.7978 203.853 28.199C204.089 28.5954 204.404 28.912 204.795 29.1488C205.187 29.3809 205.614 29.4969 206.078 29.4969ZM214.702 30.6787C214.035 30.6787 213.426 30.5071 212.875 30.1639C212.329 29.8207 211.891 29.3615 211.563 28.7863C211.239 28.2063 211.077 27.5658 211.077 26.8649C211.077 26.3333 211.171 25.8378 211.36 25.3786C211.548 24.9146 211.807 24.5086 212.136 24.1605C212.469 23.8077 212.856 23.5322 213.296 23.334C213.735 23.1358 214.204 23.0367 214.702 23.0367C215.248 23.0367 215.749 23.1479 216.203 23.3702C216.662 23.5877 217.054 23.8923 217.378 24.2838C217.706 24.6753 217.95 25.1297 218.11 25.6469C218.274 26.1641 218.335 26.7175 218.291 27.3072H212.375C212.433 27.7181 212.568 28.0854 212.781 28.4093C212.994 28.7283 213.264 28.9821 213.593 29.1706C213.926 29.3591 214.296 29.4558 214.702 29.4606C215.137 29.4606 215.531 29.3494 215.884 29.1271C216.237 28.8999 216.522 28.5906 216.74 28.199L217.979 28.489C217.689 29.1319 217.252 29.6588 216.667 30.0696C216.082 30.4757 215.427 30.6787 214.702 30.6787ZM212.339 26.3502H217.066C217.027 25.9441 216.897 25.5744 216.674 25.2408C216.452 24.9025 216.169 24.6318 215.826 24.4288C215.483 24.2258 215.108 24.1243 214.702 24.1243C214.296 24.1243 213.924 24.2234 213.586 24.4215C213.247 24.6197 212.967 24.888 212.745 25.2263C212.527 25.5599 212.392 25.9345 212.339 26.3502ZM219.617 30.4902V23.2397H220.835V24.146C221.091 23.8077 221.415 23.5394 221.806 23.3412C222.198 23.1382 222.623 23.0367 223.082 23.0367C223.363 23.0367 223.633 23.073 223.894 23.1455L223.401 24.3635C223.203 24.3007 223.01 24.2693 222.821 24.2693C222.459 24.2693 222.125 24.3587 221.821 24.5376C221.521 24.7116 221.282 24.9484 221.103 25.2481C220.924 25.5478 220.835 25.8813 220.835 26.2487V30.4902H219.617Z" fill="#070D16"/>
</g>
<defs>
<clipPath id="clip0_1_394">
<rect x="0.670898" y="0.0957031" width="259.98" height="51.7889" rx="25.8945" fill="white"/>
</clipPath>
</defs>
</svg>
