<svg width="936" height="456" viewBox="0 0 936 456" fill="none" xmlns="http://www.w3.org/2000/svg">
<g filter="url(#filter0_d_179_870)">
<rect x="6" y="2" width="924" height="445" rx="15" fill="white"/>
</g>
<path d="M30.842 86.784C30.366 86.3313 29.981 85.8273 29.687 85.272C29.393 84.7167 29.1783 84.1217 29.043 83.487C28.9077 82.8477 28.84 82.1827 28.84 81.492C28.84 81.128 28.868 80.7407 28.924 80.33C28.98 79.9147 29.064 79.5017 29.176 79.091C29.288 78.6757 29.4233 78.2813 29.582 77.908C29.7453 77.5347 29.932 77.201 30.142 76.907C30.352 76.6083 30.5853 76.3727 30.842 76.2H32.018C31.7893 76.4053 31.577 76.6573 31.381 76.956C31.185 77.25 31.0053 77.579 30.842 77.943C30.6787 78.3023 30.5363 78.6827 30.415 79.084C30.2937 79.4853 30.198 79.8913 30.128 80.302C30.0627 80.708 30.0253 81.1047 30.016 81.492C30.03 82.2247 30.1233 82.9153 30.296 83.564C30.4733 84.2127 30.709 84.8077 31.003 85.349C31.3017 85.8903 31.64 86.3687 32.018 86.784H30.842ZM36.2888 85.3V82.388H33.3768V81.212H36.2888V78.3H37.4648V81.212H40.3768V82.388H37.4648V85.3H36.2888ZM44.7829 86.182C44.1762 86.182 43.6256 86.035 43.1309 85.741C42.6362 85.447 42.2442 85.055 41.9549 84.565C41.6702 84.0703 41.5279 83.5267 41.5279 82.934H42.7039C42.7039 83.312 42.7972 83.6597 42.9839 83.977C43.1706 84.2897 43.4202 84.5393 43.7329 84.726C44.0502 84.9127 44.4002 85.006 44.7829 85.006C45.1609 85.006 45.5062 84.9127 45.8189 84.726C46.1316 84.5393 46.3812 84.2897 46.5679 83.977C46.7546 83.6597 46.8479 83.312 46.8479 82.934C46.8479 82.556 46.7592 82.2083 46.5819 81.891C46.4092 81.5737 46.1549 81.3217 45.8189 81.135C45.4829 80.9437 45.0746 80.848 44.5939 80.848H42.1789L43.1309 76.2H47.7789V77.376H44.0829L43.6279 79.672L44.6429 79.679C45.3102 79.693 45.8959 79.8423 46.3999 80.127C46.9086 80.407 47.3052 80.7897 47.5899 81.275C47.8792 81.7557 48.0239 82.3087 48.0239 82.934C48.0239 83.3773 47.9399 83.7973 47.7719 84.194C47.6039 84.586 47.3706 84.9313 47.0719 85.23C46.7732 85.5287 46.4279 85.762 46.0359 85.93C45.6486 86.098 45.2309 86.182 44.7829 86.182ZM49.6582 86.784C50.0362 86.3687 50.3722 85.8903 50.6662 85.349C50.9602 84.8077 51.1959 84.2127 51.3732 83.564C51.5505 82.9153 51.6462 82.2247 51.6602 81.492C51.6509 81.1047 51.6112 80.708 51.5412 80.302C51.4759 79.8913 51.3825 79.4853 51.2612 79.084C51.1399 78.6827 50.9975 78.3023 50.8342 77.943C50.6709 77.579 50.4912 77.25 50.2952 76.956C50.0992 76.6573 49.8869 76.4053 49.6582 76.2H50.8342C51.0909 76.3727 51.3219 76.6083 51.5272 76.907C51.7372 77.201 51.9239 77.5347 52.0872 77.908C52.2505 78.2813 52.3882 78.6757 52.5002 79.091C52.6122 79.5017 52.6962 79.9147 52.7522 80.33C52.8082 80.7407 52.8362 81.128 52.8362 81.492C52.8362 82.1827 52.7685 82.8477 52.6332 83.487C52.4979 84.1217 52.2832 84.7167 51.9892 85.272C51.6952 85.8273 51.3102 86.3313 50.8342 86.784H49.6582ZM58.0783 86V79H59.2543V79.875C59.5016 79.5483 59.8119 79.2893 60.1853 79.098C60.5633 78.902 60.9739 78.804 61.4173 78.804C61.9353 78.804 62.4089 78.93 62.8383 79.182C63.2676 79.434 63.6059 79.7677 63.8533 80.183C64.1006 79.7677 64.4366 79.434 64.8613 79.182C65.2906 78.93 65.7619 78.804 66.2753 78.804C66.8026 78.804 67.2809 78.9323 67.7103 79.189C68.1396 79.441 68.4803 79.7817 68.7323 80.211C68.9889 80.6403 69.1173 81.1187 69.1173 81.646V86H67.9413V81.926C67.9413 81.5807 67.8573 81.261 67.6893 80.967C67.5213 80.673 67.2949 80.4373 67.0103 80.26C66.7256 80.0827 66.4106 79.994 66.0653 79.994C65.7199 79.994 65.4049 80.078 65.1203 80.246C64.8356 80.4093 64.6093 80.638 64.4413 80.932C64.2733 81.2213 64.1893 81.5527 64.1893 81.926V86H63.0133V81.926C63.0133 81.5527 62.9293 81.2213 62.7613 80.932C62.5933 80.638 62.3646 80.4093 62.0753 80.246C61.7906 80.078 61.4756 79.994 61.1303 79.994C60.7896 79.994 60.4746 80.0827 60.1853 80.26C59.9006 80.4373 59.6743 80.673 59.5063 80.967C59.3383 81.261 59.2543 81.5807 59.2543 81.926V86H58.0783ZM76.111 79H77.287V86H76.111L76.062 84.817C75.8426 85.223 75.5393 85.552 75.152 85.804C74.7693 86.056 74.312 86.182 73.78 86.182C73.2666 86.182 72.786 86.0863 72.338 85.895C71.89 85.699 71.4933 85.4307 71.148 85.09C70.8073 84.7447 70.5413 84.348 70.35 83.9C70.1586 83.452 70.063 82.969 70.063 82.451C70.063 81.9517 70.1563 81.4803 70.343 81.037C70.5296 80.5937 70.7886 80.2063 71.12 79.875C71.456 79.539 71.8433 79.2777 72.282 79.091C72.7206 78.8997 73.192 78.804 73.696 78.804C74.2466 78.804 74.7296 78.9347 75.145 79.196C75.5603 79.4527 75.8963 79.7863 76.153 80.197L76.111 79ZM73.759 85.041C74.221 85.041 74.62 84.929 74.956 84.705C75.2966 84.4763 75.558 84.1683 75.74 83.781C75.9266 83.3937 76.02 82.9667 76.02 82.5C76.02 82.024 75.9266 81.5947 75.74 81.212C75.5533 80.8247 75.2896 80.519 74.949 80.295C74.613 80.0663 74.2163 79.952 73.759 79.952C73.297 79.952 72.877 80.0663 72.499 80.295C72.121 80.5237 71.82 80.8317 71.596 81.219C71.3766 81.6017 71.267 82.0287 71.267 82.5C71.267 82.9713 71.3813 83.4007 71.61 83.788C71.8386 84.1707 72.142 84.4763 72.52 84.705C72.898 84.929 73.311 85.041 73.759 85.041ZM78.7861 79H79.9621V86H78.7861V79ZM79.3881 77.859C79.2014 77.859 79.0451 77.7983 78.9191 77.677C78.7931 77.5557 78.7301 77.404 78.7301 77.222C78.7301 77.04 78.7931 76.8883 78.9191 76.767C79.0451 76.6457 79.1991 76.585 79.3811 76.585C79.5631 76.585 79.7171 76.6457 79.8431 76.767C79.9691 76.8883 80.0321 77.04 80.0321 77.222C80.0321 77.404 79.9691 77.5557 79.8431 77.677C79.7218 77.7983 79.5701 77.859 79.3881 77.859ZM83.8102 86.133C83.4322 86.119 83.0635 86.049 82.7042 85.923C82.3495 85.7923 82.0368 85.6173 81.7662 85.398C81.5002 85.174 81.3065 84.9173 81.1852 84.628L82.1932 84.194C82.2632 84.3527 82.3892 84.502 82.5712 84.642C82.7532 84.782 82.9632 84.894 83.2012 84.978C83.4392 85.062 83.6795 85.104 83.9222 85.104C84.1788 85.104 84.4192 85.0643 84.6432 84.985C84.8672 84.9057 85.0492 84.789 85.1892 84.635C85.3338 84.4763 85.4062 84.2873 85.4062 84.068C85.4062 83.8347 85.3268 83.6527 85.1682 83.522C85.0142 83.3867 84.8182 83.2817 84.5802 83.207C84.3468 83.1277 84.1088 83.053 83.8662 82.983C83.3855 82.8617 82.9562 82.717 82.5782 82.549C82.2002 82.3763 81.9015 82.1593 81.6822 81.898C81.4675 81.632 81.3602 81.2937 81.3602 80.883C81.3602 80.449 81.4792 80.0733 81.7172 79.756C81.9598 79.4387 82.2772 79.1937 82.6692 79.021C83.0612 78.8483 83.4812 78.762 83.9292 78.762C84.4938 78.762 85.0095 78.8833 85.4762 79.126C85.9428 79.3687 86.2905 79.6977 86.5192 80.113L85.5742 80.666C85.4948 80.498 85.3735 80.351 85.2102 80.225C85.0468 80.0943 84.8602 79.9917 84.6502 79.917C84.4402 79.8423 84.2255 79.8027 84.0062 79.798C83.7355 79.7887 83.4812 79.8237 83.2432 79.903C83.0098 79.9823 82.8208 80.1037 82.6762 80.267C82.5362 80.4257 82.4662 80.624 82.4662 80.862C82.4662 81.0953 82.5408 81.2727 82.6902 81.394C82.8442 81.5153 83.0425 81.6133 83.2852 81.688C83.5325 81.758 83.8008 81.8397 84.0902 81.933C84.5148 82.0683 84.9115 82.2247 85.2802 82.402C85.6488 82.5793 85.9452 82.801 86.1692 83.067C86.3978 83.333 86.5098 83.662 86.5052 84.054C86.5052 84.4833 86.3768 84.859 86.1202 85.181C85.8635 85.4983 85.5298 85.741 85.1192 85.909C84.7132 86.077 84.2768 86.1517 83.8102 86.133Z" fill="#FF9900"/>
<path d="M94.3477 86.182C93.7037 86.182 93.1157 86.0163 92.5837 85.685C92.0564 85.3537 91.6341 84.9103 91.3167 84.355C91.0041 83.795 90.8477 83.1767 90.8477 82.5C90.8477 81.9867 90.9387 81.5083 91.1207 81.065C91.3027 80.617 91.5524 80.225 91.8697 79.889C92.1917 79.5483 92.5651 79.2823 92.9897 79.091C93.4144 78.8997 93.8671 78.804 94.3477 78.804C94.8751 78.804 95.3581 78.9113 95.7967 79.126C96.2401 79.336 96.6181 79.63 96.9307 80.008C97.2481 80.386 97.4837 80.8247 97.6377 81.324C97.7964 81.8233 97.8547 82.3577 97.8127 82.927H92.1007C92.1567 83.3237 92.2874 83.6783 92.4927 83.991C92.6981 84.299 92.9594 84.544 93.2767 84.726C93.5987 84.908 93.9557 85.0013 94.3477 85.006C94.7677 85.006 95.1481 84.8987 95.4887 84.684C95.8294 84.4647 96.1047 84.166 96.3147 83.788L97.5117 84.068C97.2317 84.6887 96.8094 85.1973 96.2447 85.594C95.6801 85.986 95.0477 86.182 94.3477 86.182ZM92.0657 82.003H96.6297C96.5924 81.611 96.4664 81.254 96.2517 80.932C96.0371 80.6053 95.7641 80.344 95.4327 80.148C95.1014 79.952 94.7397 79.854 94.3477 79.854C93.9557 79.854 93.5964 79.9497 93.2697 80.141C92.9431 80.3323 92.6724 80.5913 92.4577 80.918C92.2477 81.24 92.1171 81.6017 92.0657 82.003ZM99.0923 86V79H100.268V79.875C100.516 79.5483 100.826 79.2893 101.199 79.098C101.577 78.902 101.988 78.804 102.431 78.804C102.949 78.804 103.423 78.93 103.852 79.182C104.282 79.434 104.62 79.7677 104.867 80.183C105.115 79.7677 105.451 79.434 105.875 79.182C106.305 78.93 106.776 78.804 107.289 78.804C107.817 78.804 108.295 78.9323 108.724 79.189C109.154 79.441 109.494 79.7817 109.746 80.211C110.003 80.6403 110.131 81.1187 110.131 81.646V86H108.955V81.926C108.955 81.5807 108.871 81.261 108.703 80.967C108.535 80.673 108.309 80.4373 108.024 80.26C107.74 80.0827 107.425 79.994 107.079 79.994C106.734 79.994 106.419 80.078 106.134 80.246C105.85 80.4093 105.623 80.638 105.455 80.932C105.287 81.2213 105.203 81.5527 105.203 81.926V86H104.027V81.926C104.027 81.5527 103.943 81.2213 103.775 80.932C103.607 80.638 103.379 80.4093 103.089 80.246C102.805 80.078 102.49 79.994 102.144 79.994C101.804 79.994 101.489 80.0827 101.199 80.26C100.915 80.4373 100.688 80.673 100.52 80.967C100.352 81.261 100.268 81.5807 100.268 81.926V86H99.0923ZM114.817 86V84.957C115.176 84.635 115.58 84.2757 116.028 83.879C116.476 83.4777 116.922 83.06 117.365 82.626C117.813 82.1873 118.224 81.7533 118.597 81.324C118.97 80.8947 119.271 80.4887 119.5 80.106C119.729 79.7187 119.843 79.3803 119.843 79.091C119.843 78.7457 119.759 78.4307 119.591 78.146C119.423 77.8567 119.197 77.6257 118.912 77.453C118.632 77.2803 118.319 77.194 117.974 77.194C117.629 77.194 117.311 77.2803 117.022 77.453C116.737 77.6257 116.509 77.8567 116.336 78.146C116.168 78.4307 116.084 78.7457 116.084 79.091H114.908C114.908 78.517 115.048 77.999 115.328 77.537C115.608 77.0703 115.979 76.7017 116.441 76.431C116.903 76.1557 117.414 76.018 117.974 76.018C118.534 76.018 119.043 76.1557 119.5 76.431C119.962 76.7063 120.331 77.0773 120.606 77.544C120.881 78.006 121.019 78.5217 121.019 79.091C121.019 79.4177 120.94 79.77 120.781 80.148C120.622 80.5213 120.405 80.9063 120.13 81.303C119.855 81.6997 119.542 82.101 119.192 82.507C118.842 82.9083 118.473 83.305 118.086 83.697C117.699 84.089 117.314 84.4647 116.931 84.824H121.145V86H114.817ZM125.919 86.182C125.336 86.182 124.813 86.0513 124.351 85.79C123.889 85.524 123.493 85.1577 123.161 84.691C122.83 84.2243 122.578 83.6853 122.405 83.074C122.233 82.458 122.146 81.8 122.146 81.1C122.146 80.4 122.233 79.742 122.405 79.126C122.578 78.51 122.83 77.971 123.161 77.509C123.493 77.0423 123.889 76.6783 124.351 76.417C124.813 76.151 125.336 76.018 125.919 76.018C126.498 76.018 127.018 76.151 127.48 76.417C127.947 76.6783 128.341 77.0423 128.663 77.509C128.99 77.971 129.24 78.51 129.412 79.126C129.59 79.742 129.678 80.4 129.678 81.1C129.678 81.8 129.59 82.458 129.412 83.074C129.24 83.6853 128.99 84.2243 128.663 84.691C128.341 85.1577 127.947 85.524 127.48 85.79C127.018 86.0513 126.498 86.182 125.919 86.182ZM125.919 85.006C126.503 85.006 126.99 84.8263 127.382 84.467C127.779 84.103 128.075 83.6247 128.271 83.032C128.467 82.4393 128.565 81.7953 128.565 81.1C128.565 80.3673 128.463 79.707 128.257 79.119C128.057 78.5263 127.758 78.0573 127.361 77.712C126.969 77.3667 126.489 77.194 125.919 77.194C125.471 77.194 125.079 77.299 124.743 77.509C124.412 77.719 124.137 78.006 123.917 78.37C123.698 78.734 123.532 79.1517 123.42 79.623C123.313 80.0897 123.259 80.582 123.259 81.1C123.259 81.7953 123.36 82.4417 123.56 83.039C123.761 83.6317 124.057 84.1077 124.449 84.467C124.846 84.8263 125.336 85.006 125.919 85.006ZM130.753 86V84.957C131.113 84.635 131.516 84.2757 131.964 83.879C132.412 83.4777 132.858 83.06 133.301 82.626C133.749 82.1873 134.16 81.7533 134.533 81.324C134.907 80.8947 135.208 80.4887 135.436 80.106C135.665 79.7187 135.779 79.3803 135.779 79.091C135.779 78.7457 135.695 78.4307 135.527 78.146C135.359 77.8567 135.133 77.6257 134.848 77.453C134.568 77.2803 134.256 77.194 133.91 77.194C133.565 77.194 133.248 77.2803 132.958 77.453C132.674 77.6257 132.445 77.8567 132.272 78.146C132.104 78.4307 132.02 78.7457 132.02 79.091H130.844C130.844 78.517 130.984 77.999 131.264 77.537C131.544 77.0703 131.915 76.7017 132.377 76.431C132.839 76.1557 133.35 76.018 133.91 76.018C134.47 76.018 134.979 76.1557 135.436 76.431C135.898 76.7063 136.267 77.0773 136.542 77.544C136.818 78.006 136.955 78.5217 136.955 79.091C136.955 79.4177 136.876 79.77 136.717 80.148C136.559 80.5213 136.342 80.9063 136.066 81.303C135.791 81.6997 135.478 82.101 135.128 82.507C134.778 82.9083 134.41 83.305 134.022 83.697C133.635 84.089 133.25 84.4647 132.867 84.824H137.081V86H130.753ZM142.368 86V83.354H138.154V82.164L142.074 76.2H143.544V82.178H144.517V83.354H143.544V86H142.368ZM139.533 82.164L142.368 82.178L142.347 77.852L139.533 82.164Z" fill="#A0AEC0"/>
<path d="M28.92 61V38.6H36.328C37.8747 38.6 39.3253 38.8933 40.68 39.48C42.0347 40.056 43.224 40.8613 44.248 41.896C45.272 42.92 46.072 44.1093 46.648 45.464C47.2347 46.808 47.528 48.2533 47.528 49.8C47.528 51.3467 47.2347 52.7973 46.648 54.152C46.072 55.496 45.272 56.6853 44.248 57.72C43.224 58.744 42.0347 59.5493 40.68 60.136C39.3253 60.712 37.8747 61 36.328 61H28.92ZM32.248 57.672H36.328C37.416 57.672 38.4293 57.4693 39.368 57.064C40.3173 56.6587 41.1547 56.0933 41.88 55.368C42.616 54.6427 43.1867 53.8053 43.592 52.856C43.9973 51.9067 44.2 50.888 44.2 49.8C44.2 48.712 43.9973 47.6933 43.592 46.744C43.1867 45.7947 42.616 44.9573 41.88 44.232C41.1547 43.5067 40.3173 42.9413 39.368 42.536C38.4293 42.1307 37.416 41.928 36.328 41.928H32.248V57.672ZM62.4618 45H65.7898V61H62.4458L62.3178 58.68C61.8484 59.5013 61.2138 60.1627 60.4138 60.664C59.6138 61.1653 58.6698 61.416 57.5818 61.416C56.4084 61.416 55.3044 61.1973 54.2698 60.76C53.2351 60.312 52.3231 59.6933 51.5338 58.904C50.7551 58.1147 50.1471 57.208 49.7098 56.184C49.2724 55.1493 49.0538 54.04 49.0538 52.856C49.0538 51.7147 49.2671 50.6427 49.6938 49.64C50.1204 48.6267 50.7124 47.7413 51.4698 46.984C52.2271 46.2267 53.1018 45.6347 54.0938 45.208C55.0964 44.7707 56.1684 44.552 57.3098 44.552C58.4724 44.552 59.4964 44.8187 60.3818 45.352C61.2778 45.8747 62.0191 46.5467 62.6058 47.368L62.4618 45ZM57.5017 58.2C58.4404 58.2 59.2618 57.9707 59.9658 57.512C60.6698 57.0427 61.2138 56.4133 61.5978 55.624C61.9924 54.8347 62.1898 53.96 62.1898 53C62.1898 52.0293 61.9924 51.1493 61.5978 50.36C61.2031 49.5707 60.6538 48.9467 59.9498 48.488C59.2564 48.0187 58.4404 47.784 57.5017 47.784C56.5738 47.784 55.7258 48.0187 54.9578 48.488C54.1898 48.9573 53.5818 49.5867 53.1338 50.376C52.6858 51.1653 52.4618 52.04 52.4618 53C52.4618 53.9707 52.6911 54.8507 53.1498 55.64C53.6191 56.4187 54.2324 57.0427 54.9898 57.512C55.7578 57.9707 56.5951 58.2 57.5017 58.2ZM73.7825 61.304C72.9398 61.2507 72.1185 61.08 71.3185 60.792C70.5185 60.504 69.8145 60.1147 69.2065 59.624C68.6092 59.1227 68.1612 58.536 67.8625 57.864L70.6945 56.648C70.8332 56.936 71.0732 57.2187 71.4145 57.496C71.7665 57.7733 72.1772 58.0027 72.6465 58.184C73.1158 58.3547 73.6065 58.44 74.1185 58.44C74.6198 58.44 75.0838 58.3707 75.5105 58.232C75.9478 58.0827 76.3052 57.8587 76.5825 57.56C76.8598 57.2613 76.9985 56.904 76.9985 56.488C76.9985 56.0187 76.8385 55.656 76.5185 55.4C76.2092 55.1333 75.8198 54.9307 75.3505 54.792C74.8812 54.6533 74.4118 54.52 73.9425 54.392C72.8972 54.1573 71.9372 53.8373 71.0625 53.432C70.1985 53.016 69.5105 52.488 68.9985 51.848C68.4865 51.1973 68.2305 50.4027 68.2305 49.464C68.2305 48.44 68.5078 47.5547 69.0625 46.808C69.6172 46.0507 70.3425 45.4693 71.2385 45.064C72.1452 44.6587 73.1105 44.456 74.1345 44.456C75.4145 44.456 76.5878 44.728 77.6545 45.272C78.7212 45.816 79.5372 46.5627 80.1025 47.512L77.4625 49.08C77.3025 48.76 77.0625 48.472 76.7425 48.216C76.4225 47.96 76.0598 47.7573 75.6545 47.608C75.2492 47.448 74.8278 47.3573 74.3905 47.336C73.8465 47.3147 73.3398 47.3787 72.8705 47.528C72.4118 47.6667 72.0438 47.8907 71.7665 48.2C71.4892 48.5093 71.3505 48.904 71.3505 49.384C71.3505 49.8533 71.5158 50.2053 71.8465 50.44C72.1772 50.664 72.5932 50.8453 73.0945 50.984C73.6065 51.1227 74.1292 51.2773 74.6625 51.448C75.6118 51.7467 76.5025 52.1147 77.3345 52.552C78.1665 52.9787 78.8385 53.5067 79.3505 54.136C79.8625 54.7653 80.1078 55.5333 80.0865 56.44C80.0865 57.4427 79.7825 58.3227 79.1745 59.08C78.5772 59.8373 77.7985 60.4133 76.8385 60.808C75.8785 61.2027 74.8598 61.368 73.7825 61.304ZM97.2263 50.968V61H93.8983V51.784C93.8983 51.0693 93.7223 50.4187 93.3703 49.832C93.0289 49.2453 92.5649 48.7813 91.9783 48.44C91.4023 48.088 90.7516 47.912 90.0263 47.912C89.3223 47.912 88.6769 48.088 88.0903 48.44C87.5036 48.7813 87.0343 49.2453 86.6823 49.832C86.3303 50.4187 86.1543 51.0693 86.1543 51.784V61H82.8263V37H86.1543V46.696C86.7089 46.0347 87.3916 45.512 88.2023 45.128C89.0129 44.744 89.8876 44.552 90.8263 44.552C92.0103 44.552 93.0876 44.84 94.0583 45.416C95.0289 45.992 95.7969 46.7653 96.3623 47.736C96.9383 48.7067 97.2263 49.784 97.2263 50.968ZM108.865 44.552C110.422 44.552 111.836 44.9307 113.105 45.688C114.385 46.4453 115.404 47.464 116.161 48.744C116.918 50.0133 117.297 51.4267 117.297 52.984C117.297 54.1467 117.078 55.24 116.641 56.264C116.204 57.2773 115.596 58.1733 114.817 58.952C114.049 59.72 113.153 60.3227 112.129 60.76C111.116 61.1973 110.028 61.416 108.865 61.416C107.745 61.416 106.764 61.16 105.921 60.648C105.089 60.1253 104.406 59.4587 103.873 58.648V61H100.545V37H103.873V47.32C104.406 46.4987 105.089 45.832 105.921 45.32C106.764 44.808 107.745 44.552 108.865 44.552ZM108.833 58.184C109.761 58.184 110.609 57.9493 111.377 57.48C112.145 57.0107 112.753 56.3813 113.201 55.592C113.66 54.8027 113.889 53.9333 113.889 52.984C113.889 52.0133 113.66 51.1333 113.201 50.344C112.742 49.5547 112.129 48.9307 111.361 48.472C110.593 48.0027 109.75 47.768 108.833 47.768C107.905 47.768 107.089 48.0027 106.385 48.472C105.681 48.9413 105.132 49.5707 104.737 50.36C104.342 51.1493 104.145 52.024 104.145 52.984C104.145 53.944 104.342 54.8187 104.737 55.608C105.132 56.3973 105.681 57.0267 106.385 57.496C107.089 57.9547 107.905 58.184 108.833 58.184ZM126.898 61.416C125.426 61.416 124.082 61.0373 122.866 60.28C121.66 59.5227 120.695 58.5093 119.97 57.24C119.255 55.96 118.898 54.5467 118.898 53C118.898 51.8267 119.106 50.7333 119.522 49.72C119.938 48.696 120.508 47.8 121.234 47.032C121.97 46.2533 122.823 45.6453 123.794 45.208C124.764 44.7707 125.799 44.552 126.898 44.552C128.37 44.552 129.708 44.9307 130.914 45.688C132.13 46.4453 133.095 47.464 133.81 48.744C134.535 50.024 134.898 51.4427 134.898 53C134.898 54.1627 134.69 55.2507 134.274 56.264C133.858 57.2773 133.282 58.1733 132.546 58.952C131.82 59.72 130.972 60.3227 130.002 60.76C129.042 61.1973 128.007 61.416 126.898 61.416ZM126.898 58.088C127.783 58.088 128.578 57.8533 129.282 57.384C129.986 56.9147 130.54 56.296 130.946 55.528C131.362 54.7493 131.57 53.9067 131.57 53C131.57 52.072 131.356 51.2187 130.93 50.44C130.514 49.6613 129.954 49.0427 129.25 48.584C128.546 48.1147 127.762 47.88 126.898 47.88C126.023 47.88 125.228 48.1147 124.514 48.584C123.81 49.0533 123.25 49.6773 122.834 50.456C122.428 51.2347 122.226 52.0827 122.226 53C122.226 53.9493 122.439 54.808 122.866 55.576C123.292 56.344 123.858 56.9573 124.562 57.416C125.276 57.864 126.055 58.088 126.898 58.088ZM149.899 45H153.227V61H149.883L149.755 58.68C149.286 59.5013 148.651 60.1627 147.851 60.664C147.051 61.1653 146.107 61.416 145.019 61.416C143.846 61.416 142.742 61.1973 141.707 60.76C140.673 60.312 139.761 59.6933 138.971 58.904C138.193 58.1147 137.585 57.208 137.147 56.184C136.71 55.1493 136.491 54.04 136.491 52.856C136.491 51.7147 136.705 50.6427 137.131 49.64C137.558 48.6267 138.15 47.7413 138.907 46.984C139.665 46.2267 140.539 45.6347 141.531 45.208C142.534 44.7707 143.606 44.552 144.747 44.552C145.91 44.552 146.934 44.8187 147.819 45.352C148.715 45.8747 149.457 46.5467 150.043 47.368L149.899 45ZM144.939 58.2C145.878 58.2 146.699 57.9707 147.403 57.512C148.107 57.0427 148.651 56.4133 149.035 55.624C149.43 54.8347 149.627 53.96 149.627 53C149.627 52.0293 149.43 51.1493 149.035 50.36C148.641 49.5707 148.091 48.9467 147.387 48.488C146.694 48.0187 145.878 47.784 144.939 47.784C144.011 47.784 143.163 48.0187 142.395 48.488C141.627 48.9573 141.019 49.5867 140.571 50.376C140.123 51.1653 139.899 52.04 139.899 53C139.899 53.9707 140.129 54.8507 140.587 55.64C141.057 56.4187 141.67 57.0427 142.427 57.512C143.195 57.9707 144.033 58.2 144.939 58.2ZM156.42 61V45H159.748V46.696C160.303 46.0347 160.985 45.512 161.796 45.128C162.607 44.744 163.481 44.552 164.42 44.552C165.017 44.552 165.609 44.632 166.196 44.792L164.868 48.152C164.452 47.992 164.036 47.912 163.62 47.912C162.916 47.912 162.271 48.088 161.684 48.44C161.097 48.7813 160.628 49.2453 160.276 49.832C159.924 50.4187 159.748 51.0693 159.748 51.784V61H156.42ZM179.759 37H183.087V61H179.759V58.648C179.236 59.48 178.554 60.152 177.711 60.664C176.868 61.1653 175.882 61.416 174.751 61.416C173.588 61.416 172.5 61.1973 171.487 60.76C170.474 60.3227 169.578 59.72 168.799 58.952C168.031 58.1733 167.428 57.2773 166.991 56.264C166.554 55.2507 166.335 54.1627 166.335 53C166.335 51.8373 166.554 50.7493 166.991 49.736C167.428 48.712 168.031 47.816 168.799 47.048C169.578 46.2693 170.474 45.6613 171.487 45.224C172.5 44.7867 173.588 44.568 174.751 44.568C175.882 44.568 176.868 44.824 177.711 45.336C178.554 45.8373 179.236 46.4987 179.759 47.32V37ZM174.783 58.2C175.722 58.2 176.543 57.9707 177.247 57.512C177.951 57.0427 178.495 56.4133 178.879 55.624C179.274 54.8347 179.471 53.96 179.471 53C179.471 52.0293 179.274 51.1493 178.879 50.36C178.484 49.5707 177.935 48.9467 177.231 48.488C176.538 48.0187 175.722 47.784 174.783 47.784C173.855 47.784 173.007 48.0187 172.239 48.488C171.482 48.9573 170.874 49.5867 170.415 50.376C169.967 51.1653 169.743 52.04 169.743 53C169.743 53.9707 169.972 54.8507 170.431 55.64C170.9 56.4187 171.514 57.0427 172.271 57.512C173.039 57.9707 173.876 58.2 174.783 58.2ZM207.072 37H210.399V61H207.072V58.648C206.549 59.48 205.866 60.152 205.024 60.664C204.181 61.1653 203.194 61.416 202.064 61.416C200.901 61.416 199.813 61.1973 198.8 60.76C197.786 60.3227 196.89 59.72 196.112 58.952C195.344 58.1733 194.741 57.2773 194.304 56.264C193.866 55.2507 193.648 54.1627 193.648 53C193.648 51.8373 193.866 50.7493 194.304 49.736C194.741 48.712 195.344 47.816 196.112 47.048C196.89 46.2693 197.786 45.6613 198.8 45.224C199.813 44.7867 200.901 44.568 202.064 44.568C203.194 44.568 204.181 44.824 205.024 45.336C205.866 45.8373 206.549 46.4987 207.072 47.32V37ZM202.095 58.2C203.034 58.2 203.856 57.9707 204.56 57.512C205.264 57.0427 205.808 56.4133 206.192 55.624C206.586 54.8347 206.784 53.96 206.784 53C206.784 52.0293 206.586 51.1493 206.192 50.36C205.797 49.5707 205.248 48.9467 204.544 48.488C203.85 48.0187 203.034 47.784 202.095 47.784C201.168 47.784 200.32 48.0187 199.552 48.488C198.794 48.9573 198.186 49.5867 197.728 50.376C197.28 51.1653 197.056 52.04 197.056 53C197.056 53.9707 197.285 54.8507 197.744 55.64C198.213 56.4187 198.826 57.0427 199.584 57.512C200.352 57.9707 201.189 58.2 202.095 58.2ZM221.054 61.416C219.582 61.416 218.238 61.0373 217.022 60.28C215.816 59.5227 214.851 58.5093 214.126 57.24C213.411 55.96 213.054 54.5467 213.054 53C213.054 51.8267 213.262 50.7333 213.678 49.72C214.094 48.696 214.664 47.8 215.39 47.032C216.126 46.2533 216.979 45.6453 217.95 45.208C218.92 44.7707 219.955 44.552 221.054 44.552C222.28 44.552 223.406 44.808 224.43 45.32C225.454 45.8213 226.328 46.52 227.054 47.416C227.779 48.3013 228.312 49.3253 228.654 50.488C228.995 51.64 229.096 52.8667 228.958 54.168H216.622C216.76 54.904 217.027 55.5707 217.422 56.168C217.827 56.7547 218.339 57.2187 218.958 57.56C219.587 57.9013 220.286 58.0773 221.054 58.088C221.864 58.088 222.6 57.8853 223.262 57.48C223.934 57.0747 224.483 56.5147 224.91 55.8L228.286 56.584C227.646 58.0027 226.68 59.1653 225.39 60.072C224.099 60.968 222.654 61.416 221.054 61.416ZM216.51 51.624H225.598C225.491 50.856 225.219 50.1627 224.782 49.544C224.355 48.9147 223.816 48.4187 223.166 48.056C222.526 47.6827 221.822 47.496 221.054 47.496C220.296 47.496 219.592 47.6773 218.942 48.04C218.302 48.4027 217.768 48.8987 217.342 49.528C216.926 50.1467 216.648 50.8453 216.51 51.624ZM248.728 61H244.456L238.616 44.968H242.168L246.584 57.16L251.016 44.968H254.552L248.728 61ZM263.429 61.416C261.957 61.416 260.613 61.0373 259.397 60.28C258.191 59.5227 257.226 58.5093 256.501 57.24C255.786 55.96 255.429 54.5467 255.429 53C255.429 51.8267 255.637 50.7333 256.053 49.72C256.469 48.696 257.039 47.8 257.765 47.032C258.501 46.2533 259.354 45.6453 260.325 45.208C261.295 44.7707 262.33 44.552 263.429 44.552C264.655 44.552 265.781 44.808 266.805 45.32C267.829 45.8213 268.703 46.52 269.429 47.416C270.154 48.3013 270.687 49.3253 271.029 50.488C271.37 51.64 271.471 52.8667 271.333 54.168H258.997C259.135 54.904 259.402 55.5707 259.797 56.168C260.202 56.7547 260.714 57.2187 261.333 57.56C261.962 57.9013 262.661 58.0773 263.429 58.088C264.239 58.088 264.975 57.8853 265.637 57.48C266.309 57.0747 266.858 56.5147 267.285 55.8L270.661 56.584C270.021 58.0027 269.055 59.1653 267.765 60.072C266.474 60.968 265.029 61.416 263.429 61.416ZM258.885 51.624H267.973C267.866 50.856 267.594 50.1627 267.157 49.544C266.73 48.9147 266.191 48.4187 265.541 48.056C264.901 47.6827 264.197 47.496 263.429 47.496C262.671 47.496 261.967 47.6773 261.317 48.04C260.677 48.4027 260.143 48.8987 259.717 49.528C259.301 50.1467 259.023 50.8453 258.885 51.624ZM288.383 50.968V61H285.055V51.784C285.055 51.0693 284.879 50.4187 284.527 49.832C284.185 49.2453 283.721 48.7813 283.135 48.44C282.559 48.088 281.908 47.912 281.183 47.912C280.479 47.912 279.833 48.088 279.247 48.44C278.66 48.7813 278.191 49.2453 277.839 49.832C277.487 50.4187 277.311 51.0693 277.311 51.784V61H273.983V45H277.311V46.696C277.865 46.0347 278.548 45.512 279.359 45.128C280.169 44.744 281.044 44.552 281.983 44.552C283.167 44.552 284.244 44.84 285.215 45.416C286.185 45.992 286.953 46.7653 287.519 47.736C288.095 48.7067 288.383 49.784 288.383 50.968ZM303.728 37H307.056V61H303.728V58.648C303.205 59.48 302.522 60.152 301.68 60.664C300.837 61.1653 299.85 61.416 298.72 61.416C297.557 61.416 296.469 61.1973 295.456 60.76C294.442 60.3227 293.546 59.72 292.768 58.952C292 58.1733 291.397 57.2773 290.96 56.264C290.522 55.2507 290.304 54.1627 290.304 53C290.304 51.8373 290.522 50.7493 290.96 49.736C291.397 48.712 292 47.816 292.768 47.048C293.546 46.2693 294.442 45.6613 295.456 45.224C296.469 44.7867 297.557 44.568 298.72 44.568C299.85 44.568 300.837 44.824 301.68 45.336C302.522 45.8373 303.205 46.4987 303.728 47.32V37ZM298.752 58.2C299.69 58.2 300.512 57.9707 301.216 57.512C301.92 57.0427 302.464 56.4133 302.848 55.624C303.242 54.8347 303.44 53.96 303.44 53C303.44 52.0293 303.242 51.1493 302.848 50.36C302.453 49.5707 301.904 48.9467 301.2 48.488C300.506 48.0187 299.69 47.784 298.752 47.784C297.824 47.784 296.976 48.0187 296.208 48.488C295.45 48.9573 294.842 49.5867 294.384 50.376C293.936 51.1653 293.712 52.04 293.712 53C293.712 53.9707 293.941 54.8507 294.4 55.64C294.869 56.4187 295.482 57.0427 296.24 57.512C297.008 57.9707 297.845 58.2 298.752 58.2ZM323.118 45H326.446V61H323.102L322.974 58.68C322.505 59.5013 321.87 60.1627 321.07 60.664C320.27 61.1653 319.326 61.416 318.238 61.416C317.065 61.416 315.961 61.1973 314.926 60.76C313.891 60.312 312.979 59.6933 312.19 58.904C311.411 58.1147 310.803 57.208 310.366 56.184C309.929 55.1493 309.71 54.04 309.71 52.856C309.71 51.7147 309.923 50.6427 310.35 49.64C310.777 48.6267 311.369 47.7413 312.126 46.984C312.883 46.2267 313.758 45.6347 314.75 45.208C315.753 44.7707 316.825 44.552 317.966 44.552C319.129 44.552 320.153 44.8187 321.038 45.352C321.934 45.8747 322.675 46.5467 323.262 47.368L323.118 45ZM318.158 58.2C319.097 58.2 319.918 57.9707 320.622 57.512C321.326 57.0427 321.87 56.4133 322.254 55.624C322.649 54.8347 322.846 53.96 322.846 53C322.846 52.0293 322.649 51.1493 322.254 50.36C321.859 49.5707 321.31 48.9467 320.606 48.488C319.913 48.0187 319.097 47.784 318.158 47.784C317.23 47.784 316.382 48.0187 315.614 48.488C314.846 48.9573 314.238 49.5867 313.79 50.376C313.342 51.1653 313.118 52.04 313.118 53C313.118 53.9707 313.347 54.8507 313.806 55.64C314.275 56.4187 314.889 57.0427 315.646 57.512C316.414 57.9707 317.251 58.2 318.158 58.2ZM334.439 61.304C333.596 61.2507 332.775 61.08 331.975 60.792C331.175 60.504 330.471 60.1147 329.863 59.624C329.265 59.1227 328.817 58.536 328.519 57.864L331.351 56.648C331.489 56.936 331.729 57.2187 332.071 57.496C332.423 57.7733 332.833 58.0027 333.303 58.184C333.772 58.3547 334.263 58.44 334.775 58.44C335.276 58.44 335.74 58.3707 336.167 58.232C336.604 58.0827 336.961 57.8587 337.239 57.56C337.516 57.2613 337.655 56.904 337.655 56.488C337.655 56.0187 337.495 55.656 337.175 55.4C336.865 55.1333 336.476 54.9307 336.007 54.792C335.537 54.6533 335.068 54.52 334.599 54.392C333.553 54.1573 332.593 53.8373 331.719 53.432C330.855 53.016 330.167 52.488 329.655 51.848C329.143 51.1973 328.887 50.4027 328.887 49.464C328.887 48.44 329.164 47.5547 329.719 46.808C330.273 46.0507 330.999 45.4693 331.895 45.064C332.801 44.6587 333.767 44.456 334.791 44.456C336.071 44.456 337.244 44.728 338.311 45.272C339.377 45.816 340.193 46.5627 340.759 47.512L338.119 49.08C337.959 48.76 337.719 48.472 337.399 48.216C337.079 47.96 336.716 47.7573 336.311 47.608C335.905 47.448 335.484 47.3573 335.047 47.336C334.503 47.3147 333.996 47.3787 333.527 47.528C333.068 47.6667 332.7 47.8907 332.423 48.2C332.145 48.5093 332.007 48.904 332.007 49.384C332.007 49.8533 332.172 50.2053 332.503 50.44C332.833 50.664 333.249 50.8453 333.751 50.984C334.263 51.1227 334.785 51.2773 335.319 51.448C336.268 51.7467 337.159 52.1147 337.991 52.552C338.823 52.9787 339.495 53.5067 340.007 54.136C340.519 54.7653 340.764 55.5333 340.743 56.44C340.743 57.4427 340.439 58.3227 339.831 59.08C339.233 59.8373 338.455 60.4133 337.495 60.808C336.535 61.2027 335.516 61.368 334.439 61.304Z" fill="#2D3748"/>
<path d="M883.66 415V407.3H886.207C886.738 407.3 887.237 407.401 887.703 407.602C888.168 407.8 888.577 408.077 888.929 408.433C889.281 408.785 889.556 409.194 889.754 409.659C889.956 410.121 890.057 410.618 890.057 411.15C890.057 411.682 889.956 412.18 889.754 412.646C889.556 413.108 889.281 413.517 888.929 413.872C888.577 414.224 888.168 414.501 887.703 414.703C887.237 414.901 886.738 415 886.207 415H883.66ZM884.584 414.076H886.207C886.61 414.076 886.988 414.001 887.34 413.85C887.695 413.696 888.007 413.486 888.275 413.218C888.542 412.95 888.751 412.64 888.902 412.288C889.056 411.933 889.133 411.553 889.133 411.15C889.133 410.747 889.056 410.369 888.902 410.017C888.751 409.661 888.54 409.35 888.269 409.082C888.001 408.814 887.692 408.605 887.34 408.455C886.988 408.301 886.61 408.224 886.207 408.224H884.584V414.076ZM893.874 415.143C893.368 415.143 892.906 415.013 892.488 414.752C892.074 414.492 891.742 414.144 891.492 413.707C891.247 413.267 891.124 412.782 891.124 412.25C891.124 411.847 891.195 411.471 891.338 411.122C891.481 410.77 891.678 410.462 891.927 410.198C892.18 409.931 892.473 409.722 892.807 409.571C893.141 409.421 893.496 409.346 893.874 409.346C894.288 409.346 894.668 409.43 895.012 409.599C895.361 409.764 895.658 409.995 895.903 410.292C896.153 410.589 896.338 410.934 896.459 411.326C896.584 411.718 896.629 412.138 896.596 412.585H892.108C892.152 412.897 892.255 413.176 892.416 413.421C892.578 413.663 892.783 413.856 893.032 413.999C893.285 414.142 893.566 414.215 893.874 414.219C894.204 414.219 894.503 414.135 894.77 413.966C895.038 413.794 895.254 413.559 895.419 413.262L896.36 413.482C896.14 413.97 895.808 414.369 895.364 414.681C894.921 414.989 894.424 415.143 893.874 415.143ZM892.081 411.859H895.667C895.638 411.551 895.539 411.271 895.37 411.018C895.201 410.761 894.987 410.556 894.726 410.402C894.466 410.248 894.182 410.171 893.874 410.171C893.566 410.171 893.284 410.246 893.027 410.396C892.77 410.547 892.558 410.75 892.389 411.007C892.224 411.26 892.121 411.544 892.081 411.859ZM901.781 413.548L902.606 413.993C902.356 414.342 902.039 414.62 901.654 414.829C901.273 415.038 900.858 415.143 900.411 415.143C899.905 415.143 899.443 415.013 899.025 414.752C898.611 414.492 898.279 414.144 898.03 413.707C897.784 413.267 897.661 412.782 897.661 412.25C897.661 411.847 897.733 411.471 897.876 411.122C898.019 410.77 898.215 410.462 898.464 410.198C898.717 409.931 899.01 409.722 899.344 409.571C899.678 409.421 900.033 409.346 900.411 409.346C900.858 409.346 901.273 409.45 901.654 409.659C902.039 409.868 902.356 410.149 902.606 410.501L901.781 410.946C901.605 410.73 901.396 410.563 901.154 410.446C900.912 410.329 900.664 410.27 900.411 410.27C900.07 410.27 899.76 410.362 899.482 410.545C899.207 410.725 898.988 410.965 898.827 411.265C898.666 411.566 898.585 411.894 898.585 412.25C898.585 412.606 898.666 412.934 898.827 413.234C898.992 413.531 899.212 413.77 899.487 413.949C899.766 414.129 900.074 414.219 900.411 414.219C900.682 414.219 900.937 414.157 901.176 414.032C901.414 413.907 901.616 413.746 901.781 413.548Z" fill="#CBD5E0"/>
<path d="M817.66 415V407.3H818.661L822.506 413.328V407.3H823.43V415H822.434L818.584 408.972V415H817.66ZM827.616 415.143C827.11 415.143 826.648 415.013 826.23 414.752C825.816 414.492 825.484 414.144 825.235 413.707C824.989 413.267 824.866 412.782 824.866 412.25C824.866 411.847 824.938 411.471 825.081 411.122C825.224 410.77 825.42 410.462 825.669 410.198C825.922 409.931 826.215 409.722 826.549 409.571C826.883 409.421 827.238 409.346 827.616 409.346C828.122 409.346 828.582 409.476 828.997 409.736C829.415 409.997 829.746 410.347 829.992 410.787C830.241 411.227 830.366 411.715 830.366 412.25C830.366 412.65 830.295 413.024 830.152 413.372C830.009 413.72 829.811 414.028 829.558 414.296C829.308 414.56 829.017 414.767 828.683 414.917C828.353 415.068 827.997 415.143 827.616 415.143ZM827.616 414.219C827.961 414.219 828.271 414.129 828.546 413.949C828.824 413.766 829.042 413.526 829.2 413.229C829.361 412.928 829.442 412.602 829.442 412.25C829.442 411.891 829.36 411.561 829.195 411.26C829.033 410.959 828.815 410.719 828.54 410.539C828.265 410.36 827.957 410.27 827.616 410.27C827.271 410.27 826.962 410.362 826.687 410.545C826.412 410.725 826.193 410.965 826.032 411.265C825.871 411.566 825.79 411.894 825.79 412.25C825.79 412.617 825.873 412.95 826.038 413.251C826.203 413.548 826.424 413.784 826.703 413.96C826.982 414.133 827.286 414.219 827.616 414.219ZM834.4 415H833.217L831.21 409.489H832.194L833.806 413.927L835.417 409.489H836.402L834.4 415Z" fill="#CBD5E0"/>
<path d="M747.235 415.143C746.714 415.143 746.225 415.04 745.767 414.835C745.308 414.626 744.905 414.338 744.557 413.971C744.208 413.605 743.935 413.181 743.737 412.701C743.539 412.217 743.44 411.7 743.44 411.15C743.44 410.6 743.539 410.085 743.737 409.604C743.935 409.12 744.208 408.695 744.557 408.328C744.905 407.962 745.308 407.676 745.767 407.47C746.225 407.261 746.714 407.157 747.235 407.157C747.759 407.157 748.251 407.261 748.709 407.47C749.167 407.676 749.571 407.962 749.919 408.328C750.267 408.695 750.539 409.12 750.733 409.604C750.931 410.085 751.03 410.6 751.03 411.15C751.03 411.7 750.931 412.217 750.733 412.701C750.539 413.181 750.267 413.605 749.919 413.971C749.571 414.338 749.167 414.626 748.709 414.835C748.251 415.04 747.759 415.143 747.235 415.143ZM747.235 414.219C747.635 414.219 748.007 414.138 748.352 413.977C748.7 413.816 749.004 413.594 749.265 413.311C749.529 413.025 749.734 412.699 749.881 412.332C750.031 411.962 750.106 411.568 750.106 411.15C750.106 410.732 750.031 410.338 749.881 409.967C749.73 409.593 749.523 409.267 749.259 408.988C748.999 408.706 748.694 408.484 748.346 408.323C748.001 408.162 747.631 408.081 747.235 408.081C746.835 408.081 746.461 408.162 746.113 408.323C745.768 408.484 745.464 408.708 745.2 408.994C744.94 409.276 744.734 409.603 744.584 409.973C744.437 410.34 744.364 410.732 744.364 411.15C744.364 411.572 744.439 411.968 744.59 412.338C744.74 412.708 744.945 413.035 745.206 413.317C745.47 413.599 745.774 413.821 746.119 413.982C746.467 414.14 746.839 414.219 747.235 414.219ZM756.318 413.548L757.143 413.993C756.893 414.342 756.576 414.62 756.191 414.829C755.81 415.038 755.395 415.143 754.948 415.143C754.442 415.143 753.98 415.013 753.562 414.752C753.148 414.492 752.816 414.144 752.567 413.707C752.321 413.267 752.198 412.782 752.198 412.25C752.198 411.847 752.27 411.471 752.413 411.122C752.556 410.77 752.752 410.462 753.001 410.198C753.254 409.931 753.547 409.722 753.881 409.571C754.215 409.421 754.57 409.346 754.948 409.346C755.395 409.346 755.81 409.45 756.191 409.659C756.576 409.868 756.893 410.149 757.143 410.501L756.318 410.946C756.142 410.73 755.933 410.563 755.691 410.446C755.449 410.329 755.201 410.27 754.948 410.27C754.607 410.27 754.297 410.362 754.019 410.545C753.744 410.725 753.525 410.965 753.364 411.265C753.203 411.566 753.122 411.894 753.122 412.25C753.122 412.606 753.203 412.934 753.364 413.234C753.529 413.531 753.749 413.77 754.024 413.949C754.303 414.129 754.611 414.219 754.948 414.219C755.219 414.219 755.474 414.157 755.713 414.032C755.951 413.907 756.153 413.746 756.318 413.548ZM761.485 410.424H760.236L760.231 415H759.307L759.312 410.424H758.366V409.5H759.312L759.307 407.773H760.231L760.236 409.5H761.485V410.424Z" fill="#CBD5E0"/>
<path d="M670.372 415.143C669.957 415.143 669.558 415.079 669.173 414.95C668.788 414.818 668.45 414.631 668.161 414.389C667.875 414.147 667.671 413.86 667.55 413.526L668.414 413.201C668.487 413.407 668.623 413.586 668.821 413.74C669.022 413.891 669.259 414.008 669.53 414.092C669.801 414.177 670.082 414.219 670.372 414.219C670.702 414.219 671.008 414.166 671.29 414.059C671.576 413.949 671.807 413.797 671.983 413.603C672.159 413.409 672.247 413.181 672.247 412.921C672.247 412.653 672.155 412.435 671.972 412.266C671.789 412.094 671.554 411.958 671.268 411.859C670.982 411.757 670.683 411.678 670.372 411.623C669.84 411.535 669.363 411.41 668.942 411.249C668.524 411.084 668.192 410.855 667.946 410.561C667.704 410.268 667.583 409.881 667.583 409.401C667.583 408.954 667.711 408.563 667.968 408.229C668.228 407.896 668.571 407.637 668.997 407.454C669.422 407.271 669.88 407.179 670.372 407.179C670.779 407.179 671.173 407.243 671.554 407.371C671.939 407.496 672.278 407.679 672.572 407.921C672.865 408.163 673.076 408.459 673.204 408.807L672.33 409.126C672.256 408.917 672.119 408.737 671.917 408.587C671.719 408.433 671.484 408.316 671.213 408.235C670.945 408.151 670.665 408.108 670.372 408.108C670.045 408.105 669.741 408.158 669.459 408.268C669.176 408.378 668.947 408.53 668.771 408.724C668.595 408.919 668.507 409.144 668.507 409.401C668.507 409.709 668.588 409.945 668.749 410.11C668.914 410.272 669.138 410.393 669.42 410.473C669.702 410.554 670.02 410.626 670.372 410.688C670.87 410.772 671.332 410.906 671.758 411.089C672.183 411.269 672.524 411.509 672.781 411.81C673.041 412.111 673.171 412.481 673.171 412.921C673.171 413.368 673.041 413.759 672.781 414.092C672.524 414.426 672.183 414.685 671.758 414.868C671.332 415.051 670.87 415.143 670.372 415.143ZM677.24 415.143C676.734 415.143 676.272 415.013 675.854 414.752C675.44 414.492 675.108 414.144 674.859 413.707C674.613 413.267 674.49 412.782 674.49 412.25C674.49 411.847 674.562 411.471 674.705 411.122C674.848 410.77 675.044 410.462 675.293 410.198C675.546 409.931 675.84 409.722 676.173 409.571C676.507 409.421 676.863 409.346 677.24 409.346C677.655 409.346 678.034 409.43 678.379 409.599C678.727 409.764 679.024 409.995 679.27 410.292C679.519 410.589 679.704 410.934 679.825 411.326C679.95 411.718 679.996 412.138 679.963 412.585H675.475C675.519 412.897 675.621 413.176 675.783 413.421C675.944 413.663 676.149 413.856 676.399 413.999C676.652 414.142 676.932 414.215 677.24 414.219C677.57 414.219 677.869 414.135 678.137 413.966C678.404 413.794 678.621 413.559 678.786 413.262L679.726 413.482C679.506 413.97 679.174 414.369 678.731 414.681C678.287 414.989 677.79 415.143 677.24 415.143ZM675.447 411.859H679.033C679.004 411.551 678.905 411.271 678.736 411.018C678.568 410.761 678.353 410.556 678.093 410.402C677.832 410.248 677.548 410.171 677.24 410.171C676.932 410.171 676.65 410.246 676.393 410.396C676.137 410.547 675.924 410.75 675.755 411.007C675.59 411.26 675.488 411.544 675.447 411.859ZM682.314 417.75H681.39V409.5H682.314V410.44C682.501 410.118 682.75 409.857 683.062 409.659C683.373 409.458 683.744 409.357 684.173 409.357C684.572 409.357 684.946 409.432 685.295 409.582C685.647 409.733 685.955 409.942 686.219 410.209C686.483 410.473 686.69 410.78 686.84 411.128C686.99 411.476 687.066 411.85 687.066 412.25C687.066 412.65 686.99 413.025 686.84 413.377C686.69 413.729 686.483 414.039 686.219 414.307C685.955 414.571 685.647 414.778 685.295 414.928C684.946 415.079 684.572 415.154 684.173 415.154C683.744 415.154 683.373 415.055 683.062 414.857C682.75 414.655 682.501 414.393 682.314 414.07V417.75ZM684.162 410.253C683.806 410.253 683.494 410.343 683.227 410.523C682.959 410.703 682.752 410.943 682.605 411.243C682.462 411.544 682.391 411.88 682.391 412.25C682.391 412.617 682.462 412.952 682.605 413.256C682.752 413.561 682.957 413.803 683.221 413.982C683.489 414.162 683.802 414.252 684.162 414.252C684.517 414.252 684.844 414.164 685.141 413.988C685.438 413.808 685.676 413.568 685.856 413.267C686.035 412.963 686.125 412.624 686.125 412.25C686.125 411.883 686.037 411.55 685.861 411.249C685.685 410.945 685.449 410.703 685.152 410.523C684.855 410.343 684.525 410.253 684.162 410.253Z" fill="#CBD5E0"/>
<path d="M594.24 407.3H595.356L598.156 415H597.177L596.605 413.427H592.991L592.425 415H591.44L594.24 407.3ZM593.332 412.503H596.264L594.795 408.482L593.332 412.503ZM599.159 412.91V409.5H600.083V412.706C600.083 412.985 600.151 413.238 600.286 413.465C600.422 413.693 600.603 413.874 600.831 414.01C601.062 414.142 601.315 414.208 601.59 414.208C601.868 414.208 602.12 414.142 602.343 414.01C602.571 413.874 602.752 413.693 602.888 413.465C603.023 413.238 603.091 412.985 603.091 412.706V409.5H604.015L604.021 415H603.097L603.091 414.301C602.897 414.558 602.651 414.763 602.354 414.917C602.057 415.068 601.736 415.143 601.392 415.143C600.981 415.143 600.605 415.044 600.264 414.846C599.927 414.644 599.657 414.375 599.456 414.037C599.258 413.7 599.159 413.324 599.159 412.91ZM609.868 409.5H610.792V415.176C610.792 415.539 610.713 415.876 610.555 416.188C610.401 416.503 610.192 416.777 609.928 417.008C609.664 417.242 609.363 417.424 609.026 417.552C608.689 417.684 608.337 417.75 607.97 417.75C607.589 417.75 607.22 417.664 606.865 417.492C606.509 417.323 606.197 417.096 605.93 416.81C605.666 416.527 605.475 416.21 605.358 415.858L606.205 415.473C606.274 415.726 606.399 415.953 606.579 416.155C606.762 416.36 606.975 416.522 607.217 416.639C607.462 416.76 607.713 416.821 607.97 416.821C608.212 416.821 608.445 416.778 608.669 416.694C608.896 416.61 609.099 416.492 609.279 416.342C609.462 416.195 609.605 416.021 609.708 415.82C609.814 415.622 609.868 415.407 609.868 415.176V414.081C609.681 414.397 609.433 414.653 609.125 414.851C608.821 415.046 608.465 415.143 608.058 415.143C607.669 415.143 607.305 415.068 606.964 414.917C606.623 414.767 606.324 414.56 606.067 414.296C605.81 414.028 605.609 413.72 605.462 413.372C605.315 413.024 605.242 412.65 605.242 412.25C605.242 411.85 605.315 411.476 605.462 411.128C605.609 410.776 605.81 410.468 606.067 410.204C606.324 409.936 606.623 409.727 606.964 409.577C607.305 409.427 607.669 409.351 608.058 409.351C608.465 409.351 608.821 409.449 609.125 409.643C609.433 409.837 609.681 410.094 609.868 410.413V409.5ZM608.064 414.246C608.419 414.246 608.727 414.155 608.988 413.971C609.252 413.788 609.455 413.544 609.598 413.24C609.741 412.936 609.813 412.606 609.813 412.25C609.813 411.883 609.739 411.55 609.593 411.249C609.45 410.945 609.246 410.703 608.982 410.523C608.722 410.34 608.416 410.248 608.064 410.248C607.719 410.248 607.404 410.338 607.118 410.517C606.832 410.697 606.604 410.939 606.436 411.243C606.271 411.544 606.188 411.88 606.188 412.25C606.188 412.62 606.272 412.958 606.441 413.262C606.613 413.563 606.841 413.803 607.123 413.982C607.409 414.158 607.723 414.246 608.064 414.246Z" fill="#CBD5E0"/>
<path d="M520.645 415.143C520.388 415.143 520.137 415.099 519.891 415.011C519.645 414.927 519.422 414.798 519.22 414.626L519.809 413.911C519.915 414.003 520.038 414.078 520.177 414.136C520.32 414.191 520.476 414.219 520.645 414.219C520.887 414.219 521.107 414.155 521.305 414.026C521.503 413.898 521.66 413.729 521.778 413.52C521.899 413.311 521.959 413.088 521.959 412.849V407.3H522.883V412.849C522.883 413.26 522.782 413.64 522.581 413.988C522.379 414.333 522.109 414.611 521.772 414.824C521.435 415.037 521.059 415.143 520.645 415.143ZM524.484 412.91V409.5H525.408V412.706C525.408 412.985 525.476 413.238 525.612 413.465C525.747 413.693 525.929 413.874 526.156 414.01C526.387 414.142 526.64 414.208 526.915 414.208C527.194 414.208 527.445 414.142 527.669 414.01C527.896 413.874 528.077 413.693 528.213 413.465C528.349 413.238 528.417 412.985 528.417 412.706V409.5H529.341L529.346 415H528.422L528.417 414.301C528.222 414.558 527.977 414.763 527.68 414.917C527.383 415.068 527.062 415.143 526.717 415.143C526.306 415.143 525.931 415.044 525.59 414.846C525.252 414.644 524.983 414.375 524.781 414.037C524.583 413.7 524.484 413.324 524.484 412.91ZM531.016 415V406.75H531.94V415H531.016Z" fill="#CBD5E0"/>
<path d="M445.645 415.143C445.388 415.143 445.137 415.099 444.891 415.011C444.645 414.927 444.422 414.798 444.22 414.626L444.809 413.911C444.915 414.003 445.038 414.078 445.177 414.136C445.32 414.191 445.476 414.219 445.645 414.219C445.887 414.219 446.107 414.155 446.305 414.026C446.503 413.898 446.66 413.729 446.778 413.52C446.899 413.311 446.959 413.088 446.959 412.849V407.3H447.883V412.849C447.883 413.26 447.782 413.64 447.581 413.988C447.379 414.333 447.109 414.611 446.772 414.824C446.435 415.037 446.059 415.143 445.645 415.143ZM449.484 412.91V409.5H450.408V412.706C450.408 412.985 450.476 413.238 450.612 413.465C450.747 413.693 450.929 413.874 451.156 414.01C451.387 414.142 451.64 414.208 451.915 414.208C452.194 414.208 452.445 414.142 452.669 414.01C452.896 413.874 453.077 413.693 453.213 413.465C453.349 413.238 453.417 412.985 453.417 412.706V409.5H454.341L454.346 415H453.422L453.417 414.301C453.222 414.558 452.977 414.763 452.68 414.917C452.383 415.068 452.062 415.143 451.717 415.143C451.306 415.143 450.931 415.044 450.59 414.846C450.252 414.644 449.983 414.375 449.781 414.037C449.583 413.7 449.484 413.324 449.484 412.91ZM460.813 411.579V415H459.889V411.782C459.889 411.504 459.821 411.251 459.686 411.023C459.55 410.796 459.368 410.616 459.141 410.484C458.914 410.349 458.661 410.281 458.382 410.281C458.107 410.281 457.854 410.349 457.623 410.484C457.396 410.616 457.214 410.796 457.079 411.023C456.943 411.251 456.875 411.504 456.875 411.782V415H455.951V409.5H456.875V410.187C457.069 409.931 457.315 409.727 457.612 409.577C457.909 409.423 458.232 409.346 458.58 409.346C458.991 409.346 459.365 409.447 459.702 409.648C460.043 409.846 460.313 410.114 460.511 410.451C460.712 410.789 460.813 411.165 460.813 411.579Z" fill="#CBD5E0"/>
<path d="M368.66 415L370.151 407.3H370.86L372.939 412.767L375.013 407.3H375.722L377.218 415H376.278L375.194 409.412L373.242 414.582H372.631L370.679 409.412L369.601 415H368.66ZM382.981 409.5H383.905V415H382.981L382.943 414.07C382.771 414.389 382.532 414.648 382.228 414.846C381.927 415.044 381.568 415.143 381.15 415.143C380.747 415.143 380.369 415.068 380.017 414.917C379.665 414.763 379.353 414.553 379.082 414.285C378.814 414.014 378.605 413.702 378.455 413.35C378.305 412.998 378.229 412.618 378.229 412.211C378.229 411.819 378.303 411.449 378.449 411.1C378.596 410.752 378.8 410.448 379.06 410.187C379.324 409.923 379.628 409.718 379.973 409.571C380.318 409.421 380.688 409.346 381.084 409.346C381.517 409.346 381.896 409.449 382.222 409.654C382.549 409.856 382.813 410.118 383.014 410.44L382.981 409.5ZM381.133 414.246C381.496 414.246 381.81 414.158 382.074 413.982C382.342 413.803 382.547 413.561 382.69 413.256C382.837 412.952 382.91 412.617 382.91 412.25C382.91 411.876 382.837 411.539 382.69 411.238C382.543 410.934 382.336 410.693 382.068 410.517C381.804 410.338 381.493 410.248 381.133 410.248C380.77 410.248 380.44 410.338 380.143 410.517C379.846 410.697 379.61 410.939 379.434 411.243C379.262 411.544 379.175 411.88 379.175 412.25C379.175 412.62 379.265 412.958 379.445 413.262C379.625 413.563 379.863 413.803 380.16 413.982C380.457 414.158 380.781 414.246 381.133 414.246ZM389.1 409.5H390.079L387.071 417.75H386.092L387.087 415L385.113 409.5H386.125L387.549 413.729L389.1 409.5Z" fill="#CBD5E0"/>
<path d="M296.24 407.3H297.356L300.156 415H299.177L298.605 413.427H294.991L294.425 415H293.44L296.24 407.3ZM295.332 412.503H298.264L296.795 408.482L295.332 412.503ZM302.464 417.75H301.54V409.5H302.464V410.44C302.651 410.118 302.9 409.857 303.212 409.659C303.524 409.458 303.894 409.357 304.323 409.357C304.723 409.357 305.097 409.432 305.445 409.582C305.797 409.733 306.105 409.942 306.369 410.209C306.633 410.473 306.84 410.78 306.99 411.128C307.141 411.476 307.216 411.85 307.216 412.25C307.216 412.65 307.141 413.025 306.99 413.377C306.84 413.729 306.633 414.039 306.369 414.307C306.105 414.571 305.797 414.778 305.445 414.928C305.097 415.079 304.723 415.154 304.323 415.154C303.894 415.154 303.524 415.055 303.212 414.857C302.9 414.655 302.651 414.393 302.464 414.07V417.75ZM304.312 410.253C303.956 410.253 303.645 410.343 303.377 410.523C303.109 410.703 302.902 410.943 302.755 411.243C302.612 411.544 302.541 411.88 302.541 412.25C302.541 412.617 302.612 412.952 302.755 413.256C302.902 413.561 303.107 413.803 303.371 413.982C303.639 414.162 303.953 414.252 304.312 414.252C304.668 414.252 304.994 414.164 305.291 413.988C305.588 413.808 305.826 413.568 306.006 413.267C306.186 412.963 306.275 412.624 306.275 412.25C306.275 411.883 306.187 411.55 306.011 411.249C305.835 410.945 305.599 410.703 305.302 410.523C305.005 410.343 304.675 410.253 304.312 410.253ZM308.636 415V409.5H309.56V410.187C309.754 409.931 310 409.727 310.297 409.577C310.594 409.423 310.916 409.346 311.265 409.346C311.477 409.346 311.683 409.373 311.881 409.428L311.507 410.352C311.356 410.305 311.21 410.281 311.067 410.281C310.792 410.281 310.539 410.349 310.308 410.484C310.08 410.616 309.899 410.796 309.763 411.023C309.627 411.251 309.56 411.504 309.56 411.782V415H308.636Z" fill="#CBD5E0"/>
<path d="M218.66 415L220.151 407.3H220.86L222.939 412.767L225.013 407.3H225.722L227.218 415H226.278L225.194 409.412L223.242 414.582H222.631L220.679 409.412L219.601 415H218.66ZM232.981 409.5H233.905V415H232.981L232.943 414.07C232.771 414.389 232.532 414.648 232.228 414.846C231.927 415.044 231.568 415.143 231.15 415.143C230.747 415.143 230.369 415.068 230.017 414.917C229.665 414.763 229.353 414.553 229.082 414.285C228.814 414.014 228.605 413.702 228.455 413.35C228.305 412.998 228.229 412.618 228.229 412.211C228.229 411.819 228.303 411.449 228.449 411.1C228.596 410.752 228.8 410.448 229.06 410.187C229.324 409.923 229.628 409.718 229.973 409.571C230.318 409.421 230.688 409.346 231.084 409.346C231.517 409.346 231.896 409.449 232.222 409.654C232.549 409.856 232.813 410.118 233.014 410.44L232.981 409.5ZM231.133 414.246C231.496 414.246 231.81 414.158 232.074 413.982C232.342 413.803 232.547 413.561 232.69 413.256C232.837 412.952 232.91 412.617 232.91 412.25C232.91 411.876 232.837 411.539 232.69 411.238C232.543 410.934 232.336 410.693 232.068 410.517C231.804 410.338 231.493 410.248 231.133 410.248C230.77 410.248 230.44 410.338 230.143 410.517C229.846 410.697 229.61 410.939 229.434 411.243C229.262 411.544 229.175 411.88 229.175 412.25C229.175 412.62 229.265 412.958 229.445 413.262C229.625 413.563 229.863 413.803 230.16 413.982C230.457 414.158 230.781 414.246 231.133 414.246ZM235.505 415V409.5H236.429V410.187C236.623 409.931 236.869 409.727 237.166 409.577C237.463 409.423 237.785 409.346 238.134 409.346C238.346 409.346 238.552 409.373 238.75 409.428L238.376 410.352C238.225 410.305 238.079 410.281 237.936 410.281C237.661 410.281 237.408 410.349 237.177 410.484C236.949 410.616 236.768 410.796 236.632 411.023C236.497 411.251 236.429 411.504 236.429 411.782V415H235.505Z" fill="#CBD5E0"/>
<path d="M143.66 415V407.3H148.176V408.224H144.584V410.413H147.648V411.337H144.584V415H143.66ZM151.36 415.143C150.854 415.143 150.392 415.013 149.974 414.752C149.56 414.492 149.228 414.144 148.979 413.707C148.733 413.267 148.61 412.782 148.61 412.25C148.61 411.847 148.682 411.471 148.825 411.122C148.968 410.77 149.164 410.462 149.413 410.198C149.666 409.931 149.96 409.722 150.293 409.571C150.627 409.421 150.983 409.346 151.36 409.346C151.775 409.346 152.154 409.43 152.499 409.599C152.847 409.764 153.144 409.995 153.39 410.292C153.639 410.589 153.824 410.934 153.945 411.326C154.07 411.718 154.116 412.138 154.083 412.585H149.595C149.639 412.897 149.742 413.176 149.903 413.421C150.064 413.663 150.27 413.856 150.519 413.999C150.772 414.142 151.052 414.215 151.36 414.219C151.69 414.219 151.989 414.135 152.257 413.966C152.525 413.794 152.741 413.559 152.906 413.262L153.846 413.482C153.626 413.97 153.295 414.369 152.851 414.681C152.407 414.989 151.91 415.143 151.36 415.143ZM149.567 411.859H153.153C153.124 411.551 153.025 411.271 152.856 411.018C152.688 410.761 152.473 410.556 152.213 410.402C151.953 410.248 151.668 410.171 151.36 410.171C151.052 410.171 150.77 410.246 150.513 410.396C150.257 410.547 150.044 410.75 149.875 411.007C149.71 411.26 149.608 411.544 149.567 411.859ZM158.239 409.346C158.774 409.346 159.26 409.476 159.696 409.736C160.136 409.997 160.487 410.347 160.747 410.787C161.007 411.223 161.137 411.709 161.137 412.244C161.137 412.644 161.062 413.02 160.912 413.372C160.762 413.72 160.553 414.028 160.285 414.296C160.021 414.56 159.713 414.767 159.361 414.917C159.013 415.068 158.639 415.143 158.239 415.143C157.814 415.143 157.443 415.044 157.128 414.846C156.816 414.644 156.567 414.382 156.38 414.059V415H155.456V406.75H156.38V410.429C156.567 410.107 156.816 409.846 157.128 409.648C157.443 409.447 157.814 409.346 158.239 409.346ZM158.228 414.241C158.591 414.241 158.921 414.151 159.218 413.971C159.515 413.792 159.751 413.552 159.927 413.251C160.103 412.947 160.191 412.611 160.191 412.244C160.191 411.87 160.102 411.533 159.922 411.232C159.742 410.928 159.504 410.688 159.207 410.512C158.91 410.332 158.584 410.242 158.228 410.242C157.869 410.242 157.555 410.332 157.287 410.512C157.023 410.692 156.818 410.934 156.671 411.238C156.528 411.542 156.457 411.878 156.457 412.244C156.457 412.615 156.528 412.952 156.671 413.256C156.818 413.557 157.025 413.797 157.293 413.977C157.561 414.153 157.872 414.241 158.228 414.241Z" fill="#CBD5E0"/>
<path d="M70.6445 415.143C70.3878 415.143 70.1367 415.099 69.891 415.011C69.6453 414.927 69.4217 414.798 69.22 414.626L69.8085 413.911C69.9148 414.003 70.0377 414.078 70.177 414.136C70.32 414.191 70.4758 414.219 70.6445 414.219C70.8865 414.219 71.1065 414.155 71.3045 414.026C71.5025 413.898 71.6602 413.729 71.7775 413.52C71.8985 413.311 71.959 413.088 71.959 412.849V407.3H72.883V412.849C72.883 413.26 72.7822 413.64 72.5805 413.988C72.3788 414.333 72.1093 414.611 71.772 414.824C71.4347 415.037 71.0588 415.143 70.6445 415.143ZM79.1259 409.5H80.0499V415H79.1259L79.0874 414.07C78.9151 414.389 78.6768 414.648 78.3724 414.846C78.0718 415.044 77.7124 415.143 77.2944 415.143C76.8911 415.143 76.5134 415.068 76.1614 414.917C75.8094 414.763 75.4978 414.553 75.2264 414.285C74.9588 414.014 74.7498 413.702 74.5994 413.35C74.4491 412.998 74.3739 412.618 74.3739 412.211C74.3739 411.819 74.4473 411.449 74.5939 411.1C74.7406 410.752 74.9441 410.448 75.2044 410.187C75.4684 409.923 75.7728 409.718 76.1174 409.571C76.4621 409.421 76.8324 409.346 77.2284 409.346C77.6611 409.346 78.0406 409.449 78.3669 409.654C78.6933 409.856 78.9573 410.118 79.1589 410.44L79.1259 409.5ZM77.2779 414.246C77.6409 414.246 77.9544 414.158 78.2184 413.982C78.4861 413.803 78.6914 413.561 78.8344 413.256C78.9811 412.952 79.0544 412.617 79.0544 412.25C79.0544 411.876 78.9811 411.539 78.8344 411.238C78.6878 410.934 78.4806 410.693 78.2129 410.517C77.9489 410.338 77.6373 410.248 77.2779 410.248C76.9149 410.248 76.5849 410.338 76.2879 410.517C75.9909 410.697 75.7544 410.939 75.5784 411.243C75.4061 411.544 75.3199 411.88 75.3199 412.25C75.3199 412.62 75.4098 412.958 75.5894 413.262C75.7691 413.563 76.0074 413.803 76.3044 413.982C76.6014 414.158 76.9259 414.246 77.2779 414.246ZM86.5113 411.579V415H85.5873V411.782C85.5873 411.504 85.5194 411.251 85.3838 411.023C85.2481 410.796 85.0666 410.616 84.8393 410.484C84.6119 410.349 84.3589 410.281 84.0803 410.281C83.8053 410.281 83.5523 410.349 83.3213 410.484C83.0939 410.616 82.9124 410.796 82.7768 411.023C82.6411 411.251 82.5733 411.504 82.5733 411.782V415H81.6493V409.5H82.5733V410.187C82.7676 409.931 83.0133 409.727 83.3103 409.577C83.6073 409.423 83.9299 409.346 84.2783 409.346C84.6889 409.346 85.0629 409.447 85.4003 409.648C85.7413 409.846 86.0108 410.114 86.2088 410.451C86.4104 410.789 86.5113 411.165 86.5113 411.579Z" fill="#CBD5E0"/>
<path d="M31.2945 383.143C30.8362 383.143 30.4255 383.04 30.0625 382.835C29.6995 382.626 29.3878 382.338 29.1275 381.971C28.8672 381.605 28.6692 381.181 28.5335 380.701C28.3978 380.217 28.33 379.7 28.33 379.15C28.33 378.6 28.3978 378.083 28.5335 377.599C28.6692 377.115 28.8672 376.691 29.1275 376.328C29.3878 375.962 29.6995 375.676 30.0625 375.47C30.4255 375.261 30.8362 375.157 31.2945 375.157C31.7492 375.157 32.158 375.261 32.521 375.47C32.8877 375.676 33.1975 375.962 33.4505 376.328C33.7072 376.691 33.9033 377.115 34.039 377.599C34.1783 378.083 34.248 378.6 34.248 379.15C34.248 379.7 34.1783 380.217 34.039 380.701C33.9033 381.181 33.7072 381.605 33.4505 381.971C33.1975 382.338 32.8877 382.626 32.521 382.835C32.158 383.04 31.7492 383.143 31.2945 383.143ZM31.2945 382.219C31.7528 382.219 32.136 382.078 32.444 381.795C32.7557 381.509 32.9885 381.134 33.1425 380.668C33.2965 380.202 33.3735 379.696 33.3735 379.15C33.3735 378.574 33.2928 378.055 33.1315 377.593C32.9738 377.128 32.7392 376.759 32.4275 376.488C32.1195 376.217 31.7418 376.081 31.2945 376.081C30.9425 376.081 30.6345 376.163 30.3705 376.328C30.1102 376.493 29.8938 376.719 29.7215 377.005C29.5492 377.291 29.419 377.619 29.331 377.989C29.2467 378.356 29.2045 378.743 29.2045 379.15C29.2045 379.696 29.2833 380.204 29.441 380.673C29.5987 381.139 29.8315 381.513 30.1395 381.795C30.4512 382.078 30.8362 382.219 31.2945 382.219Z" fill="#CBD5E0"/>
<path d="M29.3035 333V326.224H28.44L28.6985 325.3H30.2275V333H29.3035ZM34.899 333.143C34.4407 333.143 34.03 333.04 33.667 332.835C33.304 332.626 32.9923 332.338 32.732 331.971C32.4717 331.605 32.2737 331.181 32.138 330.701C32.0023 330.217 31.9345 329.7 31.9345 329.15C31.9345 328.6 32.0023 328.083 32.138 327.599C32.2737 327.115 32.4717 326.691 32.732 326.328C32.9923 325.962 33.304 325.676 33.667 325.47C34.03 325.261 34.4407 325.157 34.899 325.157C35.3537 325.157 35.7625 325.261 36.1255 325.47C36.4922 325.676 36.802 325.962 37.055 326.328C37.3117 326.691 37.5078 327.115 37.6435 327.599C37.7828 328.083 37.8525 328.6 37.8525 329.15C37.8525 329.7 37.7828 330.217 37.6435 330.701C37.5078 331.181 37.3117 331.605 37.055 331.971C36.802 332.338 36.4922 332.626 36.1255 332.835C35.7625 333.04 35.3537 333.143 34.899 333.143ZM34.899 332.219C35.3573 332.219 35.7405 332.078 36.0485 331.795C36.3602 331.509 36.593 331.134 36.747 330.668C36.901 330.202 36.978 329.696 36.978 329.15C36.978 328.574 36.8973 328.055 36.736 327.593C36.5783 327.128 36.3437 326.759 36.032 326.488C35.724 326.217 35.3463 326.081 34.899 326.081C34.547 326.081 34.239 326.163 33.975 326.328C33.7147 326.493 33.4983 326.719 33.326 327.005C33.1537 327.291 33.0235 327.619 32.9355 327.989C32.8512 328.356 32.809 328.743 32.809 329.15C32.809 329.696 32.8878 330.204 33.0455 330.673C33.2032 331.139 33.436 331.513 33.744 331.795C34.0557 332.078 34.4407 332.219 34.899 332.219ZM41.8228 333.143C41.3645 333.143 40.9538 333.04 40.5908 332.835C40.2278 332.626 39.9162 332.338 39.6558 331.971C39.3955 331.605 39.1975 331.181 39.0618 330.701C38.9262 330.217 38.8583 329.7 38.8583 329.15C38.8583 328.6 38.9262 328.083 39.0618 327.599C39.1975 327.115 39.3955 326.691 39.6558 326.328C39.9162 325.962 40.2278 325.676 40.5908 325.47C40.9538 325.261 41.3645 325.157 41.8228 325.157C42.2775 325.157 42.6863 325.261 43.0493 325.47C43.416 325.676 43.7258 325.962 43.9788 326.328C44.2355 326.691 44.4317 327.115 44.5673 327.599C44.7067 328.083 44.7763 328.6 44.7763 329.15C44.7763 329.7 44.7067 330.217 44.5673 330.701C44.4317 331.181 44.2355 331.605 43.9788 331.971C43.7258 332.338 43.416 332.626 43.0493 332.835C42.6863 333.04 42.2775 333.143 41.8228 333.143ZM41.8228 332.219C42.2812 332.219 42.6643 332.078 42.9723 331.795C43.284 331.509 43.5168 331.134 43.6708 330.668C43.8248 330.202 43.9018 329.696 43.9018 329.15C43.9018 328.574 43.8212 328.055 43.6598 327.593C43.5022 327.128 43.2675 326.759 42.9558 326.488C42.6478 326.217 42.2702 326.081 41.8228 326.081C41.4708 326.081 41.1628 326.163 40.8988 326.328C40.6385 326.493 40.4222 326.719 40.2498 327.005C40.0775 327.291 39.9473 327.619 39.8593 327.989C39.775 328.356 39.7328 328.743 39.7328 329.15C39.7328 329.696 39.8117 330.204 39.9693 330.673C40.127 331.139 40.3598 331.513 40.6678 331.795C40.9795 332.078 41.3645 332.219 41.8228 332.219Z" fill="#CBD5E0"/>
<path d="M28.44 283V282.18C28.7223 281.927 29.0395 281.645 29.3915 281.333C29.7435 281.018 30.0937 280.69 30.442 280.349C30.794 280.004 31.1167 279.663 31.41 279.326C31.7033 278.989 31.9398 278.67 32.1195 278.369C32.2992 278.065 32.389 277.799 32.389 277.571C32.389 277.3 32.323 277.053 32.191 276.829C32.059 276.602 31.8812 276.42 31.6575 276.284C31.4375 276.149 31.1918 276.081 30.9205 276.081C30.6492 276.081 30.3998 276.149 30.1725 276.284C29.9488 276.42 29.7692 276.602 29.6335 276.829C29.5015 277.053 29.4355 277.3 29.4355 277.571H28.5115C28.5115 277.12 28.6215 276.713 28.8415 276.35C29.0615 275.984 29.353 275.694 29.716 275.481C30.079 275.265 30.4805 275.157 30.9205 275.157C31.3605 275.157 31.7602 275.265 32.1195 275.481C32.4825 275.698 32.7722 275.989 32.9885 276.356C33.2048 276.719 33.313 277.124 33.313 277.571C33.313 277.828 33.2507 278.105 33.126 278.402C33.0013 278.695 32.8308 278.998 32.6145 279.309C32.3982 279.621 32.1525 279.936 31.8775 280.255C31.6025 280.571 31.3128 280.882 31.0085 281.19C30.7042 281.498 30.4017 281.794 30.101 282.076H33.412V283H28.44ZM37.5845 283.143C37.1262 283.143 36.7155 283.04 36.3525 282.835C35.9895 282.626 35.6779 282.338 35.4175 281.971C35.1572 281.605 34.9592 281.181 34.8235 280.701C34.6879 280.217 34.62 279.7 34.62 279.15C34.62 278.6 34.6879 278.083 34.8235 277.599C34.9592 277.115 35.1572 276.691 35.4175 276.328C35.6779 275.962 35.9895 275.676 36.3525 275.47C36.7155 275.261 37.1262 275.157 37.5845 275.157C38.0392 275.157 38.448 275.261 38.811 275.47C39.1777 275.676 39.4875 275.962 39.7405 276.328C39.9972 276.691 40.1934 277.115 40.329 277.599C40.4684 278.083 40.538 278.6 40.538 279.15C40.538 279.7 40.4684 280.217 40.329 280.701C40.1934 281.181 39.9972 281.605 39.7405 281.971C39.4875 282.338 39.1777 282.626 38.811 282.835C38.448 283.04 38.0392 283.143 37.5845 283.143ZM37.5845 282.219C38.0429 282.219 38.426 282.078 38.734 281.795C39.0457 281.509 39.2785 281.134 39.4325 280.668C39.5865 280.202 39.6635 279.696 39.6635 279.15C39.6635 278.574 39.5829 278.055 39.4215 277.593C39.2639 277.128 39.0292 276.759 38.7175 276.488C38.4095 276.217 38.0319 276.081 37.5845 276.081C37.2325 276.081 36.9245 276.163 36.6605 276.328C36.4002 276.493 36.1839 276.719 36.0115 277.005C35.8392 277.291 35.709 277.619 35.621 277.989C35.5367 278.356 35.4945 278.743 35.4945 279.15C35.4945 279.696 35.5734 280.204 35.731 280.673C35.8887 281.139 36.1215 281.513 36.4295 281.795C36.7412 282.078 37.1262 282.219 37.5845 282.219ZM44.5084 283.143C44.05 283.143 43.6394 283.04 43.2764 282.835C42.9134 282.626 42.6017 282.338 42.3414 281.971C42.081 281.605 41.883 281.181 41.7474 280.701C41.6117 280.217 41.5439 279.7 41.5439 279.15C41.5439 278.6 41.6117 278.083 41.7474 277.599C41.883 277.115 42.081 276.691 42.3414 276.328C42.6017 275.962 42.9134 275.676 43.2764 275.47C43.6394 275.261 44.05 275.157 44.5084 275.157C44.963 275.157 45.3719 275.261 45.7349 275.47C46.1015 275.676 46.4114 275.962 46.6644 276.328C46.921 276.691 47.1172 277.115 47.2529 277.599C47.3922 278.083 47.4619 278.6 47.4619 279.15C47.4619 279.7 47.3922 280.217 47.2529 280.701C47.1172 281.181 46.921 281.605 46.6644 281.971C46.4114 282.338 46.1015 282.626 45.7349 282.835C45.3719 283.04 44.963 283.143 44.5084 283.143ZM44.5084 282.219C44.9667 282.219 45.3499 282.078 45.6579 281.795C45.9695 281.509 46.2024 281.134 46.3564 280.668C46.5104 280.202 46.5874 279.696 46.5874 279.15C46.5874 278.574 46.5067 278.055 46.3454 277.593C46.1877 277.128 45.953 276.759 45.6414 276.488C45.3334 276.217 44.9557 276.081 44.5084 276.081C44.1564 276.081 43.8484 276.163 43.5844 276.328C43.324 276.493 43.1077 276.719 42.9354 277.005C42.763 277.291 42.6329 277.619 42.5449 277.989C42.4605 278.356 42.4184 278.743 42.4184 279.15C42.4184 279.696 42.4972 280.204 42.6549 280.673C42.8125 281.139 43.0454 281.513 43.3534 281.795C43.665 282.078 44.05 282.219 44.5084 282.219Z" fill="#CBD5E0"/>
<path d="M30.728 233.143C30.2623 233.143 29.848 233.038 29.485 232.829C29.1257 232.617 28.8433 232.334 28.638 231.982C28.4327 231.627 28.33 231.233 28.33 230.8H29.254C29.254 231.06 29.3145 231.299 29.4355 231.515C29.5565 231.728 29.727 231.898 29.947 232.026C30.167 232.155 30.4273 232.219 30.728 232.219C30.9883 232.219 31.2303 232.155 31.454 232.026C31.6813 231.898 31.8647 231.728 32.004 231.515C32.1433 231.299 32.213 231.06 32.213 230.8C32.213 230.474 32.1287 230.202 31.96 229.986C31.795 229.766 31.564 229.603 31.267 229.496C30.9737 229.386 30.6382 229.331 30.2605 229.331V228.589C30.7812 228.589 31.1973 228.481 31.509 228.264C31.8243 228.048 31.982 227.729 31.982 227.307C31.982 227.084 31.9215 226.878 31.8005 226.691C31.6795 226.504 31.52 226.356 31.322 226.246C31.1277 226.132 30.9187 226.075 30.695 226.075C30.4677 226.075 30.2495 226.132 30.0405 226.246C29.8315 226.356 29.661 226.504 29.529 226.691C29.397 226.878 29.331 227.084 29.331 227.307H28.407C28.407 227.01 28.4675 226.732 28.5885 226.471C28.7132 226.211 28.8818 225.982 29.0945 225.784C29.3108 225.586 29.5547 225.432 29.826 225.322C30.0973 225.208 30.3833 225.151 30.684 225.151C31.0763 225.151 31.4412 225.249 31.7785 225.443C32.1158 225.637 32.3872 225.898 32.5925 226.224C32.8015 226.55 32.906 226.911 32.906 227.307C32.906 227.663 32.8162 227.991 32.6365 228.292C32.4568 228.593 32.213 228.803 31.905 228.924C32.1727 229.016 32.3982 229.159 32.5815 229.353C32.7648 229.544 32.9023 229.764 32.994 230.013C33.0893 230.263 33.137 230.525 33.137 230.8C33.137 231.229 33.0252 231.621 32.8015 231.977C32.5815 232.333 32.2882 232.617 31.9215 232.829C31.5585 233.038 31.1607 233.143 30.728 233.143ZM37.2623 233.143C36.8039 233.143 36.3933 233.04 36.0303 232.835C35.6673 232.626 35.3556 232.338 35.0953 231.971C34.8349 231.605 34.6369 231.181 34.5013 230.701C34.3656 230.217 34.2978 229.7 34.2978 229.15C34.2978 228.6 34.3656 228.083 34.5013 227.599C34.6369 227.115 34.8349 226.691 35.0953 226.328C35.3556 225.962 35.6673 225.676 36.0303 225.47C36.3933 225.261 36.8039 225.157 37.2623 225.157C37.7169 225.157 38.1258 225.261 38.4888 225.47C38.8554 225.676 39.1653 225.962 39.4183 226.328C39.6749 226.691 39.8711 227.115 40.0068 227.599C40.1461 228.083 40.2158 228.6 40.2158 229.15C40.2158 229.7 40.1461 230.217 40.0068 230.701C39.8711 231.181 39.6749 231.605 39.4183 231.971C39.1653 232.338 38.8554 232.626 38.4888 232.835C38.1258 233.04 37.7169 233.143 37.2623 233.143ZM37.2623 232.219C37.7206 232.219 38.1038 232.078 38.4118 231.795C38.7234 231.509 38.9563 231.134 39.1103 230.668C39.2643 230.202 39.3413 229.696 39.3413 229.15C39.3413 228.574 39.2606 228.055 39.0993 227.593C38.9416 227.128 38.7069 226.759 38.3953 226.488C38.0873 226.217 37.7096 226.081 37.2623 226.081C36.9103 226.081 36.6023 226.163 36.3383 226.328C36.0779 226.493 35.8616 226.719 35.6893 227.005C35.5169 227.291 35.3868 227.619 35.2988 227.989C35.2144 228.356 35.1723 228.743 35.1723 229.15C35.1723 229.696 35.2511 230.204 35.4088 230.673C35.5664 231.139 35.7993 231.513 36.1073 231.795C36.4189 232.078 36.8039 232.219 37.2623 232.219ZM44.1861 233.143C43.7278 233.143 43.3171 233.04 42.9541 232.835C42.5911 232.626 42.2794 232.338 42.0191 231.971C41.7588 231.605 41.5608 231.181 41.4251 230.701C41.2894 230.217 41.2216 229.7 41.2216 229.15C41.2216 228.6 41.2894 228.083 41.4251 227.599C41.5608 227.115 41.7588 226.691 42.0191 226.328C42.2794 225.962 42.5911 225.676 42.9541 225.47C43.3171 225.261 43.7278 225.157 44.1861 225.157C44.6408 225.157 45.0496 225.261 45.4126 225.47C45.7793 225.676 46.0891 225.962 46.3421 226.328C46.5988 226.691 46.7949 227.115 46.9306 227.599C47.0699 228.083 47.1396 228.6 47.1396 229.15C47.1396 229.7 47.0699 230.217 46.9306 230.701C46.7949 231.181 46.5988 231.605 46.3421 231.971C46.0891 232.338 45.7793 232.626 45.4126 232.835C45.0496 233.04 44.6408 233.143 44.1861 233.143ZM44.1861 232.219C44.6444 232.219 45.0276 232.078 45.3356 231.795C45.6473 231.509 45.8801 231.134 46.0341 230.668C46.1881 230.202 46.2651 229.696 46.2651 229.15C46.2651 228.574 46.1844 228.055 46.0231 227.593C45.8654 227.128 45.6308 226.759 45.3191 226.488C45.0111 226.217 44.6334 226.081 44.1861 226.081C43.8341 226.081 43.5261 226.163 43.2621 226.328C43.0018 226.493 42.7854 226.719 42.6131 227.005C42.4408 227.291 42.3106 227.619 42.2226 227.989C42.1383 228.356 42.0961 228.743 42.0961 229.15C42.0961 229.696 42.1749 230.204 42.3326 230.673C42.4903 231.139 42.7231 231.513 43.0311 231.795C43.3428 232.078 43.7278 232.219 44.1861 232.219Z" fill="#CBD5E0"/>
<path d="M31.751 183V180.921H28.44V179.986L31.52 175.3H32.675V179.997H33.4395V180.921H32.675V183H31.751ZM29.5235 179.986L31.751 179.997L31.7345 176.598L29.5235 179.986ZM37.5631 183.143C37.1047 183.143 36.6941 183.04 36.3311 182.835C35.9681 182.626 35.6564 182.338 35.3961 181.971C35.1357 181.605 34.9377 181.181 34.8021 180.701C34.6664 180.217 34.5986 179.7 34.5986 179.15C34.5986 178.6 34.6664 178.083 34.8021 177.599C34.9377 177.115 35.1357 176.691 35.3961 176.328C35.6564 175.962 35.9681 175.676 36.3311 175.47C36.6941 175.261 37.1047 175.157 37.5631 175.157C38.0177 175.157 38.4266 175.261 38.7896 175.47C39.1562 175.676 39.4661 175.962 39.7191 176.328C39.9757 176.691 40.1719 177.115 40.3076 177.599C40.4469 178.083 40.5166 178.6 40.5166 179.15C40.5166 179.7 40.4469 180.217 40.3076 180.701C40.1719 181.181 39.9757 181.605 39.7191 181.971C39.4661 182.338 39.1562 182.626 38.7896 182.835C38.4266 183.04 38.0177 183.143 37.5631 183.143ZM37.5631 182.219C38.0214 182.219 38.4046 182.078 38.7126 181.795C39.0242 181.509 39.2571 181.134 39.4111 180.668C39.5651 180.202 39.6421 179.696 39.6421 179.15C39.6421 178.574 39.5614 178.055 39.4001 177.593C39.2424 177.128 39.0077 176.759 38.6961 176.488C38.3881 176.217 38.0104 176.081 37.5631 176.081C37.2111 176.081 36.9031 176.163 36.6391 176.328C36.3787 176.493 36.1624 176.719 35.9901 177.005C35.8177 177.291 35.6876 177.619 35.5996 177.989C35.5152 178.356 35.4731 178.743 35.4731 179.15C35.4731 179.696 35.5519 180.204 35.7096 180.673C35.8672 181.139 36.1001 181.513 36.4081 181.795C36.7197 182.078 37.1047 182.219 37.5631 182.219ZM44.4869 183.143C44.0285 183.143 43.6179 183.04 43.2549 182.835C42.8919 182.626 42.5802 182.338 42.3199 181.971C42.0595 181.605 41.8615 181.181 41.7259 180.701C41.5902 180.217 41.5224 179.7 41.5224 179.15C41.5224 178.6 41.5902 178.083 41.7259 177.599C41.8615 177.115 42.0595 176.691 42.3199 176.328C42.5802 175.962 42.8919 175.676 43.2549 175.47C43.6179 175.261 44.0285 175.157 44.4869 175.157C44.9415 175.157 45.3504 175.261 45.7134 175.47C46.08 175.676 46.3899 175.962 46.6429 176.328C46.8995 176.691 47.0957 177.115 47.2314 177.599C47.3707 178.083 47.4404 178.6 47.4404 179.15C47.4404 179.7 47.3707 180.217 47.2314 180.701C47.0957 181.181 46.8995 181.605 46.6429 181.971C46.3899 182.338 46.08 182.626 45.7134 182.835C45.3504 183.04 44.9415 183.143 44.4869 183.143ZM44.4869 182.219C44.9452 182.219 45.3284 182.078 45.6364 181.795C45.948 181.509 46.1809 181.134 46.3349 180.668C46.4889 180.202 46.5659 179.696 46.5659 179.15C46.5659 178.574 46.4852 178.055 46.3239 177.593C46.1662 177.128 45.9315 176.759 45.6199 176.488C45.3119 176.217 44.9342 176.081 44.4869 176.081C44.1349 176.081 43.8269 176.163 43.5629 176.328C43.3025 176.493 43.0862 176.719 42.9139 177.005C42.7415 177.291 42.6114 177.619 42.5234 177.989C42.439 178.356 42.3969 178.743 42.3969 179.15C42.3969 179.696 42.4757 180.204 42.6334 180.673C42.791 181.139 43.0239 181.513 43.3319 181.795C43.6435 182.078 44.0285 182.219 44.4869 182.219Z" fill="#CBD5E0"/>
<path d="M30.9425 133.143C30.4658 133.143 30.0332 133.028 29.6445 132.796C29.2558 132.565 28.9478 132.257 28.7205 131.872C28.4968 131.484 28.385 131.057 28.385 130.591H29.309C29.309 130.888 29.3823 131.161 29.529 131.41C29.6757 131.656 29.8718 131.852 30.1175 131.999C30.3668 132.146 30.6418 132.219 30.9425 132.219C31.2395 132.219 31.5108 132.146 31.7565 131.999C32.0022 131.852 32.1983 131.656 32.345 131.41C32.4917 131.161 32.565 130.888 32.565 130.591C32.565 130.294 32.4953 130.021 32.356 129.771C32.2203 129.522 32.0205 129.324 31.7565 129.177C31.4925 129.027 31.1717 128.952 30.794 128.952H28.8965L29.6445 125.3H33.2965V126.224H30.3925L30.035 128.028L30.8325 128.033C31.3568 128.044 31.817 128.162 32.213 128.385C32.6127 128.605 32.9243 128.906 33.148 129.287C33.3753 129.665 33.489 130.1 33.489 130.591C33.489 130.939 33.423 131.269 33.291 131.581C33.159 131.889 32.9757 132.16 32.741 132.395C32.5063 132.63 32.235 132.813 31.927 132.945C31.6227 133.077 31.2945 133.143 30.9425 133.143ZM37.606 133.143C37.1477 133.143 36.737 133.04 36.374 132.835C36.011 132.626 35.6994 132.338 35.439 131.971C35.1787 131.605 34.9807 131.181 34.845 130.701C34.7094 130.217 34.6415 129.7 34.6415 129.15C34.6415 128.6 34.7094 128.083 34.845 127.599C34.9807 127.115 35.1787 126.691 35.439 126.328C35.6994 125.962 36.011 125.676 36.374 125.47C36.737 125.261 37.1477 125.157 37.606 125.157C38.0607 125.157 38.4695 125.261 38.8325 125.47C39.1992 125.676 39.509 125.962 39.762 126.328C40.0187 126.691 40.2149 127.115 40.3505 127.599C40.4899 128.083 40.5595 128.6 40.5595 129.15C40.5595 129.7 40.4899 130.217 40.3505 130.701C40.2149 131.181 40.0187 131.605 39.762 131.971C39.509 132.338 39.1992 132.626 38.8325 132.835C38.4695 133.04 38.0607 133.143 37.606 133.143ZM37.606 132.219C38.0644 132.219 38.4475 132.078 38.7555 131.795C39.0672 131.509 39.3 131.134 39.454 130.668C39.608 130.202 39.685 129.696 39.685 129.15C39.685 128.574 39.6044 128.055 39.443 127.593C39.2854 127.128 39.0507 126.759 38.739 126.488C38.431 126.217 38.0534 126.081 37.606 126.081C37.254 126.081 36.946 126.163 36.682 126.328C36.4217 126.493 36.2054 126.719 36.033 127.005C35.8607 127.291 35.7305 127.619 35.6425 127.989C35.5582 128.356 35.516 128.743 35.516 129.15C35.516 129.696 35.5949 130.204 35.7525 130.673C35.9102 131.139 36.143 131.513 36.451 131.795C36.7627 132.078 37.1477 132.219 37.606 132.219ZM44.5299 133.143C44.0715 133.143 43.6609 133.04 43.2979 132.835C42.9349 132.626 42.6232 132.338 42.3629 131.971C42.1025 131.605 41.9045 131.181 41.7689 130.701C41.6332 130.217 41.5654 129.7 41.5654 129.15C41.5654 128.6 41.6332 128.083 41.7689 127.599C41.9045 127.115 42.1025 126.691 42.3629 126.328C42.6232 125.962 42.9349 125.676 43.2979 125.47C43.6609 125.261 44.0715 125.157 44.5299 125.157C44.9845 125.157 45.3934 125.261 45.7564 125.47C46.123 125.676 46.4329 125.962 46.6859 126.328C46.9425 126.691 47.1387 127.115 47.2744 127.599C47.4137 128.083 47.4834 128.6 47.4834 129.15C47.4834 129.7 47.4137 130.217 47.2744 130.701C47.1387 131.181 46.9425 131.605 46.6859 131.971C46.4329 132.338 46.123 132.626 45.7564 132.835C45.3934 133.04 44.9845 133.143 44.5299 133.143ZM44.5299 132.219C44.9882 132.219 45.3714 132.078 45.6794 131.795C45.991 131.509 46.2239 131.134 46.3779 130.668C46.5319 130.202 46.6089 129.696 46.6089 129.15C46.6089 128.574 46.5282 128.055 46.3669 127.593C46.2092 127.128 45.9745 126.759 45.6629 126.488C45.3549 126.217 44.9772 126.081 44.5299 126.081C44.1779 126.081 43.8699 126.163 43.6059 126.328C43.3455 126.493 43.1292 126.719 42.9569 127.005C42.7845 127.291 42.6544 127.619 42.5664 127.989C42.482 128.356 42.4399 128.743 42.4399 129.15C42.4399 129.696 42.5187 130.204 42.6764 130.673C42.834 131.139 43.0669 131.513 43.3749 131.795C43.6865 132.078 44.0715 132.219 44.5299 132.219Z" fill="#CBD5E0"/>
<line x1="69.0001" y1="378.5" x2="908" y2="378.5" stroke="#E2E8F0" stroke-linecap="round" stroke-linejoin="round" stroke-dasharray="3.5 3.5"/>
<line x1="69.0001" y1="328.5" x2="908" y2="328.5" stroke="#E2E8F0" stroke-linecap="round" stroke-linejoin="round" stroke-dasharray="3.5 3.5"/>
<line x1="69.0001" y1="278.5" x2="908" y2="278.5" stroke="#E2E8F0" stroke-linecap="round" stroke-linejoin="round" stroke-dasharray="3.5 3.5"/>
<line x1="69.0001" y1="228.5" x2="908" y2="228.5" stroke="#E2E8F0" stroke-linecap="round" stroke-linejoin="round" stroke-dasharray="3.5 3.5"/>
<line x1="69.0001" y1="178.5" x2="908" y2="178.5" stroke="#E2E8F0" stroke-linecap="round" stroke-linejoin="round" stroke-dasharray="3.5 3.5"/>
<line x1="69.0001" y1="128.5" x2="908" y2="128.5" stroke="#E2E8F0" stroke-linecap="round" stroke-linejoin="round" stroke-dasharray="3.5 3.5"/>
<path d="M793.703 298.545C837.311 285.448 888.404 304.003 908.5 314.917V378.75H68.5001V129C110.701 136.492 137.83 198.095 144.612 237.22C150.144 269.132 150.39 291.886 179.78 298.545C209.327 305.24 244.359 283.936 274 255.077C297.713 231.99 333.115 245.457 347.852 255.077C373.976 271.819 417.01 283.172 451.574 266.079C494.78 244.713 518.644 250.817 573.153 266.079C627.663 281.341 622.136 291.053 667.603 314.917C713.069 338.781 739.194 314.917 793.703 298.545Z" fill="url(#paint0_linear_179_870)"/>
<path d="M908.5 314.917C888.404 304.003 837.311 285.448 793.703 298.545C739.194 314.917 713.069 338.781 667.603 314.917C622.136 291.053 627.663 281.341 573.153 266.079C518.644 250.817 494.78 244.713 451.574 266.079C417.01 283.172 373.976 271.819 347.852 255.077C333.115 245.457 297.713 231.99 274 255.077C244.359 283.936 209.327 305.24 179.78 298.545C150.39 291.886 150.144 269.132 144.612 237.22C137.83 198.095 110.701 136.492 68.5001 129" stroke="#193579" stroke-width="3"/>
<path d="M182.414 271.457C139.142 258.369 88.4413 276.91 68.5001 287.817V378.5H907.5V163.907C865.624 171.394 830.05 169.453 823.32 208.55C817.831 240.438 817.587 263.175 788.423 269.83C759.103 276.52 742.059 237.387 712.646 208.55C689.115 185.48 649.486 215.5 634.862 225.113C608.939 241.842 550.007 205.341 524.468 176.648C488 135.678 440.043 131.931 403.823 176.648C367.604 221.365 331.678 184.703 286.561 208.55C241.444 232.396 236.505 287.817 182.414 271.457Z" fill="url(#paint1_linear_179_870)"/>
<path d="M68.5001 288C88.4413 277.079 139.142 258.515 182.414 271.619C236.505 288 241.444 232.509 286.561 208.632C331.678 184.755 367.604 221.464 403.823 176.689C440.043 131.915 488 135.667 524.468 176.689C550.007 205.419 608.939 241.967 634.862 225.216C649.486 215.591 689.115 185.532 712.646 208.632C742.059 237.506 759.103 276.689 788.423 269.99C817.587 263.327 817.831 240.56 823.32 208.632C830.05 169.485 865.624 171.429 907.5 163.932" stroke="#FF9900" stroke-width="3"/>
<defs>
<filter id="filter0_d_179_870" x="0.5" y="-2.38419e-07" width="935" height="456" filterUnits="userSpaceOnUse" color-interpolation-filters="sRGB">
<feFlood flood-opacity="0" result="BackgroundImageFix"/>
<feColorMatrix in="SourceAlpha" type="matrix" values="0 0 0 0 0 0 0 0 0 0 0 0 0 0 0 0 0 0 127 0" result="hardAlpha"/>
<feOffset dy="3.5"/>
<feGaussianBlur stdDeviation="2.75"/>
<feColorMatrix type="matrix" values="0 0 0 0 0 0 0 0 0 0 0 0 0 0 0 0 0 0 0.02 0"/>
<feBlend mode="normal" in2="BackgroundImageFix" result="effect1_dropShadow_179_870"/>
<feBlend mode="normal" in="SourceGraphic" in2="effect1_dropShadow_179_870" result="shape"/>
</filter>
<linearGradient id="paint0_linear_179_870" x1="488.5" y1="129" x2="488.5" y2="378.75" gradientUnits="userSpaceOnUse">
<stop stop-color="#193579" stop-opacity="0.36"/>
<stop offset="1" stop-color="#193579" stop-opacity="0"/>
</linearGradient>
<linearGradient id="paint1_linear_179_870" x1="488" y1="144.5" x2="488" y2="378.5" gradientUnits="userSpaceOnUse">
<stop stop-color="#FF9900" stop-opacity="0.54"/>
<stop offset="1" stop-color="#FF9900" stop-opacity="0"/>
</linearGradient>
</defs>
</svg>
