<svg width="513" height="383" viewBox="0 0 513 383" fill="none" xmlns="http://www.w3.org/2000/svg">
<g filter="url(#filter0_d_1_403)">
<g clip-path="url(#clip0_1_403)">
<g filter="url(#filter1_d_1_403)">
<rect x="10.5" y="5" width="750.635" height="361.507" rx="12.1856" fill="white"/>
</g>
<path d="M30.6811 73.6909C30.2944 73.3231 29.9816 72.9137 29.7428 72.4625C29.504 72.0114 29.3296 71.528 29.2196 71.0125C29.1097 70.4931 29.0547 69.9528 29.0547 69.3918C29.0547 69.0961 29.0775 68.7814 29.1229 68.4478C29.1684 68.1104 29.2367 67.7749 29.3277 67.4413C29.4187 67.1038 29.5286 66.7835 29.6575 66.4802C29.7902 66.1769 29.9418 65.9059 30.1124 65.667C30.283 65.4244 30.4726 65.2329 30.6811 65.0927H31.6364C31.4507 65.2595 31.2782 65.4642 31.119 65.7068C30.9597 65.9457 30.8138 66.2129 30.6811 66.5086C30.5484 66.8006 30.4328 67.1095 30.3342 67.4356C30.2356 67.7616 30.1579 68.0914 30.101 68.425C30.048 68.7549 30.0176 69.0771 30.0101 69.3918C30.0214 69.987 30.0973 70.548 30.2375 71.075C30.3816 71.602 30.573 72.0853 30.8119 72.5251C31.0545 72.9649 31.3294 73.3535 31.6364 73.6909H30.6811ZM35.1059 72.4853V70.1197H32.7403V69.1643H35.1059V66.7987H36.0613V69.1643H38.4269V70.1197H36.0613V72.4853H35.1059ZM42.0063 73.2018C41.5135 73.2018 41.0661 73.0824 40.6643 72.8435C40.2624 72.6047 39.944 72.2863 39.7089 71.8882C39.4777 71.4863 39.362 71.0447 39.362 70.5632H40.3174C40.3174 70.8703 40.3932 71.1527 40.5449 71.4105C40.6965 71.6645 40.8993 71.8673 41.1533 72.019C41.4111 72.1706 41.6955 72.2465 42.0063 72.2465C42.3134 72.2465 42.5939 72.1706 42.8479 72.019C43.1019 71.8673 43.3048 71.6645 43.4564 71.4105C43.6081 71.1527 43.6839 70.8703 43.6839 70.5632C43.6839 70.2561 43.6118 69.9737 43.4678 69.7159C43.3275 69.4581 43.1209 69.2534 42.8479 69.1017C42.575 68.9463 42.2433 68.8686 41.8528 68.8686H39.8909L40.6643 65.0927H44.4402V66.048H41.4377L41.068 67.9132L41.8926 67.9189C42.4347 67.9303 42.9105 68.0516 43.3199 68.2829C43.7332 68.5103 44.0554 68.8212 44.2867 69.2155C44.5217 69.606 44.6392 70.0552 44.6392 70.5632C44.6392 70.9234 44.571 71.2646 44.4345 71.5868C44.298 71.9053 44.1085 72.1858 43.8658 72.4284C43.6232 72.6711 43.3427 72.8606 43.0242 72.9971C42.7096 73.1336 42.3703 73.2018 42.0063 73.2018ZM45.9669 73.6909C46.274 73.3535 46.5469 72.9649 46.7858 72.5251C47.0246 72.0853 47.2161 71.602 47.3601 71.075C47.5042 70.548 47.5819 69.987 47.5933 69.3918C47.5857 69.0771 47.5535 68.7549 47.4966 68.425C47.4435 68.0914 47.3677 67.7616 47.2691 67.4356C47.1706 67.1095 47.0549 66.8006 46.9223 66.5086C46.7896 66.2129 46.6436 65.9457 46.4844 65.7068C46.3252 65.4642 46.1527 65.2595 45.9669 65.0927H46.9223C47.1308 65.2329 47.3184 65.4244 47.4852 65.667C47.6558 65.9059 47.8075 66.1769 47.9402 66.4802C48.0729 66.7835 48.1847 67.1038 48.2757 67.4413C48.3667 67.7749 48.4349 68.1104 48.4804 68.4478C48.5259 68.7814 48.5486 69.0961 48.5486 69.3918C48.5486 69.9528 48.4937 70.4931 48.3837 71.0125C48.2738 71.528 48.0994 72.0114 47.8606 72.4625C47.6217 72.9137 47.3089 73.3231 46.9223 73.6909H45.9669ZM52.8072 73.054V67.3673H53.7625V68.0782C53.9634 67.8128 54.2156 67.6024 54.5188 67.4469C54.8259 67.2877 55.1595 67.2081 55.5197 67.2081C55.9405 67.2081 56.3253 67.3105 56.6741 67.5152C57.0229 67.7199 57.2977 67.991 57.4986 68.3284C57.6996 67.991 57.9725 67.7199 58.3175 67.5152C58.6663 67.3105 59.0492 67.2081 59.4662 67.2081C59.8946 67.2081 60.2832 67.3124 60.632 67.5209C60.9807 67.7256 61.2575 68.0023 61.4622 68.3511C61.6707 68.6999 61.775 69.0885 61.775 69.5169V73.054H60.8196V69.7443C60.8196 69.4638 60.7514 69.2041 60.6149 68.9653C60.4784 68.7264 60.2946 68.535 60.0633 68.3909C59.832 68.2469 59.5761 68.1748 59.2956 68.1748C59.0151 68.1748 58.7592 68.2431 58.5279 68.3795C58.2967 68.5122 58.1128 68.698 57.9763 68.9368C57.8398 69.1719 57.7716 69.4411 57.7716 69.7443V73.054H56.8162V69.7443C56.8162 69.4411 56.748 69.1719 56.6115 68.9368C56.475 68.698 56.2893 68.5122 56.0542 68.3795C55.823 68.2431 55.5671 68.1748 55.2865 68.1748C55.0098 68.1748 54.7539 68.2469 54.5188 68.3909C54.2876 68.535 54.1037 68.7264 53.9672 68.9653C53.8308 69.2041 53.7625 69.4638 53.7625 69.7443V73.054H52.8072ZM67.4565 67.3673H68.4118V73.054H67.4565L67.4167 72.0929C67.2385 72.4227 66.9921 72.69 66.6774 72.8947C66.3665 73.0994 65.995 73.2018 65.5628 73.2018C65.1458 73.2018 64.7553 73.1241 64.3914 72.9687C64.0274 72.8094 63.7052 72.5914 63.4247 72.3147C63.1479 72.0342 62.9318 71.7119 62.7764 71.348C62.6209 70.984 62.5432 70.5916 62.5432 70.1708C62.5432 69.7652 62.6191 69.3823 62.7707 69.0221C62.9223 68.662 63.1327 68.3473 63.4019 68.0782C63.6749 67.8052 63.9895 67.5929 64.3459 67.4413C64.7023 67.2858 65.0852 67.2081 65.4946 67.2081C65.9419 67.2081 66.3343 67.3143 66.6717 67.5266C67.0091 67.7351 67.2821 68.0061 67.4906 68.3397L67.4565 67.3673ZM65.5458 72.2749C65.9211 72.2749 66.2452 72.1839 66.5182 72.0019C66.7949 71.8162 67.0072 71.566 67.1551 71.2513C67.3067 70.9366 67.3826 70.5898 67.3826 70.2106C67.3826 69.824 67.3067 69.4752 67.1551 69.1643C67.0034 68.8496 66.7892 68.6013 66.5125 68.4194C66.2395 68.2336 65.9173 68.1407 65.5458 68.1407C65.1705 68.1407 64.8293 68.2336 64.5222 68.4194C64.2151 68.6051 63.9706 68.8553 63.7886 69.17C63.6104 69.4809 63.5213 69.8277 63.5213 70.2106C63.5213 70.5935 63.6142 70.9423 63.8 71.257C63.9857 71.5678 64.2322 71.8162 64.5392 72.0019C64.8463 72.1839 65.1818 72.2749 65.5458 72.2749ZM69.6297 67.3673H70.585V73.054H69.6297V67.3673ZM70.1187 66.4404C69.9671 66.4404 69.8401 66.3911 69.7377 66.2926C69.6354 66.194 69.5842 66.0708 69.5842 65.9229C69.5842 65.7751 69.6354 65.6519 69.7377 65.5533C69.8401 65.4547 69.9652 65.4054 70.113 65.4054C70.2609 65.4054 70.386 65.4547 70.4884 65.5533C70.5907 65.6519 70.6419 65.7751 70.6419 65.9229C70.6419 66.0708 70.5907 66.194 70.4884 66.2926C70.3898 66.3911 70.2666 66.4404 70.1187 66.4404ZM73.7111 73.162C73.404 73.1506 73.1045 73.0938 72.8126 72.9914C72.5245 72.8853 72.2705 72.7431 72.0506 72.5649C71.8345 72.3829 71.6772 72.1744 71.5786 71.9394L72.3975 71.5868C72.4544 71.7157 72.5567 71.837 72.7046 71.9507C72.8524 72.0645 73.023 72.1555 73.2164 72.2237C73.4097 72.2919 73.605 72.3261 73.8021 72.3261C74.0106 72.3261 74.2058 72.2938 74.3878 72.2294C74.5698 72.1649 74.7176 72.0702 74.8314 71.9451C74.9489 71.8162 75.0077 71.6626 75.0077 71.4844C75.0077 71.2949 74.9432 71.147 74.8143 71.0409C74.6892 70.9309 74.53 70.8456 74.3366 70.785C74.1471 70.7205 73.9537 70.6599 73.7566 70.603C73.3661 70.5045 73.0173 70.3869 72.7103 70.2504C72.4032 70.1102 72.1606 69.9339 71.9824 69.7216C71.808 69.5055 71.7208 69.2306 71.7208 68.897C71.7208 68.5445 71.8175 68.2393 72.0108 67.9815C72.2079 67.7237 72.4657 67.5247 72.7842 67.3844C73.1026 67.2441 73.4438 67.174 73.8078 67.174C74.2665 67.174 74.6854 67.2726 75.0645 67.4697C75.4436 67.6668 75.7261 67.9341 75.9118 68.2715L75.1441 68.7207C75.0797 68.5843 74.9811 68.4648 74.8484 68.3625C74.7157 68.2563 74.5641 68.1729 74.3935 68.1123C74.2229 68.0516 74.0485 68.0194 73.8703 68.0156C73.6504 68.008 73.4438 68.0365 73.2505 68.1009C73.0609 68.1654 72.9074 68.2639 72.7899 68.3966C72.6761 68.5255 72.6193 68.6866 72.6193 68.88C72.6193 69.0695 72.6799 69.2136 72.8012 69.3122C72.9264 69.4107 73.0875 69.4903 73.2846 69.551C73.4855 69.6079 73.7035 69.6742 73.9386 69.75C74.2836 69.86 74.6058 69.987 74.9053 70.131C75.2048 70.2751 75.4455 70.4552 75.6275 70.6713C75.8133 70.8874 75.9042 71.1546 75.9005 71.4731C75.9005 71.8219 75.7962 72.127 75.5877 72.3886C75.3792 72.6464 75.1081 72.8435 74.7745 72.98C74.4447 73.1165 74.0902 73.1772 73.7111 73.162Z" fill="#FF9900"/>
<path d="M82.2716 73.2018C81.7484 73.2018 81.2707 73.0672 80.8385 72.7981C80.4102 72.5289 80.0671 72.1687 79.8093 71.7176C79.5553 71.2627 79.4283 70.7603 79.4283 70.2106C79.4283 69.7936 79.5022 69.405 79.65 69.0449C79.7979 68.6809 80.0007 68.3625 80.2585 68.0895C80.5201 67.8128 80.8234 67.5967 81.1684 67.4413C81.5134 67.2858 81.8811 67.2081 82.2716 67.2081C82.7 67.2081 83.0923 67.2953 83.4487 67.4697C83.8089 67.6403 84.1159 67.8791 84.3699 68.1862C84.6277 68.4933 84.8192 68.8496 84.9443 69.2553C85.0732 69.6609 85.1206 70.095 85.0865 70.5575H80.4462C80.4917 70.8798 80.5978 71.1679 80.7646 71.4219C80.9314 71.6721 81.1437 71.8711 81.4015 72.019C81.6631 72.1668 81.9531 72.2427 82.2716 72.2465C82.6128 72.2465 82.9217 72.1593 83.1985 71.9849C83.4752 71.8067 83.6989 71.5641 83.8695 71.257L84.8419 71.4844C84.6145 71.9887 84.2714 72.4019 83.8126 72.7241C83.3539 73.0426 82.8402 73.2018 82.2716 73.2018ZM80.4177 69.8069H84.1254C84.0951 69.4884 83.9927 69.1984 83.8183 68.9368C83.6439 68.6715 83.4222 68.4592 83.153 68.2999C82.8838 68.1407 82.59 68.0611 82.2716 68.0611C81.9531 68.0611 81.6612 68.1388 81.3958 68.2942C81.1305 68.4497 80.9106 68.6601 80.7362 68.9255C80.5656 69.187 80.4594 69.4809 80.4177 69.8069ZM86.126 73.054V67.3673H87.0813V68.0782C87.2823 67.8128 87.5344 67.6024 87.8377 67.4469C88.1447 67.2877 88.4783 67.2081 88.8385 67.2081C89.2593 67.2081 89.6441 67.3105 89.9929 67.5152C90.3417 67.7199 90.6165 67.991 90.8174 68.3284C91.0184 67.991 91.2913 67.7199 91.6363 67.5152C91.9851 67.3105 92.368 67.2081 92.785 67.2081C93.2134 67.2081 93.602 67.3124 93.9508 67.5209C94.2996 67.7256 94.5763 68.0023 94.781 68.3511C94.9895 68.6999 95.0938 69.0885 95.0938 69.5169V73.054H94.1384V69.7443C94.1384 69.4638 94.0702 69.2041 93.9337 68.9653C93.7972 68.7264 93.6134 68.535 93.3821 68.3909C93.1509 68.2469 92.895 68.1748 92.6144 68.1748C92.3339 68.1748 92.078 68.2431 91.8467 68.3795C91.6155 68.5122 91.4316 68.698 91.2951 68.9368C91.1586 69.1719 91.0904 69.4411 91.0904 69.7443V73.054H90.135V69.7443C90.135 69.4411 90.0668 69.1719 89.9303 68.9368C89.7939 68.698 89.6081 68.5122 89.373 68.3795C89.1418 68.2431 88.8859 68.1748 88.6053 68.1748C88.3286 68.1748 88.0727 68.2469 87.8377 68.3909C87.6064 68.535 87.4225 68.7264 87.286 68.9653C87.1496 69.2041 87.0813 69.4638 87.0813 69.7443V73.054H86.126ZM98.9003 73.054V72.2066C99.1922 71.9451 99.5202 71.6531 99.8841 71.3309C100.248 71.0049 100.61 70.6656 100.97 70.313C101.334 69.9566 101.668 69.6041 101.971 69.2553C102.274 68.9065 102.519 68.5767 102.705 68.2658C102.89 67.9512 102.983 67.6763 102.983 67.4413C102.983 67.1607 102.915 66.9048 102.779 66.6736C102.642 66.4385 102.458 66.2509 102.227 66.1106C102 65.9703 101.746 65.9002 101.465 65.9002C101.184 65.9002 100.927 65.9703 100.692 66.1106C100.46 66.2509 100.275 66.4385 100.134 66.6736C99.9978 66.9048 99.9296 67.1607 99.9296 67.4413H98.9743C98.9743 66.975 99.088 66.5541 99.3155 66.1788C99.5429 65.7997 99.8443 65.5002 100.22 65.2803C100.595 65.0567 101.01 64.9448 101.465 64.9448C101.92 64.9448 102.333 65.0567 102.705 65.2803C103.08 65.504 103.379 65.8054 103.603 66.1845C103.827 66.5598 103.939 66.9787 103.939 67.4413C103.939 67.7066 103.874 67.9929 103.745 68.2999C103.616 68.6032 103.44 68.916 103.216 69.2382C102.993 69.5605 102.739 69.8865 102.454 70.2163C102.17 70.5424 101.871 70.8646 101.556 71.1831C101.241 71.5015 100.929 71.8067 100.618 72.0986H104.041V73.054H98.9003ZM107.919 73.2018C107.446 73.2018 107.021 73.0957 106.646 72.8834C106.27 72.6673 105.948 72.3697 105.679 71.9906C105.41 71.6114 105.205 71.1736 105.065 70.6769C104.924 70.1765 104.854 69.642 104.854 69.0733C104.854 68.5047 104.924 67.9701 105.065 67.4697C105.205 66.9693 105.41 66.5314 105.679 66.1561C105.948 65.777 106.27 65.4813 106.646 65.269C107.021 65.0529 107.446 64.9448 107.919 64.9448C108.39 64.9448 108.812 65.0529 109.188 65.269C109.567 65.4813 109.887 65.777 110.149 66.1561C110.414 66.5314 110.617 66.9693 110.757 67.4697C110.901 67.9701 110.973 68.5047 110.973 69.0733C110.973 69.642 110.901 70.1765 110.757 70.6769C110.617 71.1736 110.414 71.6114 110.149 71.9906C109.887 72.3697 109.567 72.6673 109.188 72.8834C108.812 73.0957 108.39 73.2018 107.919 73.2018ZM107.919 72.2465C108.393 72.2465 108.789 72.1005 109.108 71.8086C109.43 71.5129 109.671 71.1243 109.83 70.6428C109.989 70.1614 110.069 69.6382 110.069 69.0733C110.069 68.4781 109.986 67.9417 109.819 67.464C109.656 66.9825 109.413 66.6015 109.091 66.321C108.772 66.0404 108.382 65.9002 107.919 65.9002C107.555 65.9002 107.237 65.9855 106.964 66.1561C106.695 66.3267 106.471 66.5598 106.293 66.8555C106.115 67.1512 105.98 67.4905 105.889 67.8734C105.802 68.2525 105.759 68.6525 105.759 69.0733C105.759 69.6382 105.84 70.1633 106.003 70.6485C106.166 71.13 106.407 71.5167 106.725 71.8086C107.047 72.1005 107.446 72.2465 107.919 72.2465ZM111.847 73.054V72.2066C112.139 71.9451 112.466 71.6531 112.83 71.3309C113.194 71.0049 113.556 70.6656 113.917 70.313C114.28 69.9566 114.614 69.6041 114.917 69.2553C115.221 68.9065 115.465 68.5767 115.651 68.2658C115.837 67.9512 115.93 67.6763 115.93 67.4413C115.93 67.1607 115.861 66.9048 115.725 66.6736C115.588 66.4385 115.405 66.2509 115.173 66.1106C114.946 65.9703 114.692 65.9002 114.411 65.9002C114.131 65.9002 113.873 65.9703 113.638 66.1106C113.407 66.2509 113.221 66.4385 113.081 66.6736C112.944 66.9048 112.876 67.1607 112.876 67.4413H111.921C111.921 66.975 112.034 66.5541 112.262 66.1788C112.489 65.7997 112.791 65.5002 113.166 65.2803C113.541 65.0567 113.956 64.9448 114.411 64.9448C114.866 64.9448 115.279 65.0567 115.651 65.2803C116.026 65.504 116.326 65.8054 116.549 66.1845C116.773 66.5598 116.885 66.9787 116.885 67.4413C116.885 67.7066 116.821 67.9929 116.692 68.2999C116.563 68.6032 116.386 68.916 116.163 69.2382C115.939 69.5605 115.685 69.8865 115.401 70.2163C115.116 70.5424 114.817 70.8646 114.502 71.1831C114.188 71.5015 113.875 71.8067 113.564 72.0986H116.987V73.054H111.847ZM121.282 73.054V70.9044H117.859V69.9377L121.043 65.0927H122.238V69.9491H123.028V70.9044H122.238V73.054H121.282ZM118.979 69.9377L121.282 69.9491L121.265 66.4347L118.979 69.9377Z" fill="#A0AEC0"/>
<path d="M29.1196 52.7466V34.5494H35.1377C36.3942 34.5494 37.5727 34.7877 38.6732 35.2643C39.7737 35.7322 40.7399 36.3864 41.5717 37.227C42.4036 38.0588 43.0535 39.025 43.5214 40.1255C43.998 41.2174 44.2363 42.3915 44.2363 43.648C44.2363 44.9045 43.998 46.0829 43.5214 47.1834C43.0535 48.2753 42.4036 49.2415 41.5717 50.082C40.7399 50.9139 39.7737 51.5681 38.6732 52.0447C37.5727 52.5126 36.3942 52.7466 35.1377 52.7466H29.1196ZM31.8232 50.043H35.1377C36.0216 50.043 36.8448 49.8784 37.6073 49.5491C38.3785 49.2198 39.0588 48.7605 39.648 48.1713C40.2459 47.582 40.7095 46.9018 41.0388 46.1306C41.3681 45.3594 41.5327 44.5318 41.5327 43.648C41.5327 42.7641 41.3681 41.9366 41.0388 41.1654C40.7095 40.3941 40.2459 39.7139 39.648 39.1247C39.0588 38.5354 38.3785 38.0762 37.6073 37.7469C36.8448 37.4176 36.0216 37.253 35.1377 37.253H31.8232V50.043ZM56.3681 39.7486H59.0717V52.7466H56.3551L56.2511 50.8619C55.8699 51.5291 55.3543 52.0664 54.7044 52.4736C54.0545 52.8809 53.2876 53.0845 52.4037 53.0845C51.4505 53.0845 50.5537 52.9069 49.7131 52.5516C48.8726 52.1877 48.1317 51.6851 47.4905 51.0438C46.8579 50.4026 46.364 49.6661 46.0087 48.8342C45.6534 47.9936 45.4758 47.0925 45.4758 46.1306C45.4758 45.2034 45.6491 44.3325 45.9957 43.518C46.3423 42.6948 46.8233 41.9756 47.4385 41.3603C48.0537 40.7451 48.7643 40.2642 49.5702 39.9176C50.3847 39.5623 51.2556 39.3846 52.1828 39.3846C53.1273 39.3846 53.9592 39.6013 54.6784 40.0345C55.4063 40.4591 56.0085 41.0051 56.4851 41.6723L56.3681 39.7486ZM52.3387 50.4719C53.1013 50.4719 53.7685 50.2856 54.3404 49.913C54.9123 49.5317 55.3543 49.0205 55.6662 48.3793C55.9868 47.738 56.1472 47.0275 56.1472 46.2476C56.1472 45.459 55.9868 44.7441 55.6662 44.1029C55.3456 43.4617 54.8993 42.9548 54.3274 42.5821C53.7642 42.2009 53.1013 42.0102 52.3387 42.0102C51.5849 42.0102 50.896 42.2009 50.2721 42.5821C49.6482 42.9634 49.1542 43.4747 48.7903 44.1159C48.4263 44.7571 48.2444 45.4677 48.2444 46.2476C48.2444 47.0361 48.4307 47.751 48.8033 48.3923C49.1846 49.0248 49.6828 49.5317 50.2981 49.913C50.922 50.2856 51.6022 50.4719 52.3387 50.4719ZM65.5648 52.9935C64.8803 52.9502 64.213 52.8116 63.5631 52.5776C62.9132 52.3436 62.3413 52.0274 61.8474 51.6288C61.3621 51.2215 60.9982 50.7449 60.7556 50.199L63.0562 49.2111C63.1689 49.4451 63.3638 49.6747 63.6411 49.9C63.9271 50.1253 64.2607 50.3116 64.642 50.4589C65.0232 50.5976 65.4218 50.6669 65.8378 50.6669C66.2451 50.6669 66.622 50.6106 66.9686 50.4979C67.3239 50.3766 67.6142 50.1946 67.8395 49.952C68.0648 49.7094 68.1774 49.4191 68.1774 49.0811C68.1774 48.6999 68.0474 48.4052 67.7875 48.1973C67.5362 47.9806 67.2199 47.816 66.8386 47.7034C66.4574 47.5907 66.0761 47.4824 65.6948 47.3784C64.8456 47.1878 64.0657 46.9278 63.3552 46.5985C62.6533 46.2606 62.0944 45.8316 61.6784 45.3117C61.2625 44.7831 61.0545 44.1376 61.0545 43.375C61.0545 42.5431 61.2798 41.8239 61.7304 41.2174C62.181 40.6021 62.7703 40.1299 63.4981 39.8006C64.2347 39.4713 65.0189 39.3066 65.8508 39.3066C66.8906 39.3066 67.8438 39.5276 68.7103 39.9695C69.5769 40.4115 70.2398 41.018 70.699 41.7893L68.5544 43.0631C68.4244 42.8031 68.2294 42.5691 67.9695 42.3612C67.7095 42.1532 67.4149 41.9886 67.0856 41.8673C66.7563 41.7373 66.414 41.6636 66.0587 41.6463C65.6168 41.629 65.2052 41.6809 64.8239 41.8023C64.4513 41.9149 64.1524 42.0969 63.9271 42.3482C63.7018 42.5995 63.5891 42.9201 63.5891 43.31C63.5891 43.6913 63.7234 43.9773 63.9921 44.1679C64.2607 44.3499 64.5986 44.4972 65.0059 44.6098C65.4218 44.7225 65.8464 44.8481 66.2797 44.9868C67.0509 45.2294 67.7745 45.5284 68.4504 45.8836C69.1263 46.2302 69.6722 46.6592 70.0881 47.1704C70.5041 47.6817 70.7034 48.3056 70.686 49.0422C70.686 49.8567 70.4391 50.5716 69.9451 51.1868C69.4599 51.8021 68.8273 52.27 68.0474 52.5906C67.2676 52.9112 66.44 53.0455 65.5648 52.9935ZM84.6099 44.5968V52.7466H81.9064V45.2597C81.9064 44.6792 81.7634 44.1506 81.4774 43.674C81.2001 43.1974 80.8232 42.8204 80.3466 42.5431C79.8787 42.2572 79.3501 42.1142 78.7608 42.1142C78.1889 42.1142 77.6647 42.2572 77.1881 42.5431C76.7115 42.8204 76.3302 43.1974 76.0443 43.674C75.7583 44.1506 75.6153 44.6792 75.6153 45.2597V52.7466H72.9117V33.2496H75.6153V41.1264C76.0659 40.5891 76.6205 40.1645 77.2791 39.8526C77.9376 39.5406 78.6482 39.3846 79.4107 39.3846C80.3726 39.3846 81.2478 39.6186 82.0363 40.0865C82.8249 40.5545 83.4488 41.1827 83.9081 41.9712C84.376 42.7598 84.6099 43.635 84.6099 44.5968ZM94.065 39.3846C95.3301 39.3846 96.4783 39.6923 97.5094 40.3075C98.5493 40.9227 99.3768 41.7503 99.9921 42.7901C100.607 43.8213 100.915 44.9694 100.915 46.2346C100.915 47.1791 100.737 48.0673 100.382 48.8992C100.027 49.7224 99.5328 50.4503 98.9002 51.0828C98.2763 51.7067 97.5484 52.1963 96.7166 52.5516C95.8934 52.9069 95.0095 53.0845 94.065 53.0845C93.1551 53.0845 92.3579 52.8766 91.6733 52.4606C90.9974 52.036 90.4429 51.4944 90.0096 50.8359V52.7466H87.306V33.2496H90.0096V41.6333C90.4429 40.9661 90.9974 40.4245 91.6733 40.0085C92.3579 39.5926 93.1551 39.3846 94.065 39.3846ZM94.039 50.4589C94.7929 50.4589 95.4818 50.2683 96.1057 49.887C96.7296 49.5057 97.2235 48.9945 97.5874 48.3533C97.96 47.712 98.1464 47.0058 98.1464 46.2346C98.1464 45.446 97.96 44.7311 97.5874 44.0899C97.2148 43.4487 96.7166 42.9418 96.0927 42.5691C95.4688 42.1879 94.7842 41.9972 94.039 41.9972C93.2851 41.9972 92.6222 42.1879 92.0503 42.5691C91.4784 42.9504 91.0321 43.4617 90.7115 44.1029C90.3909 44.7441 90.2306 45.4547 90.2306 46.2346C90.2306 47.0145 90.3909 47.725 90.7115 48.3663C91.0321 49.0075 91.4784 49.5187 92.0503 49.9C92.6222 50.2726 93.2851 50.4589 94.039 50.4589ZM108.714 53.0845C107.518 53.0845 106.426 52.7769 105.439 52.1617C104.459 51.5464 103.675 50.7232 103.086 49.6921C102.505 48.6522 102.215 47.5041 102.215 46.2476C102.215 45.2944 102.384 44.4062 102.722 43.583C103.06 42.7511 103.524 42.0232 104.113 41.3993C104.711 40.7668 105.404 40.2728 106.193 39.9176C106.981 39.5623 107.822 39.3846 108.714 39.3846C109.91 39.3846 110.997 39.6923 111.977 40.3075C112.964 40.9227 113.749 41.7503 114.329 42.7901C114.919 43.83 115.213 44.9824 115.213 46.2476C115.213 47.1921 115.044 48.076 114.706 48.8992C114.368 49.7224 113.9 50.4503 113.302 51.0828C112.713 51.7067 112.024 52.1963 111.236 52.5516C110.456 52.9069 109.615 53.0845 108.714 53.0845ZM108.714 50.3809C109.433 50.3809 110.079 50.1903 110.651 49.809C111.223 49.4278 111.673 48.9252 112.003 48.3013C112.341 47.6687 112.51 46.9841 112.51 46.2476C112.51 45.4937 112.336 44.8005 111.99 44.1679C111.652 43.5353 111.197 43.0327 110.625 42.6601C110.053 42.2789 109.416 42.0882 108.714 42.0882C108.004 42.0882 107.358 42.2789 106.777 42.6601C106.206 43.0414 105.751 43.5483 105.413 44.1809C105.083 44.8135 104.919 45.5024 104.919 46.2476C104.919 47.0188 105.092 47.7164 105.439 48.3403C105.785 48.9642 106.245 49.4624 106.816 49.835C107.397 50.199 108.03 50.3809 108.714 50.3809ZM127.4 39.7486H130.104V52.7466H127.387L127.283 50.8619C126.902 51.5291 126.386 52.0664 125.736 52.4736C125.087 52.8809 124.32 53.0845 123.436 53.0845C122.483 53.0845 121.586 52.9069 120.745 52.5516C119.905 52.1877 119.164 51.6851 118.523 51.0438C117.89 50.4026 117.396 49.6661 117.041 48.8342C116.685 47.9936 116.508 47.0925 116.508 46.1306C116.508 45.2034 116.681 44.3325 117.028 43.518C117.374 42.6948 117.855 41.9756 118.471 41.3603C119.086 40.7451 119.796 40.2642 120.602 39.9176C121.417 39.5623 122.288 39.3846 123.215 39.3846C124.159 39.3846 124.991 39.6013 125.71 40.0345C126.438 40.4591 127.041 41.0051 127.517 41.6723L127.4 39.7486ZM123.371 50.4719C124.133 50.4719 124.801 50.2856 125.372 49.913C125.944 49.5317 126.386 49.0205 126.698 48.3793C127.019 47.738 127.179 47.0275 127.179 46.2476C127.179 45.459 127.019 44.7441 126.698 44.1029C126.378 43.4617 125.931 42.9548 125.359 42.5821C124.796 42.2009 124.133 42.0102 123.371 42.0102C122.617 42.0102 121.928 42.2009 121.304 42.5821C120.68 42.9634 120.186 43.4747 119.822 44.1159C119.458 44.7571 119.276 45.4677 119.276 46.2476C119.276 47.0361 119.463 47.751 119.835 48.3923C120.217 49.0248 120.715 49.5317 121.33 49.913C121.954 50.2856 122.634 50.4719 123.371 50.4719ZM132.697 52.7466V39.7486H135.401V41.1264C135.852 40.5891 136.406 40.1645 137.065 39.8526C137.723 39.5406 138.434 39.3846 139.196 39.3846C139.682 39.3846 140.163 39.4496 140.639 39.5796L139.56 42.3092C139.222 42.1792 138.885 42.1142 138.547 42.1142C137.975 42.1142 137.45 42.2572 136.974 42.5431C136.497 42.8204 136.116 43.1974 135.83 43.674C135.544 44.1506 135.401 44.6792 135.401 45.2597V52.7466H132.697ZM151.658 33.2496H154.361V52.7466H151.658V50.8359C151.233 51.5118 150.678 52.0577 149.994 52.4736C149.309 52.8809 148.508 53.0845 147.589 53.0845C146.645 53.0845 145.761 52.9069 144.938 52.5516C144.114 52.1963 143.386 51.7067 142.754 51.0828C142.13 50.4503 141.64 49.7224 141.285 48.8992C140.93 48.076 140.752 47.1921 140.752 46.2476C140.752 45.3031 140.93 44.4192 141.285 43.596C141.64 42.7641 142.13 42.0362 142.754 41.4123C143.386 40.7798 144.114 40.2858 144.938 39.9305C145.761 39.5753 146.645 39.3976 147.589 39.3976C148.508 39.3976 149.309 39.6056 149.994 40.0215C150.678 40.4288 151.233 40.9661 151.658 41.6333V33.2496ZM147.615 50.4719C148.378 50.4719 149.045 50.2856 149.617 49.913C150.189 49.5317 150.631 49.0205 150.943 48.3793C151.263 47.738 151.424 47.0275 151.424 46.2476C151.424 45.459 151.263 44.7441 150.943 44.1029C150.622 43.4617 150.176 42.9548 149.604 42.5821C149.041 42.2009 148.378 42.0102 147.615 42.0102C146.861 42.0102 146.172 42.2009 145.548 42.5821C144.933 42.9634 144.439 43.4747 144.067 44.1159C143.703 44.7571 143.521 45.4677 143.521 46.2476C143.521 47.0361 143.707 47.751 144.08 48.3923C144.461 49.0248 144.959 49.5317 145.574 49.913C146.198 50.2856 146.879 50.4719 147.615 50.4719ZM173.845 33.2496H176.549V52.7466H173.845V50.8359C173.421 51.5118 172.866 52.0577 172.182 52.4736C171.497 52.8809 170.696 53.0845 169.777 53.0845C168.833 53.0845 167.949 52.9069 167.126 52.5516C166.302 52.1963 165.574 51.7067 164.942 51.0828C164.318 50.4503 163.828 49.7224 163.473 48.8992C163.118 48.076 162.94 47.1921 162.94 46.2476C162.94 45.3031 163.118 44.4192 163.473 43.596C163.828 42.7641 164.318 42.0362 164.942 41.4123C165.574 40.7798 166.302 40.2858 167.126 39.9305C167.949 39.5753 168.833 39.3976 169.777 39.3976C170.696 39.3976 171.497 39.6056 172.182 40.0215C172.866 40.4288 173.421 40.9661 173.845 41.6333V33.2496ZM169.803 50.4719C170.566 50.4719 171.233 50.2856 171.805 49.913C172.377 49.5317 172.819 49.0205 173.131 48.3793C173.451 47.738 173.612 47.0275 173.612 46.2476C173.612 45.459 173.451 44.7441 173.131 44.1029C172.81 43.4617 172.364 42.9548 171.792 42.5821C171.229 42.2009 170.566 42.0102 169.803 42.0102C169.049 42.0102 168.36 42.2009 167.736 42.5821C167.121 42.9634 166.627 43.4747 166.255 44.1159C165.891 44.7571 165.709 45.4677 165.709 46.2476C165.709 47.0361 165.895 47.751 166.268 48.3923C166.649 49.0248 167.147 49.5317 167.762 49.913C168.386 50.2856 169.067 50.4719 169.803 50.4719ZM185.204 53.0845C184.009 53.0845 182.917 52.7769 181.929 52.1617C180.95 51.5464 180.165 50.7232 179.576 49.6921C178.996 48.6522 178.705 47.5041 178.705 46.2476C178.705 45.2944 178.874 44.4062 179.212 43.583C179.55 42.7511 180.014 42.0232 180.603 41.3993C181.201 40.7668 181.894 40.2728 182.683 39.9176C183.471 39.5623 184.312 39.3846 185.204 39.3846C186.201 39.3846 187.115 39.5926 187.947 40.0085C188.779 40.4158 189.489 40.9834 190.079 41.7113C190.668 42.4305 191.101 43.2624 191.378 44.2069C191.656 45.1427 191.738 46.1393 191.625 47.1964H181.604C181.717 47.7943 181.933 48.3359 182.254 48.8212C182.583 49.2978 182.999 49.6747 183.502 49.952C184.013 50.2293 184.58 50.3723 185.204 50.3809C185.863 50.3809 186.461 50.2163 186.998 49.887C187.544 49.5577 187.99 49.1028 188.337 48.5222L191.079 49.1591C190.56 50.3116 189.775 51.2561 188.727 51.9927C187.678 52.7206 186.504 53.0845 185.204 53.0845ZM181.513 45.1298H188.896C188.809 44.5058 188.588 43.9426 188.233 43.44C187.886 42.9288 187.449 42.5258 186.92 42.2312C186.4 41.9279 185.828 41.7763 185.204 41.7763C184.589 41.7763 184.017 41.9236 183.489 42.2182C182.969 42.5128 182.535 42.9158 182.189 43.427C181.851 43.9296 181.626 44.4972 181.513 45.1298ZM207.686 52.7466H204.216L199.472 39.7226H202.357L205.945 49.6271L209.545 39.7226H212.418L207.686 52.7466ZM219.629 53.0845C218.433 53.0845 217.341 52.7769 216.353 52.1617C215.374 51.5464 214.59 50.7232 214.001 49.6921C213.42 48.6522 213.13 47.5041 213.13 46.2476C213.13 45.2944 213.299 44.4062 213.637 43.583C213.975 42.7511 214.438 42.0232 215.027 41.3993C215.625 40.7668 216.319 40.2728 217.107 39.9176C217.896 39.5623 218.736 39.3846 219.629 39.3846C220.625 39.3846 221.539 39.5926 222.371 40.0085C223.203 40.4158 223.914 40.9834 224.503 41.7113C225.092 42.4305 225.525 43.2624 225.803 44.2069C226.08 45.1427 226.162 46.1393 226.05 47.1964H216.028C216.141 47.7943 216.358 48.3359 216.678 48.8212C217.007 49.2978 217.423 49.6747 217.926 49.952C218.437 50.2293 219.005 50.3723 219.629 50.3809C220.287 50.3809 220.885 50.2163 221.422 49.887C221.968 49.5577 222.415 49.1028 222.761 48.5222L225.504 49.1591C224.984 50.3116 224.2 51.2561 223.151 51.9927C222.103 52.7206 220.929 53.0845 219.629 53.0845ZM215.937 45.1298H223.32C223.234 44.5058 223.013 43.9426 222.657 43.44C222.311 42.9288 221.873 42.5258 221.344 42.2312C220.825 41.9279 220.253 41.7763 219.629 41.7763C219.013 41.7763 218.442 41.9236 217.913 42.2182C217.393 42.5128 216.96 42.9158 216.613 43.427C216.275 43.9296 216.05 44.4972 215.937 45.1298ZM239.901 44.5968V52.7466H237.197V45.2597C237.197 44.6792 237.054 44.1506 236.768 43.674C236.491 43.1974 236.114 42.8204 235.637 42.5431C235.169 42.2572 234.641 42.1142 234.051 42.1142C233.48 42.1142 232.955 42.2572 232.479 42.5431C232.002 42.8204 231.621 43.1974 231.335 43.674C231.049 44.1506 230.906 44.6792 230.906 45.2597V52.7466H228.202V39.7486H230.906V41.1264C231.357 40.5891 231.911 40.1645 232.57 39.8526C233.228 39.5406 233.939 39.3846 234.701 39.3846C235.663 39.3846 236.538 39.6186 237.327 40.0865C238.115 40.5545 238.739 41.1827 239.199 41.9712C239.667 42.7598 239.901 43.635 239.901 44.5968ZM252.367 33.2496H255.07V52.7466H252.367V50.8359C251.942 51.5118 251.387 52.0577 250.703 52.4736C250.018 52.8809 249.217 53.0845 248.298 53.0845C247.354 53.0845 246.47 52.9069 245.647 52.5516C244.823 52.1963 244.096 51.7067 243.463 51.0828C242.839 50.4503 242.35 49.7224 241.994 48.8992C241.639 48.076 241.461 47.1921 241.461 46.2476C241.461 45.3031 241.639 44.4192 241.994 43.596C242.35 42.7641 242.839 42.0362 243.463 41.4123C244.096 40.7798 244.823 40.2858 245.647 39.9305C246.47 39.5753 247.354 39.3976 248.298 39.3976C249.217 39.3976 250.018 39.6056 250.703 40.0215C251.387 40.4288 251.942 40.9661 252.367 41.6333V33.2496ZM248.324 50.4719C249.087 50.4719 249.754 50.2856 250.326 49.913C250.898 49.5317 251.34 49.0205 251.652 48.3793C251.972 47.738 252.133 47.0275 252.133 46.2476C252.133 45.459 251.972 44.7441 251.652 44.1029C251.331 43.4617 250.885 42.9548 250.313 42.5821C249.75 42.2009 249.087 42.0102 248.324 42.0102C247.57 42.0102 246.881 42.2009 246.258 42.5821C245.642 42.9634 245.148 43.4747 244.776 44.1159C244.412 44.7571 244.23 45.4677 244.23 46.2476C244.23 47.0361 244.416 47.751 244.789 48.3923C245.17 49.0248 245.668 49.5317 246.284 49.913C246.907 50.2856 247.588 50.4719 248.324 50.4719ZM268.119 39.7486H270.822V52.7466H268.106L268.002 50.8619C267.621 51.5291 267.105 52.0664 266.455 52.4736C265.805 52.8809 265.038 53.0845 264.154 53.0845C263.201 53.0845 262.304 52.9069 261.464 52.5516C260.623 52.1877 259.882 51.6851 259.241 51.0438C258.609 50.4026 258.115 49.6661 257.759 48.8342C257.404 47.9936 257.226 47.0925 257.226 46.1306C257.226 45.2034 257.4 44.3325 257.746 43.518C258.093 42.6948 258.574 41.9756 259.189 41.3603C259.804 40.7451 260.515 40.2642 261.321 39.9176C262.135 39.5623 263.006 39.3846 263.933 39.3846C264.878 39.3846 265.71 39.6013 266.429 40.0345C267.157 40.4591 267.759 41.0051 268.236 41.6723L268.119 39.7486ZM264.089 50.4719C264.852 50.4719 265.519 50.2856 266.091 49.913C266.663 49.5317 267.105 49.0205 267.417 48.3793C267.738 47.738 267.898 47.0275 267.898 46.2476C267.898 45.459 267.738 44.7441 267.417 44.1029C267.096 43.4617 266.65 42.9548 266.078 42.5821C265.515 42.2009 264.852 42.0102 264.089 42.0102C263.336 42.0102 262.647 42.2009 262.023 42.5821C261.399 42.9634 260.905 43.4747 260.541 44.1159C260.177 44.7571 259.995 45.4677 259.995 46.2476C259.995 47.0361 260.181 47.751 260.554 48.3923C260.935 49.0248 261.433 49.5317 262.049 49.913C262.673 50.2856 263.353 50.4719 264.089 50.4719ZM277.316 52.9935C276.631 52.9502 275.964 52.8116 275.314 52.5776C274.664 52.3436 274.092 52.0274 273.598 51.6288C273.113 51.2215 272.749 50.7449 272.506 50.199L274.807 49.2111C274.92 49.4451 275.115 49.6747 275.392 49.9C275.678 50.1253 276.011 50.3116 276.393 50.4589C276.774 50.5976 277.173 50.6669 277.588 50.6669C277.996 50.6669 278.373 50.6106 278.719 50.4979C279.075 50.3766 279.365 50.1946 279.59 49.952C279.815 49.7094 279.928 49.4191 279.928 49.0811C279.928 48.6999 279.798 48.4052 279.538 48.1973C279.287 47.9806 278.971 47.816 278.589 47.7034C278.208 47.5907 277.827 47.4824 277.445 47.3784C276.596 47.1878 275.816 46.9278 275.106 46.5985C274.404 46.2606 273.845 45.8316 273.429 45.3117C273.013 44.7831 272.805 44.1376 272.805 43.375C272.805 42.5431 273.03 41.8239 273.481 41.2174C273.932 40.6021 274.521 40.1299 275.249 39.8006C275.985 39.4713 276.77 39.3066 277.601 39.3066C278.641 39.3066 279.594 39.5276 280.461 39.9695C281.328 40.4115 281.99 41.018 282.45 41.7893L280.305 43.0631C280.175 42.8031 279.98 42.5691 279.72 42.3612C279.46 42.1532 279.166 41.9886 278.836 41.8673C278.507 41.7373 278.165 41.6636 277.809 41.6463C277.367 41.629 276.956 41.6809 276.575 41.8023C276.202 41.9149 275.903 42.0969 275.678 42.3482C275.452 42.5995 275.34 42.9201 275.34 43.31C275.34 43.6913 275.474 43.9773 275.743 44.1679C276.011 44.3499 276.349 44.4972 276.757 44.6098C277.173 44.7225 277.597 44.8481 278.03 44.9868C278.802 45.2294 279.525 45.5284 280.201 45.8836C280.877 46.2302 281.423 46.6592 281.839 47.1704C282.255 47.6817 282.454 48.3056 282.437 49.0422C282.437 49.8567 282.19 50.5716 281.696 51.1868C281.211 51.8021 280.578 52.27 279.798 52.5906C279.018 52.9112 278.191 53.0455 277.316 52.9935Z" fill="#2D3748"/>
<path d="M488.371 334.507H489.278L491.552 340.763H490.757L490.292 339.485H487.357L486.897 340.763H486.097L488.371 334.507ZM487.634 338.734H490.015L488.822 335.468L487.634 338.734ZM492.367 339.065V336.295H493.118V338.899C493.118 339.126 493.173 339.331 493.283 339.516C493.394 339.701 493.541 339.848 493.726 339.958C493.913 340.066 494.119 340.119 494.342 340.119C494.569 340.119 494.773 340.066 494.954 339.958C495.139 339.848 495.287 339.701 495.397 339.516C495.507 339.331 495.562 339.126 495.562 338.899V336.295H496.313L496.317 340.763H495.567L495.562 340.195C495.404 340.404 495.205 340.57 494.963 340.696C494.722 340.818 494.461 340.879 494.181 340.879C493.848 340.879 493.543 340.798 493.265 340.637C492.991 340.474 492.773 340.255 492.609 339.981C492.448 339.707 492.367 339.401 492.367 339.065ZM501.067 336.295H501.818V340.906C501.818 341.2 501.754 341.474 501.626 341.728C501.5 341.984 501.331 342.206 501.116 342.393C500.902 342.584 500.657 342.732 500.383 342.836C500.109 342.943 499.823 342.997 499.526 342.997C499.216 342.997 498.916 342.927 498.627 342.787C498.339 342.65 498.085 342.465 497.868 342.233C497.653 342.003 497.499 341.746 497.403 341.46L498.091 341.147C498.148 341.352 498.249 341.537 498.395 341.701C498.544 341.868 498.717 341.999 498.913 342.094C499.113 342.192 499.317 342.242 499.526 342.242C499.722 342.242 499.911 342.207 500.093 342.139C500.278 342.07 500.443 341.975 500.589 341.853C500.738 341.734 500.854 341.592 500.937 341.428C501.024 341.267 501.067 341.093 501.067 340.906V340.016C500.915 340.273 500.714 340.481 500.464 340.642C500.217 340.8 499.928 340.879 499.597 340.879C499.281 340.879 498.985 340.818 498.708 340.696C498.431 340.573 498.188 340.405 497.98 340.191C497.771 339.973 497.607 339.723 497.488 339.44C497.369 339.157 497.309 338.853 497.309 338.529C497.309 338.204 497.369 337.9 497.488 337.617C497.607 337.331 497.771 337.081 497.98 336.866C498.188 336.649 498.431 336.479 498.708 336.357C498.985 336.235 499.281 336.174 499.597 336.174C499.928 336.174 500.217 336.253 500.464 336.411C500.714 336.569 500.915 336.777 501.067 337.036V336.295ZM499.601 340.15C499.89 340.15 500.141 340.076 500.352 339.927C500.567 339.778 500.732 339.58 500.848 339.333C500.964 339.086 501.022 338.817 501.022 338.529C501.022 338.231 500.963 337.96 500.844 337.715C500.727 337.468 500.562 337.272 500.348 337.126C500.136 336.977 499.887 336.902 499.601 336.902C499.321 336.902 499.065 336.975 498.833 337.121C498.601 337.267 498.416 337.464 498.279 337.711C498.145 337.955 498.078 338.228 498.078 338.529C498.078 338.829 498.146 339.103 498.283 339.351C498.423 339.595 498.608 339.79 498.837 339.936C499.07 340.079 499.324 340.15 499.601 340.15Z" fill="#CBD5E0"/>
<path d="M428.584 340.879C428.376 340.879 428.172 340.843 427.972 340.772C427.773 340.703 427.591 340.599 427.427 340.459L427.905 339.878C427.992 339.952 428.091 340.013 428.205 340.061C428.321 340.106 428.447 340.128 428.584 340.128C428.781 340.128 428.96 340.076 429.121 339.972C429.281 339.867 429.409 339.73 429.505 339.561C429.603 339.391 429.652 339.209 429.652 339.016V334.507H430.403V339.016C430.403 339.349 430.321 339.657 430.157 339.94C429.993 340.22 429.774 340.447 429.5 340.62C429.226 340.792 428.921 340.879 428.584 340.879ZM431.703 339.065V336.295H432.454V338.899C432.454 339.126 432.509 339.331 432.619 339.516C432.73 339.701 432.877 339.848 433.062 339.958C433.249 340.066 433.455 340.119 433.678 340.119C433.905 340.119 434.109 340.066 434.29 339.958C434.475 339.848 434.623 339.701 434.733 339.516C434.843 339.331 434.898 339.126 434.898 338.899V336.295H435.649L435.653 340.763H434.903L434.898 340.195C434.74 340.404 434.541 340.57 434.299 340.696C434.058 340.818 433.797 340.879 433.517 340.879C433.184 340.879 432.879 340.798 432.602 340.637C432.327 340.474 432.109 340.255 431.945 339.981C431.784 339.707 431.703 339.401 431.703 339.065ZM437.009 340.763V334.06H437.76V340.763H437.009Z" fill="#CBD5E0"/>
<path d="M367.656 340.879C367.448 340.879 367.244 340.843 367.044 340.772C366.845 340.703 366.663 340.599 366.499 340.459L366.977 339.878C367.063 339.952 367.163 340.013 367.276 340.061C367.393 340.106 367.519 340.128 367.656 340.128C367.853 340.128 368.032 340.076 368.192 339.972C368.353 339.867 368.481 339.73 368.577 339.561C368.675 339.391 368.724 339.209 368.724 339.016V334.507H369.475V339.016C369.475 339.349 369.393 339.657 369.229 339.94C369.065 340.22 368.846 340.447 368.572 340.62C368.298 340.792 367.993 340.879 367.656 340.879ZM370.775 339.065V336.295H371.526V338.899C371.526 339.126 371.581 339.331 371.691 339.516C371.801 339.701 371.949 339.848 372.134 339.958C372.321 340.066 372.527 340.119 372.75 340.119C372.977 340.119 373.181 340.066 373.362 339.958C373.547 339.848 373.694 339.701 373.805 339.516C373.915 339.331 373.97 339.126 373.97 338.899V336.295H374.721L374.725 340.763H373.974L373.97 340.195C373.812 340.404 373.612 340.57 373.371 340.696C373.13 340.818 372.869 340.879 372.589 340.879C372.256 340.879 371.95 340.798 371.673 340.637C371.399 340.474 371.18 340.255 371.017 339.981C370.856 339.707 370.775 339.401 370.775 339.065ZM379.979 337.983V340.763H379.228V338.149C379.228 337.922 379.173 337.717 379.063 337.532C378.953 337.347 378.805 337.202 378.62 337.094C378.436 336.984 378.23 336.929 378.004 336.929C377.78 336.929 377.575 336.984 377.387 337.094C377.203 337.202 377.055 337.347 376.945 337.532C376.835 337.717 376.78 337.922 376.78 338.149V340.763H376.029V336.295H376.78V336.853C376.937 336.645 377.137 336.479 377.378 336.357C377.62 336.232 377.882 336.169 378.165 336.169C378.498 336.169 378.802 336.251 379.076 336.415C379.353 336.576 379.572 336.793 379.733 337.067C379.897 337.342 379.979 337.647 379.979 337.983Z" fill="#CBD5E0"/>
<path d="M305.116 340.763L306.327 334.507H306.903L308.592 338.949L310.276 334.507H310.853L312.068 340.763H311.304L310.424 336.223L308.838 340.423H308.342L306.756 336.223L305.88 340.763H305.116ZM316.75 336.295H317.501V340.763H316.75L316.719 340.007C316.579 340.267 316.385 340.477 316.138 340.637C315.894 340.798 315.602 340.879 315.262 340.879C314.935 340.879 314.628 340.818 314.342 340.696C314.056 340.57 313.803 340.399 313.582 340.182C313.365 339.961 313.195 339.708 313.073 339.422C312.951 339.136 312.89 338.828 312.89 338.497C312.89 338.179 312.949 337.878 313.069 337.595C313.188 337.312 313.353 337.065 313.565 336.853C313.779 336.639 314.026 336.472 314.306 336.353C314.586 336.23 314.887 336.169 315.209 336.169C315.56 336.169 315.869 336.253 316.134 336.42C316.399 336.583 316.613 336.796 316.777 337.059L316.75 336.295ZM315.249 340.15C315.544 340.15 315.799 340.079 316.013 339.936C316.23 339.79 316.397 339.593 316.513 339.346C316.633 339.099 316.692 338.826 316.692 338.529C316.692 338.225 316.633 337.951 316.513 337.706C316.394 337.459 316.226 337.264 316.009 337.121C315.794 336.975 315.541 336.902 315.249 336.902C314.954 336.902 314.686 336.975 314.445 337.121C314.203 337.267 314.011 337.464 313.868 337.711C313.728 337.955 313.658 338.228 313.658 338.529C313.658 338.829 313.731 339.103 313.877 339.351C314.023 339.595 314.217 339.79 314.458 339.936C314.699 340.079 314.963 340.15 315.249 340.15ZM321.721 336.295H322.516L320.072 342.997H319.277L320.086 340.763L318.482 336.295H319.304L320.461 339.73L321.721 336.295Z" fill="#CBD5E0"/>
<path d="M246.283 334.507H247.19L249.465 340.763H248.669L248.205 339.485H245.269L244.809 340.763H244.009L246.283 334.507ZM245.546 338.734H247.928L246.735 335.468L245.546 338.734ZM251.34 342.997H250.589V336.295H251.34V337.059C251.492 336.796 251.694 336.585 251.947 336.424C252.201 336.26 252.502 336.178 252.85 336.178C253.175 336.178 253.479 336.239 253.762 336.362C254.047 336.484 254.298 336.653 254.512 336.871C254.727 337.085 254.895 337.334 255.017 337.617C255.139 337.9 255.2 338.204 255.2 338.529C255.2 338.853 255.139 339.159 255.017 339.444C254.895 339.73 254.727 339.982 254.512 340.2C254.298 340.414 254.047 340.582 253.762 340.704C253.479 340.827 253.175 340.888 252.85 340.888C252.502 340.888 252.201 340.807 251.947 340.646C251.694 340.483 251.492 340.27 251.34 340.007V342.997ZM252.841 336.907C252.552 336.907 252.299 336.98 252.082 337.126C251.864 337.272 251.696 337.467 251.577 337.711C251.46 337.955 251.402 338.228 251.402 338.529C251.402 338.826 251.46 339.099 251.577 339.346C251.696 339.593 251.863 339.79 252.077 339.936C252.295 340.082 252.549 340.155 252.841 340.155C253.13 340.155 253.395 340.083 253.636 339.94C253.878 339.794 254.071 339.599 254.217 339.355C254.363 339.108 254.436 338.832 254.436 338.529C254.436 338.231 254.365 337.96 254.222 337.715C254.079 337.468 253.887 337.272 253.645 337.126C253.404 336.98 253.136 336.907 252.841 336.907ZM256.354 340.763V336.295H257.104V336.853C257.262 336.645 257.462 336.479 257.703 336.357C257.944 336.232 258.206 336.169 258.489 336.169C258.662 336.169 258.829 336.192 258.99 336.236L258.686 336.987C258.564 336.948 258.445 336.929 258.328 336.929C258.105 336.929 257.9 336.984 257.712 337.094C257.527 337.202 257.38 337.347 257.27 337.532C257.159 337.717 257.104 337.922 257.104 338.149V340.763H256.354Z" fill="#CBD5E0"/>
<path d="M183.26 340.763L184.47 334.507H185.047L186.736 338.949L188.42 334.507H188.997L190.212 340.763H189.448L188.568 336.223L186.982 340.423H186.486L184.899 336.223L184.024 340.763H183.26ZM194.894 336.295H195.645V340.763H194.894L194.863 340.007C194.723 340.267 194.529 340.477 194.282 340.637C194.038 340.798 193.746 340.879 193.406 340.879C193.078 340.879 192.772 340.818 192.486 340.696C192.2 340.57 191.947 340.399 191.726 340.182C191.509 339.961 191.339 339.708 191.217 339.422C191.095 339.136 191.034 338.828 191.034 338.497C191.034 338.179 191.093 337.878 191.212 337.595C191.331 337.312 191.497 337.065 191.708 336.853C191.923 336.639 192.17 336.472 192.45 336.353C192.73 336.23 193.031 336.169 193.352 336.169C193.704 336.169 194.012 336.253 194.277 336.42C194.542 336.583 194.757 336.796 194.921 337.059L194.894 336.295ZM193.393 340.15C193.688 340.15 193.942 340.079 194.157 339.936C194.374 339.79 194.541 339.593 194.657 339.346C194.776 339.099 194.836 338.826 194.836 338.529C194.836 338.225 194.776 337.951 194.657 337.706C194.538 337.459 194.37 337.264 194.152 337.121C193.938 336.975 193.685 336.902 193.393 336.902C193.098 336.902 192.83 336.975 192.588 337.121C192.347 337.267 192.155 337.464 192.012 337.711C191.872 337.955 191.802 338.228 191.802 338.529C191.802 338.829 191.875 339.103 192.021 339.351C192.167 339.595 192.361 339.79 192.602 339.936C192.843 340.079 193.107 340.15 193.393 340.15ZM196.944 340.763V336.295H197.694V336.853C197.852 336.645 198.052 336.479 198.293 336.357C198.534 336.232 198.797 336.169 199.08 336.169C199.252 336.169 199.419 336.192 199.58 336.236L199.276 336.987C199.154 336.948 199.035 336.929 198.919 336.929C198.695 336.929 198.49 336.984 198.302 337.094C198.117 337.202 197.97 337.347 197.86 337.532C197.75 337.717 197.694 337.922 197.694 338.149V340.763H196.944Z" fill="#CBD5E0"/>
<path d="M122.331 340.763V334.507H126V335.258H123.082V337.036H125.571V337.787H123.082V340.763H122.331ZM128.587 340.879C128.176 340.879 127.801 340.773 127.461 340.562C127.124 340.35 126.855 340.067 126.652 339.713C126.453 339.355 126.353 338.96 126.353 338.529C126.353 338.201 126.411 337.896 126.527 337.613C126.643 337.327 126.803 337.076 127.005 336.862C127.211 336.645 127.449 336.475 127.72 336.353C127.991 336.23 128.28 336.169 128.587 336.169C128.924 336.169 129.232 336.238 129.512 336.375C129.795 336.509 130.036 336.697 130.236 336.938C130.438 337.179 130.589 337.459 130.687 337.778C130.788 338.097 130.825 338.438 130.799 338.801H127.153C127.188 339.054 127.272 339.281 127.403 339.48C127.534 339.677 127.701 339.833 127.903 339.949C128.109 340.066 128.337 340.125 128.587 340.128C128.855 340.128 129.098 340.06 129.315 339.923C129.533 339.783 129.708 339.592 129.843 339.351L130.607 339.529C130.428 339.926 130.158 340.25 129.798 340.503C129.437 340.754 129.034 340.879 128.587 340.879ZM127.13 338.211H130.044C130.02 337.961 129.939 337.733 129.802 337.528C129.665 337.319 129.491 337.152 129.28 337.027C129.068 336.902 128.837 336.84 128.587 336.84C128.337 336.84 128.107 336.901 127.899 337.023C127.69 337.145 127.518 337.31 127.381 337.519C127.247 337.724 127.163 337.955 127.13 338.211ZM134.175 336.169C134.61 336.169 135.005 336.275 135.359 336.487C135.716 336.698 136.001 336.983 136.212 337.34C136.424 337.695 136.53 338.089 136.53 338.524C136.53 338.849 136.469 339.154 136.346 339.44C136.224 339.723 136.055 339.973 135.837 340.191C135.623 340.405 135.372 340.573 135.086 340.696C134.804 340.818 134.5 340.879 134.175 340.879C133.829 340.879 133.529 340.798 133.272 340.637C133.019 340.474 132.817 340.261 132.665 339.999V340.763H131.914V334.06H132.665V337.05C132.817 336.787 133.019 336.576 133.272 336.415C133.529 336.251 133.829 336.169 134.175 336.169ZM134.166 340.146C134.461 340.146 134.729 340.073 134.97 339.927C135.212 339.781 135.404 339.586 135.547 339.342C135.69 339.094 135.761 338.822 135.761 338.524C135.761 338.22 135.688 337.946 135.542 337.702C135.396 337.455 135.203 337.26 134.961 337.117C134.72 336.971 134.455 336.898 134.166 336.898C133.874 336.898 133.619 336.971 133.402 337.117C133.188 337.263 133.021 337.459 132.902 337.706C132.785 337.954 132.727 338.226 132.727 338.524C132.727 338.825 132.785 339.099 132.902 339.346C133.021 339.59 133.189 339.786 133.407 339.932C133.624 340.074 133.877 340.146 134.166 340.146Z" fill="#CBD5E0"/>
<path d="M63.0155 340.879C62.807 340.879 62.603 340.843 62.4034 340.772C62.2038 340.703 62.0221 340.599 61.8583 340.459L62.3364 339.878C62.4228 339.952 62.5226 340.013 62.6357 340.061C62.7519 340.106 62.8785 340.128 63.0155 340.128C63.2121 340.128 63.3908 340.076 63.5517 339.972C63.7125 339.867 63.8406 339.73 63.936 339.561C64.0343 339.391 64.0834 339.209 64.0834 339.016V334.507H64.834V339.016C64.834 339.349 64.7521 339.657 64.5883 339.94C64.4245 340.22 64.2055 340.447 63.9315 340.62C63.6574 340.792 63.3521 340.879 63.0155 340.879ZM69.9056 336.295H70.6563V340.763H69.9056L69.8744 340.007C69.7344 340.267 69.5408 340.477 69.2935 340.637C69.0493 340.798 68.7574 340.879 68.4178 340.879C68.0901 340.879 67.7833 340.818 67.4974 340.696C67.2114 340.57 66.9582 340.399 66.7378 340.182C66.5203 339.961 66.3506 339.708 66.2284 339.422C66.1063 339.136 66.0452 338.828 66.0452 338.497C66.0452 338.179 66.1048 337.878 66.224 337.595C66.3431 337.312 66.5084 337.065 66.7199 336.853C66.9344 336.639 67.1816 336.472 67.4616 336.353C67.7416 336.23 68.0425 336.169 68.3642 336.169C68.7157 336.169 69.0239 336.253 69.2891 336.42C69.5542 336.583 69.7686 336.796 69.9325 337.059L69.9056 336.295ZM68.4044 340.15C68.6993 340.15 68.954 340.079 69.1684 339.936C69.3859 339.79 69.5527 339.593 69.6688 339.346C69.788 339.099 69.8476 338.826 69.8476 338.529C69.8476 338.225 69.788 337.951 69.6688 337.706C69.5497 337.459 69.3814 337.264 69.1639 337.121C68.9495 336.975 68.6963 336.902 68.4044 336.902C68.1095 336.902 67.8414 336.975 67.6001 337.121C67.3589 337.267 67.1667 337.464 67.0237 337.711C66.8837 337.955 66.8137 338.228 66.8137 338.529C66.8137 338.829 66.8867 339.103 67.0327 339.351C67.1786 339.595 67.3723 339.79 67.6135 339.936C67.8548 340.079 68.1184 340.15 68.4044 340.15ZM75.9053 337.983V340.763H75.1547V338.149C75.1547 337.922 75.0996 337.717 74.9893 337.532C74.8791 337.347 74.7317 337.202 74.547 337.094C74.3623 336.984 74.1568 336.929 73.9304 336.929C73.707 336.929 73.5015 336.984 73.3138 337.094C73.1291 337.202 72.9817 337.347 72.8715 337.532C72.7613 337.717 72.7062 337.922 72.7062 338.149V340.763H71.9555V336.295H72.7062V336.853C72.864 336.645 73.0636 336.479 73.3049 336.357C73.5462 336.232 73.8083 336.169 74.0913 336.169C74.4249 336.169 74.7287 336.251 75.0027 336.415C75.2798 336.576 75.4987 336.793 75.6596 337.067C75.8234 337.342 75.9053 337.647 75.9053 337.983Z" fill="#CBD5E0"/>
<path d="M31.0486 314.883C30.6762 314.883 30.3426 314.799 30.0477 314.632C29.7528 314.463 29.4996 314.229 29.2881 313.931C29.0767 313.633 28.9158 313.289 28.8056 312.899C28.6954 312.506 28.6403 312.086 28.6403 311.639C28.6403 311.192 28.6954 310.772 28.8056 310.379C28.9158 309.986 29.0767 309.642 29.2881 309.347C29.4996 309.049 29.7528 308.817 30.0477 308.65C30.3426 308.48 30.6762 308.395 31.0486 308.395C31.4179 308.395 31.75 308.48 32.0449 308.65C32.3428 308.817 32.5945 309.049 32.8 309.347C33.0086 309.642 33.1679 309.986 33.2781 310.379C33.3913 310.772 33.4479 311.192 33.4479 311.639C33.4479 312.086 33.3913 312.506 33.2781 312.899C33.1679 313.289 33.0086 313.633 32.8 313.931C32.5945 314.229 32.3428 314.463 32.0449 314.632C31.75 314.799 31.4179 314.883 31.0486 314.883ZM31.0486 314.132C31.4209 314.132 31.7322 314.017 31.9824 313.788C32.2356 313.556 32.4247 313.25 32.5498 312.872C32.6749 312.494 32.7375 312.083 32.7375 311.639C32.7375 311.171 32.672 310.75 32.5409 310.374C32.4128 309.996 32.2222 309.697 31.969 309.476C31.7188 309.256 31.412 309.146 31.0486 309.146C30.7626 309.146 30.5124 309.213 30.2979 309.347C30.0864 309.481 29.9107 309.664 29.7707 309.896C29.6307 310.129 29.525 310.395 29.4535 310.696C29.385 310.994 29.3507 311.308 29.3507 311.639C29.3507 312.083 29.4147 312.495 29.5428 312.876C29.6709 313.255 29.8601 313.559 30.1103 313.788C30.3635 314.017 30.6762 314.132 31.0486 314.132Z" fill="#CBD5E0"/>
<path d="M29.4311 274.148V268.643H28.7296L28.9396 267.892H30.1818V274.148H29.4311ZM33.9768 274.264C33.6044 274.264 33.2708 274.181 32.9759 274.014C32.681 273.844 32.4278 273.61 32.2163 273.312C32.0049 273.014 31.844 272.67 31.7338 272.28C31.6236 271.887 31.5685 271.467 31.5685 271.02C31.5685 270.573 31.6236 270.153 31.7338 269.76C31.844 269.367 32.0049 269.023 32.2163 268.728C32.4278 268.43 32.681 268.198 32.9759 268.031C33.2708 267.861 33.6044 267.776 33.9768 267.776C34.3461 267.776 34.6782 267.861 34.9731 268.031C35.271 268.198 35.5227 268.43 35.7282 268.728C35.9368 269.023 36.0961 269.367 36.2063 269.76C36.3195 270.153 36.3761 270.573 36.3761 271.02C36.3761 271.467 36.3195 271.887 36.2063 272.28C36.0961 272.67 35.9368 273.014 35.7282 273.312C35.5227 273.61 35.271 273.844 34.9731 274.014C34.6782 274.181 34.3461 274.264 33.9768 274.264ZM33.9768 273.513C34.3491 273.513 34.6604 273.399 34.9106 273.169C35.1638 272.937 35.3529 272.632 35.478 272.253C35.6031 271.875 35.6657 271.464 35.6657 271.02C35.6657 270.552 35.6002 270.131 35.4691 269.756C35.341 269.377 35.1504 269.078 34.8972 268.858C34.647 268.637 34.3402 268.527 33.9768 268.527C33.6908 268.527 33.4406 268.594 33.2261 268.728C33.0146 268.862 32.8389 269.045 32.6989 269.278C32.5589 269.51 32.4532 269.777 32.3817 270.077C32.3132 270.375 32.2789 270.689 32.2789 271.02C32.2789 271.464 32.3429 271.877 32.471 272.258C32.5991 272.636 32.7883 272.94 33.0385 273.169C33.2917 273.399 33.6044 273.513 33.9768 273.513ZM39.6015 274.264C39.2292 274.264 38.8956 274.181 38.6007 274.014C38.3058 273.844 38.0526 273.61 37.8411 273.312C37.6296 273.014 37.4688 272.67 37.3585 272.28C37.2483 271.887 37.1932 271.467 37.1932 271.02C37.1932 270.573 37.2483 270.153 37.3585 269.76C37.4688 269.367 37.6296 269.023 37.8411 268.728C38.0526 268.43 38.3058 268.198 38.6007 268.031C38.8956 267.861 39.2292 267.776 39.6015 267.776C39.9709 267.776 40.303 267.861 40.5979 268.031C40.8958 268.198 41.1475 268.43 41.353 268.728C41.5615 269.023 41.7209 269.367 41.8311 269.76C41.9443 270.153 42.0009 270.573 42.0009 271.02C42.0009 271.467 41.9443 271.887 41.8311 272.28C41.7209 272.67 41.5615 273.014 41.353 273.312C41.1475 273.61 40.8958 273.844 40.5979 274.014C40.303 274.181 39.9709 274.264 39.6015 274.264ZM39.6015 273.513C39.9738 273.513 40.2851 273.399 40.5353 273.169C40.7885 272.937 40.9777 272.632 41.1028 272.253C41.2279 271.875 41.2904 271.464 41.2904 271.02C41.2904 270.552 41.2249 270.131 41.0938 269.756C40.9658 269.377 40.7751 269.078 40.5219 268.858C40.2717 268.637 39.9649 268.527 39.6015 268.527C39.3156 268.527 39.0653 268.594 38.8509 268.728C38.6394 268.862 38.4636 269.045 38.3236 269.278C38.1836 269.51 38.0779 269.777 38.0064 270.077C37.9379 270.375 37.9036 270.689 37.9036 271.02C37.9036 271.464 37.9677 271.877 38.0958 272.258C38.2239 272.636 38.413 272.94 38.6632 273.169C38.9164 273.399 39.2292 273.513 39.6015 273.513Z" fill="#CBD5E0"/>
<path d="M28.7296 233.529V232.863C28.959 232.658 29.2167 232.428 29.5026 232.175C29.7886 231.919 30.073 231.652 30.356 231.375C30.642 231.095 30.9041 230.818 31.1424 230.544C31.3807 230.27 31.5728 230.011 31.7188 229.767C31.8647 229.52 31.9377 229.304 31.9377 229.119C31.9377 228.899 31.8841 228.698 31.7769 228.516C31.6696 228.331 31.5252 228.184 31.3435 228.073C31.1647 227.963 30.9652 227.908 30.7447 227.908C30.5243 227.908 30.3218 227.963 30.1371 228.073C29.9554 228.184 29.8094 228.331 29.6992 228.516C29.592 228.698 29.5384 228.899 29.5384 229.119H28.7877C28.7877 228.753 28.8771 228.422 29.0558 228.127C29.2345 227.829 29.4713 227.594 29.7662 227.421C30.0611 227.245 30.3873 227.158 30.7447 227.158C31.1022 227.158 31.4269 227.245 31.7188 227.421C32.0137 227.597 32.249 227.834 32.4247 228.132C32.6005 228.426 32.6883 228.756 32.6883 229.119C32.6883 229.328 32.6377 229.552 32.5364 229.794C32.4352 230.032 32.2966 230.278 32.1209 230.531C31.9452 230.784 31.7456 231.04 31.5222 231.299C31.2988 231.556 31.0635 231.809 30.8162 232.059C30.569 232.309 30.3232 232.549 30.079 232.778H32.7688V233.529H28.7296ZM36.1584 233.645C35.7861 233.645 35.4525 233.562 35.1576 233.395C34.8627 233.225 34.6095 232.991 34.398 232.693C34.1865 232.396 34.0257 232.052 33.9155 231.661C33.8053 231.268 33.7501 230.848 33.7501 230.401C33.7501 229.955 33.8053 229.535 33.9155 229.141C34.0257 228.748 34.1865 228.404 34.398 228.109C34.6095 227.811 34.8627 227.579 35.1576 227.412C35.4525 227.242 35.7861 227.158 36.1584 227.158C36.5278 227.158 36.8599 227.242 37.1548 227.412C37.4527 227.579 37.7044 227.811 37.9099 228.109C38.1184 228.404 38.2778 228.748 38.388 229.141C38.5012 229.535 38.5578 229.955 38.5578 230.401C38.5578 230.848 38.5012 231.268 38.388 231.661C38.2778 232.052 38.1184 232.396 37.9099 232.693C37.7044 232.991 37.4527 233.225 37.1548 233.395C36.8599 233.562 36.5278 233.645 36.1584 233.645ZM36.1584 232.895C36.5308 232.895 36.842 232.78 37.0923 232.55C37.3455 232.318 37.5346 232.013 37.6597 231.635C37.7848 231.256 37.8474 230.845 37.8474 230.401C37.8474 229.934 37.7818 229.512 37.6508 229.137C37.5227 228.759 37.332 228.459 37.0789 228.239C36.8286 228.018 36.5218 227.908 36.1584 227.908C35.8725 227.908 35.6223 227.975 35.4078 228.109C35.1963 228.243 35.0206 228.426 34.8806 228.659C34.7406 228.891 34.6348 229.158 34.5633 229.459C34.4948 229.756 34.4606 230.071 34.4606 230.401C34.4606 230.845 34.5246 231.258 34.6527 231.639C34.7808 232.017 34.9699 232.321 35.2201 232.55C35.4733 232.78 35.7861 232.895 36.1584 232.895ZM41.7832 233.645C41.4108 233.645 41.0772 233.562 40.7823 233.395C40.4874 233.225 40.2343 232.991 40.0228 232.693C39.8113 232.396 39.6504 232.052 39.5402 231.661C39.43 231.268 39.3749 230.848 39.3749 230.401C39.3749 229.955 39.43 229.535 39.5402 229.141C39.6504 228.748 39.8113 228.404 40.0228 228.109C40.2343 227.811 40.4874 227.579 40.7823 227.412C41.0772 227.242 41.4108 227.158 41.7832 227.158C42.1525 227.158 42.4847 227.242 42.7796 227.412C43.0774 227.579 43.3291 227.811 43.5347 228.109C43.7432 228.404 43.9025 228.748 44.0127 229.141C44.1259 229.535 44.1825 229.955 44.1825 230.401C44.1825 230.848 44.1259 231.268 44.0127 231.661C43.9025 232.052 43.7432 232.396 43.5347 232.693C43.3291 232.991 43.0774 233.225 42.7796 233.395C42.4847 233.562 42.1525 233.645 41.7832 233.645ZM41.7832 232.895C42.1555 232.895 42.4668 232.78 42.717 232.55C42.9702 232.318 43.1593 232.013 43.2845 231.635C43.4096 231.256 43.4721 230.845 43.4721 230.401C43.4721 229.934 43.4066 229.512 43.2755 229.137C43.1474 228.759 42.9568 228.459 42.7036 228.239C42.4534 228.018 42.1466 227.908 41.7832 227.908C41.4972 227.908 41.247 227.975 41.0325 228.109C40.8211 228.243 40.6453 228.426 40.5053 228.659C40.3653 228.891 40.2596 229.158 40.1881 229.459C40.1196 229.756 40.0853 230.071 40.0853 230.401C40.0853 230.845 40.1494 231.258 40.2774 231.639C40.4055 232.017 40.5947 232.321 40.8449 232.55C41.0981 232.78 41.4108 232.895 41.7832 232.895Z" fill="#CBD5E0"/>
<path d="M30.5884 193.026C30.2101 193.026 29.8735 192.941 29.5786 192.772C29.2867 192.599 29.0573 192.37 28.8905 192.084C28.7237 191.795 28.6403 191.474 28.6403 191.123H29.3909C29.3909 191.334 29.4401 191.528 29.5384 191.704C29.6367 191.877 29.7752 192.015 29.9539 192.119C30.1326 192.224 30.3441 192.276 30.5884 192.276C30.7998 192.276 30.9964 192.224 31.1781 192.119C31.3628 192.015 31.5118 191.877 31.6249 191.704C31.7381 191.528 31.7947 191.334 31.7947 191.123C31.7947 190.858 31.7262 190.637 31.5892 190.462C31.4552 190.283 31.2675 190.15 31.0262 190.064C30.7879 189.975 30.5154 189.93 30.2086 189.93V189.327C30.6315 189.327 30.9696 189.239 31.2228 189.063C31.479 188.887 31.6071 188.628 31.6071 188.286C31.6071 188.104 31.5579 187.937 31.4596 187.785C31.3613 187.633 31.2318 187.513 31.0709 187.423C30.913 187.331 30.7432 187.285 30.5615 187.285C30.3769 187.285 30.1996 187.331 30.0298 187.423C29.8601 187.513 29.7215 187.633 29.6143 187.785C29.5071 187.937 29.4535 188.104 29.4535 188.286H28.7028C28.7028 188.044 28.752 187.818 28.8503 187.607C28.9516 187.395 29.0886 187.209 29.2613 187.048C29.4371 186.887 29.6352 186.762 29.8556 186.673C30.076 186.58 30.3084 186.534 30.5526 186.534C30.8713 186.534 31.1677 186.613 31.4418 186.771C31.7158 186.929 31.9362 187.14 32.103 187.406C32.2728 187.671 32.3577 187.964 32.3577 188.286C32.3577 188.575 32.2847 188.841 32.1388 189.086C31.9928 189.33 31.7947 189.501 31.5445 189.599C31.762 189.674 31.9452 189.79 32.0941 189.948C32.243 190.103 32.3547 190.282 32.4292 190.484C32.5066 190.687 32.5454 190.9 32.5454 191.123C32.5454 191.472 32.4545 191.79 32.2728 192.079C32.0941 192.368 31.8558 192.599 31.5579 192.772C31.263 192.941 30.9398 193.026 30.5884 193.026ZM35.8966 193.026C35.5243 193.026 35.1907 192.943 34.8958 192.776C34.6009 192.606 34.3477 192.373 34.1362 192.075C33.9247 191.777 33.7639 191.433 33.6537 191.043C33.5435 190.649 33.4883 190.229 33.4883 189.783C33.4883 189.336 33.5435 188.916 33.6537 188.523C33.7639 188.129 33.9247 187.785 34.1362 187.49C34.3477 187.193 34.6009 186.96 34.8958 186.793C35.1907 186.624 35.5243 186.539 35.8966 186.539C36.266 186.539 36.5981 186.624 36.893 186.793C37.1909 186.96 37.4426 187.193 37.6481 187.49C37.8566 187.785 38.016 188.129 38.1262 188.523C38.2394 188.916 38.296 189.336 38.296 189.783C38.296 190.229 38.2394 190.649 38.1262 191.043C38.016 191.433 37.8566 191.777 37.6481 192.075C37.4426 192.373 37.1909 192.606 36.893 192.776C36.5981 192.943 36.266 193.026 35.8966 193.026ZM35.8966 192.276C36.269 192.276 36.5802 192.161 36.8305 191.932C37.0836 191.699 37.2728 191.394 37.3979 191.016C37.523 190.637 37.5856 190.226 37.5856 189.783C37.5856 189.315 37.52 188.893 37.389 188.518C37.2609 188.14 37.0702 187.84 36.8171 187.62C36.5668 187.4 36.26 187.289 35.8966 187.289C35.6107 187.289 35.3605 187.356 35.146 187.49C34.9345 187.624 34.7588 187.808 34.6188 188.04C34.4788 188.272 34.373 188.539 34.3015 188.84C34.233 189.138 34.1988 189.452 34.1988 189.783C34.1988 190.226 34.2628 190.639 34.3909 191.02C34.519 191.399 34.7081 191.702 34.9583 191.932C35.2115 192.161 35.5243 192.276 35.8966 192.276ZM41.5214 193.026C41.149 193.026 40.8154 192.943 40.5205 192.776C40.2256 192.606 39.9725 192.373 39.761 192.075C39.5495 191.777 39.3886 191.433 39.2784 191.043C39.1682 190.649 39.1131 190.229 39.1131 189.783C39.1131 189.336 39.1682 188.916 39.2784 188.523C39.3886 188.129 39.5495 187.785 39.761 187.49C39.9725 187.193 40.2256 186.96 40.5205 186.793C40.8154 186.624 41.149 186.539 41.5214 186.539C41.8907 186.539 42.2229 186.624 42.5178 186.793C42.8156 186.96 43.0673 187.193 43.2729 187.49C43.4814 187.785 43.6407 188.129 43.7509 188.523C43.8641 188.916 43.9207 189.336 43.9207 189.783C43.9207 190.229 43.8641 190.649 43.7509 191.043C43.6407 191.433 43.4814 191.777 43.2729 192.075C43.0673 192.373 42.8156 192.606 42.5178 192.776C42.2229 192.943 41.8907 193.026 41.5214 193.026ZM41.5214 192.276C41.8937 192.276 42.205 192.161 42.4552 191.932C42.7084 191.699 42.8975 191.394 43.0226 191.016C43.1478 190.637 43.2103 190.226 43.2103 189.783C43.2103 189.315 43.1448 188.893 43.0137 188.518C42.8856 188.14 42.695 187.84 42.4418 187.62C42.1916 187.4 41.8848 187.289 41.5214 187.289C41.2354 187.289 40.9852 187.356 40.7707 187.49C40.5593 187.624 40.3835 187.808 40.2435 188.04C40.1035 188.272 39.9978 188.539 39.9263 188.84C39.8578 189.138 39.8235 189.452 39.8235 189.783C39.8235 190.226 39.8876 190.639 40.0156 191.02C40.1437 191.399 40.3329 191.702 40.5831 191.932C40.8363 192.161 41.149 192.276 41.5214 192.276Z" fill="#CBD5E0"/>
<path d="M31.4194 152.291V150.603H28.7296V149.843L31.2318 146.036H32.17V149.852H32.7911V150.603H32.17V152.291H31.4194ZM29.6098 149.843L31.4194 149.852L31.406 147.091L29.6098 149.843ZM36.141 152.408C35.7686 152.408 35.435 152.324 35.1401 152.157C34.8452 151.988 34.5921 151.754 34.3806 151.456C34.1691 151.158 34.0082 150.814 33.898 150.424C33.7878 150.031 33.7327 149.611 33.7327 149.164C33.7327 148.717 33.7878 148.297 33.898 147.904C34.0082 147.511 34.1691 147.167 34.3806 146.872C34.5921 146.574 34.8452 146.341 35.1401 146.175C35.435 146.005 35.7686 145.92 36.141 145.92C36.5103 145.92 36.8425 146.005 37.1374 146.175C37.4352 146.341 37.6869 146.574 37.8925 146.872C38.101 147.167 38.2603 147.511 38.3705 147.904C38.4837 148.297 38.5403 148.717 38.5403 149.164C38.5403 149.611 38.4837 150.031 38.3705 150.424C38.2603 150.814 38.101 151.158 37.8925 151.456C37.6869 151.754 37.4352 151.988 37.1374 152.157C36.8425 152.324 36.5103 152.408 36.141 152.408ZM36.141 151.657C36.5133 151.657 36.8246 151.542 37.0748 151.313C37.328 151.081 37.5171 150.775 37.6423 150.397C37.7674 150.019 37.8299 149.608 37.8299 149.164C37.8299 148.696 37.7644 148.275 37.6333 147.899C37.5052 147.521 37.3146 147.222 37.0614 147.001C36.8112 146.781 36.5044 146.671 36.141 146.671C35.855 146.671 35.6048 146.738 35.3903 146.872C35.1789 147.006 35.0031 147.189 34.8631 147.421C34.7231 147.654 34.6174 147.92 34.5459 148.221C34.4774 148.519 34.4431 148.833 34.4431 149.164C34.4431 149.608 34.5072 150.02 34.6352 150.401C34.7633 150.78 34.9525 151.084 35.2027 151.313C35.4559 151.542 35.7686 151.657 36.141 151.657ZM41.7657 152.408C41.3934 152.408 41.0598 152.324 40.7649 152.157C40.47 151.988 40.2168 151.754 40.0053 151.456C39.7938 151.158 39.633 150.814 39.5228 150.424C39.4125 150.031 39.3574 149.611 39.3574 149.164C39.3574 148.717 39.4125 148.297 39.5228 147.904C39.633 147.511 39.7938 147.167 40.0053 146.872C40.2168 146.574 40.47 146.341 40.7649 146.175C41.0598 146.005 41.3934 145.92 41.7657 145.92C42.1351 145.92 42.4672 146.005 42.7621 146.175C43.06 146.341 43.3117 146.574 43.5172 146.872C43.7257 147.167 43.8851 147.511 43.9953 147.904C44.1085 148.297 44.1651 148.717 44.1651 149.164C44.1651 149.611 44.1085 150.031 43.9953 150.424C43.8851 150.814 43.7257 151.158 43.5172 151.456C43.3117 151.754 43.06 151.988 42.7621 152.157C42.4672 152.324 42.1351 152.408 41.7657 152.408ZM41.7657 151.657C42.1381 151.657 42.4493 151.542 42.6996 151.313C42.9527 151.081 43.1419 150.775 43.267 150.397C43.3921 150.019 43.4547 149.608 43.4547 149.164C43.4547 148.696 43.3891 148.275 43.2581 147.899C43.13 147.521 42.9393 147.222 42.6861 147.001C42.4359 146.781 42.1291 146.671 41.7657 146.671C41.4798 146.671 41.2296 146.738 41.0151 146.872C40.8036 147.006 40.6279 147.189 40.4879 147.421C40.3479 147.654 40.2421 147.92 40.1706 148.221C40.1021 148.519 40.0679 148.833 40.0679 149.164C40.0679 149.608 40.1319 150.02 40.26 150.401C40.3881 150.78 40.5772 151.084 40.8274 151.313C41.0806 151.542 41.3934 151.657 41.7657 151.657Z" fill="#CBD5E0"/>
<path d="M30.7627 111.789C30.3754 111.789 30.0239 111.695 29.7082 111.507C29.3925 111.32 29.1422 111.07 28.9576 110.757C28.7759 110.441 28.685 110.094 28.685 109.716H29.4357C29.4357 109.957 29.4952 110.179 29.6144 110.381C29.7335 110.581 29.8929 110.74 30.0925 110.86C30.295 110.979 30.5184 111.038 30.7627 111.038C31.0039 111.038 31.2244 110.979 31.4239 110.86C31.6235 110.74 31.7829 110.581 31.902 110.381C32.0212 110.179 32.0807 109.957 32.0807 109.716C32.0807 109.474 32.0242 109.253 31.911 109.05C31.8007 108.847 31.6384 108.687 31.4239 108.567C31.2095 108.445 30.9488 108.384 30.642 108.384H29.1005L29.7082 105.417H32.675V106.168H30.3159L30.0254 107.634L30.6733 107.638C31.0993 107.647 31.4731 107.742 31.7948 107.924C32.1195 108.103 32.3727 108.347 32.5544 108.657C32.739 108.964 32.8314 109.317 32.8314 109.716C32.8314 109.999 32.7778 110.267 32.6705 110.52C32.5633 110.77 32.4144 110.991 32.2237 111.181C32.0331 111.372 31.8127 111.521 31.5625 111.628C31.3152 111.735 31.0486 111.789 30.7627 111.789ZM36.1759 111.789C35.8036 111.789 35.47 111.705 35.1751 111.539C34.8802 111.369 34.627 111.135 34.4155 110.837C34.204 110.539 34.0432 110.195 33.933 109.805C33.8228 109.412 33.7677 108.992 33.7677 108.545C33.7677 108.098 33.8228 107.678 33.933 107.285C34.0432 106.892 34.204 106.548 34.4155 106.253C34.627 105.955 34.8802 105.723 35.1751 105.556C35.47 105.386 35.8036 105.301 36.1759 105.301C36.5453 105.301 36.8774 105.386 37.1723 105.556C37.4702 105.723 37.7219 105.955 37.9274 106.253C38.1359 106.548 38.2953 106.892 38.4055 107.285C38.5187 107.678 38.5753 108.098 38.5753 108.545C38.5753 108.992 38.5187 109.412 38.4055 109.805C38.2953 110.195 38.1359 110.539 37.9274 110.837C37.7219 111.135 37.4702 111.369 37.1723 111.539C36.8774 111.705 36.5453 111.789 36.1759 111.789ZM36.1759 111.038C36.5483 111.038 36.8596 110.924 37.1098 110.694C37.363 110.462 37.5521 110.157 37.6772 109.778C37.8023 109.4 37.8649 108.989 37.8649 108.545C37.8649 108.077 37.7993 107.656 37.6683 107.281C37.5402 106.902 37.3496 106.603 37.0964 106.383C36.8462 106.162 36.5394 106.052 36.1759 106.052C35.89 106.052 35.6398 106.119 35.4253 106.253C35.2138 106.387 35.0381 106.57 34.8981 106.803C34.7581 107.035 34.6523 107.301 34.5808 107.602C34.5123 107.9 34.4781 108.214 34.4781 108.545C34.4781 108.989 34.5421 109.401 34.6702 109.783C34.7983 110.161 34.9874 110.465 35.2377 110.694C35.4908 110.924 35.8036 111.038 36.1759 111.038ZM41.8007 111.789C41.4284 111.789 41.0947 111.705 40.7998 111.539C40.505 111.369 40.2518 111.135 40.0403 110.837C39.8288 110.539 39.6679 110.195 39.5577 109.805C39.4475 109.412 39.3924 108.992 39.3924 108.545C39.3924 108.098 39.4475 107.678 39.5577 107.285C39.6679 106.892 39.8288 106.548 40.0403 106.253C40.2518 105.955 40.505 105.723 40.7998 105.556C41.0947 105.386 41.4284 105.301 41.8007 105.301C42.1701 105.301 42.5022 105.386 42.7971 105.556C43.0949 105.723 43.3466 105.955 43.5522 106.253C43.7607 106.548 43.92 106.892 44.0303 107.285C44.1435 107.678 44.2 108.098 44.2 108.545C44.2 108.992 44.1435 109.412 44.0303 109.805C43.92 110.195 43.7607 110.539 43.5522 110.837C43.3466 111.135 43.0949 111.369 42.7971 111.539C42.5022 111.705 42.1701 111.789 41.8007 111.789ZM41.8007 111.038C42.173 111.038 42.4843 110.924 42.7345 110.694C42.9877 110.462 43.1769 110.157 43.302 109.778C43.4271 109.4 43.4896 108.989 43.4896 108.545C43.4896 108.077 43.4241 107.656 43.293 107.281C43.1649 106.902 42.9743 106.603 42.7211 106.383C42.4709 106.162 42.1641 106.052 41.8007 106.052C41.5147 106.052 41.2645 106.119 41.0501 106.253C40.8386 106.387 40.6628 106.57 40.5228 106.803C40.3828 107.035 40.2771 107.301 40.2056 107.602C40.1371 107.9 40.1028 108.214 40.1028 108.545C40.1028 108.989 40.1669 109.401 40.295 109.783C40.423 110.161 40.6122 110.465 40.8624 110.694C41.1156 110.924 41.4284 111.038 41.8007 111.038Z" fill="#CBD5E0"/>
<line x1="61.6796" y1="310.859" x2="743.262" y2="310.859" stroke="#E2E8F0" stroke-width="0.812375" stroke-linecap="round" stroke-linejoin="round" stroke-dasharray="2.84 2.84"/>
<line x1="61.6796" y1="270.241" x2="743.262" y2="270.241" stroke="#E2E8F0" stroke-width="0.812375" stroke-linecap="round" stroke-linejoin="round" stroke-dasharray="2.84 2.84"/>
<line x1="61.6796" y1="229.622" x2="743.262" y2="229.622" stroke="#E2E8F0" stroke-width="0.812375" stroke-linecap="round" stroke-linejoin="round" stroke-dasharray="2.84 2.84"/>
<line x1="61.6796" y1="189.003" x2="743.262" y2="189.003" stroke="#E2E8F0" stroke-width="0.812375" stroke-linecap="round" stroke-linejoin="round" stroke-dasharray="2.84 2.84"/>
<line x1="61.6796" y1="148.384" x2="743.262" y2="148.384" stroke="#E2E8F0" stroke-width="0.812375" stroke-linecap="round" stroke-linejoin="round" stroke-dasharray="2.84 2.84"/>
<line x1="61.6796" y1="107.766" x2="743.262" y2="107.766" stroke="#E2E8F0" stroke-width="0.812375" stroke-linecap="round" stroke-linejoin="round" stroke-dasharray="2.84 2.84"/>
<path d="M650.411 245.906C685.836 235.266 727.343 250.339 743.669 259.206V311.062H61.2734V108.172C95.5564 114.258 117.595 164.302 123.105 196.087C127.599 222.011 127.799 240.496 151.674 245.906C175.678 251.345 204.137 234.038 228.216 210.593C247.48 191.838 276.24 202.779 288.212 210.593C309.435 224.194 344.394 233.418 372.473 219.531C407.573 202.174 426.959 207.133 471.241 219.531C515.523 231.93 511.034 239.82 547.97 259.206C584.906 278.593 606.128 259.206 650.411 245.906Z" fill="url(#paint0_linear_1_403)"/>
<path d="M743.669 259.206C727.343 250.339 685.836 235.266 650.411 245.906C606.128 259.206 584.906 278.593 547.97 259.206C511.034 239.82 515.523 231.93 471.241 219.531C426.959 207.133 407.573 202.174 372.473 219.531C344.394 233.418 309.435 224.194 288.212 210.593C276.24 202.779 247.48 191.838 228.216 210.593C204.137 234.038 175.678 251.345 151.674 245.906C127.799 240.496 127.599 222.011 123.105 196.087C117.595 164.302 95.5564 114.258 61.2734 108.172" stroke="#193579" stroke-width="2.43713"/>
<path d="M153.814 223.9C118.661 213.268 77.4731 228.33 61.2734 237.19V310.859H742.856V136.53C708.837 142.612 679.938 141.034 674.47 172.796C670.011 198.701 669.813 217.172 646.121 222.578C622.302 228.013 608.456 196.223 584.562 172.796C565.446 154.054 533.252 178.442 521.372 186.251C500.312 199.842 452.438 170.189 431.69 146.88C402.065 113.597 363.105 110.553 333.682 146.88C304.258 183.207 275.072 153.424 238.42 172.796C201.769 192.168 197.756 237.19 153.814 223.9Z" fill="url(#paint1_linear_1_403)"/>
<path d="M61.2734 237.339C77.4731 228.468 118.661 213.386 153.814 224.032C197.756 237.339 201.769 192.26 238.42 172.863C275.072 153.466 304.258 183.287 333.682 146.913C363.105 110.54 402.065 113.588 431.69 146.913C452.438 170.252 500.312 199.943 521.372 186.335C533.252 178.516 565.446 154.097 584.562 172.863C608.456 196.32 622.302 228.151 646.121 222.709C669.813 217.296 670.011 198.801 674.47 172.863C679.938 141.06 708.837 142.64 742.856 136.55" stroke="#FF9900" stroke-width="2.43713"/>
</g>
</g>
<defs>
<filter id="filter0_d_1_403" x="0.1" y="0.6" width="512.8" height="382.8" filterUnits="userSpaceOnUse" color-interpolation-filters="sRGB">
<feFlood flood-opacity="0" result="BackgroundImageFix"/>
<feColorMatrix in="SourceAlpha" type="matrix" values="0 0 0 0 0 0 0 0 0 0 0 0 0 0 0 0 0 0 127 0" result="hardAlpha"/>
<feOffset dy="6"/>
<feGaussianBlur stdDeviation="5.2"/>
<feComposite in2="hardAlpha" operator="out"/>
<feColorMatrix type="matrix" values="0 0 0 0 0.027451 0 0 0 0 0.0509804 0 0 0 0 0.0862745 0 0 0 0.05 0"/>
<feBlend mode="normal" in2="BackgroundImageFix" result="effect1_dropShadow_1_403"/>
<feBlend mode="normal" in="SourceGraphic" in2="effect1_dropShadow_1_403" result="shape"/>
</filter>
<filter id="filter1_d_1_403" x="6.03194" y="3.37525" width="759.571" height="370.443" filterUnits="userSpaceOnUse" color-interpolation-filters="sRGB">
<feFlood flood-opacity="0" result="BackgroundImageFix"/>
<feColorMatrix in="SourceAlpha" type="matrix" values="0 0 0 0 0 0 0 0 0 0 0 0 0 0 0 0 0 0 127 0" result="hardAlpha"/>
<feOffset dy="2.84331"/>
<feGaussianBlur stdDeviation="2.23403"/>
<feColorMatrix type="matrix" values="0 0 0 0 0 0 0 0 0 0 0 0 0 0 0 0 0 0 0.02 0"/>
<feBlend mode="normal" in2="BackgroundImageFix" result="effect1_dropShadow_1_403"/>
<feBlend mode="normal" in="SourceGraphic" in2="effect1_dropShadow_1_403" result="shape"/>
</filter>
<linearGradient id="paint0_linear_1_403" x1="402.471" y1="108.172" x2="402.471" y2="311.062" gradientUnits="userSpaceOnUse">
<stop stop-color="#193579" stop-opacity="0.36"/>
<stop offset="1" stop-color="#193579" stop-opacity="0"/>
</linearGradient>
<linearGradient id="paint1_linear_1_403" x1="402.065" y1="120.763" x2="402.065" y2="310.859" gradientUnits="userSpaceOnUse">
<stop stop-color="#FF9900" stop-opacity="0.54"/>
<stop offset="1" stop-color="#FF9900" stop-opacity="0"/>
</linearGradient>
<clipPath id="clip0_1_403">
<rect x="10.5" y="5" width="492" height="362" rx="32.495" fill="white"/>
</clipPath>
</defs>
</svg>
