<svg width="24" height="24" viewBox="0 0 24 24" fill="none" xmlns="http://www.w3.org/2000/svg">
<mask id="mask0_1_570" style="mask-type:alpha" maskUnits="userSpaceOnUse" x="0" y="0" width="24" height="24">
<rect width="24" height="24" fill="#D9D9D9"/>
</mask>
<g mask="url(#mask0_1_570)">
<path d="M11.25 12.7499H5.25002L6.79227 14.2769C6.94094 14.4256 7.01694 14.6047 7.02027 14.8144C7.02344 15.0239 6.94744 15.2062 6.79227 15.3614C6.63711 15.5166 6.45636 15.5941 6.25002 15.5941C6.04369 15.5941 5.86294 15.5166 5.70777 15.3614L2.97877 12.6327C2.88527 12.539 2.81927 12.4402 2.78077 12.3364C2.74227 12.2326 2.72302 12.1204 2.72302 11.9999C2.72302 11.8794 2.74227 11.7672 2.78077 11.6634C2.81927 11.5596 2.88527 11.4608 2.97877 11.3672L5.70777 8.6384C5.85644 8.48973 6.03302 8.41373 6.23752 8.4104C6.44202 8.40723 6.62186 8.48323 6.77702 8.6384C6.93202 8.79357 7.00952 8.97173 7.00952 9.1729C7.00952 9.37423 6.93202 9.55248 6.77702 9.70765L5.23452 11.2499H11.25V5.2344L9.69227 6.79215C9.54361 6.94082 9.36961 7.01423 9.17027 7.0124C8.97094 7.0104 8.79369 6.9319 8.63852 6.7769C8.48336 6.62173 8.40577 6.44348 8.40577 6.24215C8.40577 6.04098 8.48336 5.86282 8.63852 5.70765L11.3673 2.97865C11.4609 2.88515 11.5597 2.81915 11.6635 2.78065C11.7674 2.74215 11.8795 2.7229 12 2.7229C12.1205 2.7229 12.2327 2.74215 12.3365 2.78065C12.4404 2.81915 12.5391 2.88515 12.6328 2.97865L15.377 5.7229C15.5257 5.87173 15.6016 6.04582 15.6048 6.24515C15.6079 6.44448 15.532 6.62173 15.377 6.7769C15.2219 6.9319 15.0436 7.0094 14.8423 7.0094C14.6411 7.0094 14.4629 6.9319 14.3078 6.7769L12.75 5.2344V11.2499H18.75L17.2078 9.7229C17.0591 9.57423 16.9831 9.39507 16.9798 9.1854C16.9766 8.9759 17.0526 8.79357 17.2078 8.6384C17.3629 8.48323 17.5437 8.40565 17.75 8.40565C17.9564 8.40565 18.1371 8.48323 18.2923 8.6384L21.0213 11.3672C21.1148 11.4608 21.1808 11.5596 21.2193 11.6634C21.2578 11.7672 21.277 11.8794 21.277 11.9999C21.277 12.1204 21.2578 12.2326 21.2193 12.3364C21.1808 12.4402 21.1148 12.539 21.0213 12.6327L18.277 15.3769C18.1282 15.5256 17.9541 15.5989 17.7548 15.5969C17.5554 15.5951 17.3782 15.5166 17.223 15.3614C17.068 15.2062 16.9905 15.0281 16.9905 14.8269C16.9905 14.6256 17.068 14.4473 17.223 14.2922L18.7655 12.7499H12.75V18.7499L14.277 17.2077C14.4257 17.059 14.6049 16.983 14.8145 16.9797C15.024 16.9765 15.2064 17.0525 15.3615 17.2077C15.5167 17.3628 15.5943 17.5436 15.5943 17.7499C15.5943 17.9562 15.5167 18.137 15.3615 18.2922L12.6328 21.0212C12.5391 21.1147 12.4404 21.1807 12.3365 21.2192C12.2327 21.2577 12.1205 21.2769 12 21.2769C11.8795 21.2769 11.7674 21.2577 11.6635 21.2192C11.5597 21.1807 11.4609 21.1147 11.3673 21.0212L8.62302 18.2769C8.47436 18.1281 8.40102 17.9514 8.40302 17.7469C8.40486 17.5426 8.48336 17.3628 8.63852 17.2077C8.79369 17.0525 8.97186 16.9749 9.17302 16.9749C9.37436 16.9749 9.55261 17.0525 9.70777 17.2077L11.25 18.7654V12.7499Z" fill="#1C1B1F"/>
</g>
</svg>
