<svg width="51" height="51" viewBox="0 0 51 51" fill="none" xmlns="http://www.w3.org/2000/svg">
<circle cx="25.4829" cy="25.483" r="21.5" transform="rotate(-99.9898 25.4829 25.483)" stroke="#070D16"/>
<mask id="mask0_1_531" style="mask-type:alpha" maskUnits="userSpaceOnUse" x="11" y="11" width="29" height="29">
<rect width="24" height="24" transform="matrix(0.173473 0.984839 0.984839 -0.173473 11.5831 15.7466)" fill="#D9D9D9"/>
</mask>
<g mask="url(#mask0_1_531)">
<path d="M31.243 18.7956C31.2033 18.5702 31.0938 18.3947 30.9144 18.2691C30.7351 18.1435 30.5327 18.1005 30.3074 18.1402L22.7318 19.4746C22.5922 19.4992 22.4836 19.567 22.4059 19.6782C22.3282 19.7894 22.3016 19.9148 22.3262 20.0545C22.3508 20.1942 22.4186 20.3027 22.5295 20.3802C22.6405 20.4576 22.7657 20.484 22.9052 20.4594L29.5945 19.2812L20.7194 31.9514C20.6435 32.0597 20.6142 32.1813 20.6314 32.3164C20.6487 32.4513 20.719 32.5619 20.8422 32.6484C20.9655 32.7346 21.0909 32.7665 21.2185 32.744C21.346 32.7216 21.4529 32.6488 21.5392 32.5256L30.4143 19.8554L31.5926 26.5447C31.6171 26.6842 31.685 26.7928 31.7962 26.8705C31.9074 26.9483 32.0328 26.9748 32.1725 26.9502C32.3121 26.9256 32.4207 26.8579 32.4981 26.7469C32.5756 26.636 32.602 26.5107 32.5774 26.3712L31.243 18.7956Z" fill="#1C1B1F"/>
</g>
</svg>
