<svg width="45" height="45" viewBox="0 0 45 45" fill="none" xmlns="http://www.w3.org/2000/svg">
<circle cx="22.9828" cy="22.4828" r="21.5" stroke="#070D16"/>
<mask id="mask0_1_511" style="mask-type:alpha" maskUnits="userSpaceOnUse" x="10" y="10" width="25" height="25">
<rect width="24" height="24" transform="matrix(-1 0 0 1 34.9828 10.4828)" fill="#D9D9D9"/>
</mask>
<g mask="url(#mask0_1_511)">
<path d="M28.5696 29.3157C28.7984 29.3157 28.9902 29.2383 29.1451 29.0835C29.2999 28.9286 29.3773 28.7368 29.3773 28.508L29.3773 20.8157C29.3773 20.674 29.3293 20.5553 29.2333 20.4595C29.1373 20.3636 29.0184 20.3157 28.8766 20.3157C28.7347 20.3157 28.6161 20.3636 28.5206 20.4595C28.4251 20.5553 28.3773 20.674 28.3773 20.8157V27.608L17.4388 16.6695C17.3453 16.576 17.2306 16.526 17.0946 16.5195C16.9587 16.5131 16.8376 16.5631 16.7311 16.6695C16.6247 16.776 16.5716 16.894 16.5716 17.0235C16.5716 17.153 16.6247 17.2709 16.7311 17.3772L27.6696 28.3157H20.8773C20.7357 28.3157 20.6169 28.3637 20.5211 28.4597C20.4252 28.5557 20.3773 28.6746 20.3773 28.8165C20.3773 28.9583 20.4252 29.077 20.5211 29.1725C20.6169 29.268 20.7357 29.3157 20.8773 29.3157H28.5696Z" fill="#1C1B1F"/>
</g>
</svg>
