<svg width="55" height="54" viewBox="0 0 55 54" fill="none" xmlns="http://www.w3.org/2000/svg">
<ellipse cx="27.5" cy="27.1705" rx="27" ry="26.5687" fill="#FF9900"/>
<mask id="mask0_1_395" style="mask-type:alpha" maskUnits="userSpaceOnUse" x="15" y="15" width="25" height="24">
<rect width="24" height="24" transform="matrix(1.19249e-08 1 1 -1.19249e-08 15.5 15)" fill="#D9D9D9"/>
</mask>
<g mask="url(#mask0_1_395)">
<path d="M34.3329 21.4133C34.3329 21.1844 34.2555 20.9926 34.1006 20.8378C33.9458 20.6829 33.754 20.6055 33.5251 20.6055L25.8329 20.6055C25.6912 20.6055 25.5725 20.6535 25.4766 20.7495C25.3808 20.8455 25.3329 20.9644 25.3329 21.1063C25.3329 21.2481 25.3808 21.3668 25.4766 21.4623C25.5725 21.5578 25.6912 21.6055 25.8329 21.6055L32.6251 21.6055L21.6866 32.544C21.5931 32.6375 21.5431 32.7523 21.5366 32.8883C21.5303 33.0241 21.5803 33.1453 21.6866 33.2518C21.7931 33.3581 21.9111 33.4113 22.0406 33.4113C22.1701 33.4113 22.2881 33.3581 22.3944 33.2518L33.3329 22.3133L33.3329 29.1055C33.3329 29.2472 33.3809 29.3659 33.4769 29.4618C33.5729 29.5576 33.6918 29.6055 33.8336 29.6055C33.9755 29.6055 34.0941 29.5576 34.1896 29.4618C34.2851 29.3659 34.3329 29.2472 34.3329 29.1055L34.3329 21.4133Z" fill="#1C1B1F"/>
</g>
</svg>
