<svg width="37" height="37" viewBox="0 0 37 37" fill="none" xmlns="http://www.w3.org/2000/svg">
<rect x="0.5" y="0.5" width="36" height="36" rx="18" fill="#FF9900"/>
<mask id="mask0_1_462" style="mask-type:alpha" maskUnits="userSpaceOnUse" x="6" y="6" width="25" height="25">
<rect x="6.5" y="6.5" width="24" height="24" fill="#D9D9D9"/>
</mask>
<g mask="url(#mask0_1_462)">
<path d="M13 26C11.618 26 10.4392 25.5198 9.4635 24.5595C8.48783 23.5993 8 22.4283 8 21.0463C8 19.8231 8.39167 18.7352 9.175 17.7828C9.95833 16.8301 10.9577 16.2666 12.173 16.0923C12.4935 14.5974 13.2452 13.375 14.428 12.425C15.6107 11.475 16.968 11 18.5 11C20.309 11 21.8446 11.6311 23.1068 12.8932C24.3689 14.1554 25 15.691 25 17.5V18H25.3078C26.3616 18.082 27.2404 18.5058 27.9443 19.2713C28.6481 20.0366 29 20.9462 29 22C29 23.1153 28.6122 24.0608 27.8365 24.8365C27.0608 25.6122 26.1153 26 25 26H13Z" fill="#1C1B1F"/>
</g>
</svg>
