<svg width="37" height="37" viewBox="0 0 37 37" fill="none" xmlns="http://www.w3.org/2000/svg">
<rect x="0.5" y="0.5" width="36" height="36" rx="18" fill="#FF9900"/>
<mask id="mask0_1_470" style="mask-type:alpha" maskUnits="userSpaceOnUse" x="6" y="6" width="25" height="25">
<rect x="6.5" y="6.5" width="24" height="24" fill="#D9D9D9"/>
</mask>
<g mask="url(#mask0_1_470)">
<path d="M13 26C11.618 26 10.4392 25.5198 9.4635 24.5595C8.48783 23.5993 8 22.4283 8 21.0463C8 19.8231 8.39167 18.7352 9.175 17.7828C9.95833 16.8301 10.9577 16.2666 12.173 16.0923C12.4935 14.5974 13.2452 13.375 14.428 12.425C15.6107 11.475 16.968 11 18.5 11C20.309 11 21.8446 11.6311 23.1068 12.8932C24.3689 14.1554 25 15.691 25 17.5V18H25.3078C26.3616 18.082 27.2404 18.5058 27.9443 19.2713C28.6481 20.0366 29 20.9462 29 22C29 23.1153 28.6122 24.0608 27.8365 24.8365C27.0608 25.6122 26.1153 26 25 26H19.25V18.7152L20.5828 20.0328C20.7213 20.1711 20.8927 20.2402 21.097 20.2402C21.3015 20.2402 21.4782 20.1659 21.627 20.0173C21.7718 19.8787 21.8427 19.7032 21.8395 19.4905C21.8362 19.2777 21.7653 19.102 21.627 18.9635L19.1328 16.4693C18.9519 16.2884 18.741 16.198 18.5 16.198C18.259 16.198 18.0481 16.2884 17.8673 16.4693L15.373 18.9635C15.2347 19.102 15.1613 19.2751 15.153 19.4827C15.1447 19.6904 15.218 19.8686 15.373 20.0173C15.5115 20.1558 15.6846 20.2259 15.8923 20.2277C16.0999 20.2297 16.2782 20.1615 16.427 20.023L17.75 18.7152V26H13Z" fill="#1C1B1F"/>
</g>
</svg>
