<svg width="37" height="37" viewBox="0 0 37 37" fill="none" xmlns="http://www.w3.org/2000/svg">
<rect x="0.5" y="0.5" width="36" height="36" rx="18" fill="#FF9900"/>
<mask id="mask0_1_455" style="mask-type:alpha" maskUnits="userSpaceOnUse" x="6" y="6" width="25" height="25">
<rect x="6.5" y="6.5" width="24" height="24" fill="#D9D9D9"/>
</mask>
<g mask="url(#mask0_1_455)">
<path d="M25.327 15.3462C24.4282 15.3462 23.6496 15.0692 22.9913 14.5152C22.3329 13.9614 21.916 13.264 21.7405 12.423H15.2345C15.0897 13.1358 14.7631 13.748 14.2548 14.2595C13.7464 14.7712 13.1358 15.0994 12.423 15.2443V21.7405C13.264 21.916 13.9614 22.3329 14.5152 22.9913C15.0692 23.6496 15.3463 24.4282 15.3463 25.327C15.3463 26.3437 14.9882 27.21 14.272 27.926C13.556 28.642 12.6897 29 11.673 29C10.6563 29 9.79 28.642 9.074 27.926C8.358 27.21 8 26.3437 8 25.327C8 24.4282 8.27692 23.6496 8.83075 22.9913C9.38458 22.3329 10.082 21.916 10.923 21.7405V15.2443C10.082 15.0686 9.38458 14.6516 8.83075 13.9932C8.27692 13.3349 8 12.5615 8 11.673C8 10.6563 8.358 9.79 9.074 9.074C9.79 8.358 10.6532 8 11.6635 8C12.552 8 13.3254 8.27692 13.9838 8.83075C14.6421 9.38458 15.059 10.082 15.2345 10.923H21.7405C21.916 10.082 22.3329 9.38458 22.9913 8.83075C23.6496 8.27692 24.4282 8 25.327 8C26.3372 8 27.2018 8.35967 27.921 9.079C28.6403 9.79817 29 10.6628 29 11.673C29 12.6897 28.6403 13.556 27.921 14.272C27.2018 14.9882 26.3372 15.3462 25.327 15.3462ZM25.327 29C24.3103 29 23.444 28.642 22.728 27.926C22.0118 27.21 21.6538 26.3468 21.6538 25.3365C21.6538 24.3198 22.0118 23.4519 22.728 22.7327C23.444 22.0134 24.3103 21.6538 25.327 21.6538C26.3437 21.6538 27.21 22.0134 27.926 22.7327C28.642 23.4519 29 24.3198 29 25.3365C29 26.3468 28.642 27.21 27.926 27.926C27.21 28.642 26.3437 29 25.327 29Z" fill="#1C1B1F"/>
</g>
</svg>
