<svg width="37" height="36" viewBox="0 0 37 36" fill="none" xmlns="http://www.w3.org/2000/svg">
<rect x="0.5" width="36" height="36" rx="18" fill="#FF9900"/>
<mask id="mask0_1_478" style="mask-type:alpha" maskUnits="userSpaceOnUse" x="6" y="6" width="25" height="24">
<rect x="6.5" y="6" width="24" height="24" fill="#D9D9D9"/>
</mask>
<g mask="url(#mask0_1_478)">
<path d="M17.75 26.75V23.1442C17.75 22.2237 17.6148 21.5192 17.3443 21.0307C17.0738 20.5422 16.6923 20.0781 16.2 19.6385L17.2693 18.5692C17.4821 18.7654 17.6946 18.9933 17.9068 19.253C18.1189 19.5125 18.3167 19.7878 18.5 20.079C18.7142 19.7173 18.9613 19.3836 19.2413 19.078C19.5214 18.7721 19.8122 18.4833 20.1135 18.2115C20.8493 17.5513 21.4692 16.7577 21.973 15.8307C22.4768 14.9037 22.7327 13.421 22.7405 11.3827L21.4423 12.6807C21.3038 12.8192 21.1323 12.89 20.928 12.8932C20.7235 12.8964 20.5437 12.8255 20.3885 12.6807C20.2333 12.5255 20.1558 12.3474 20.1558 12.1462C20.1558 11.9449 20.2333 11.7666 20.3885 11.6115L22.8673 9.1327C22.9609 9.03904 23.0597 8.97304 23.1635 8.9347C23.2673 8.8962 23.3795 8.87695 23.5 8.87695C23.6205 8.87695 23.7327 8.8962 23.8365 8.9347C23.9403 8.97304 24.0391 9.03904 24.1328 9.1327L26.627 11.627C26.7653 11.7655 26.8387 11.9369 26.847 12.1412C26.8553 12.3457 26.782 12.5255 26.627 12.6807C26.482 12.8255 26.3063 12.898 26.1 12.898C25.8937 12.898 25.718 12.8255 25.573 12.6807L24.2403 11.3635C24.2326 13.6763 23.9188 15.3945 23.299 16.5182C22.6792 17.6419 21.9583 18.5781 21.1365 19.327C20.584 19.8295 20.1314 20.3243 19.7788 20.8115C19.4263 21.2986 19.25 22.0762 19.25 23.1442V26.75C19.25 26.9628 19.1782 27.141 19.0345 27.2845C18.891 27.4281 18.7128 27.5 18.5 27.5C18.2872 27.5 18.109 27.4281 17.9655 27.2845C17.8218 27.141 17.75 26.9628 17.75 26.75ZM12.9788 14.1462C12.9058 13.8064 12.8536 13.3852 12.8223 12.8827C12.7908 12.38 12.7699 11.8736 12.7598 11.3635L11.427 12.6962C11.2885 12.8345 11.117 12.9054 10.9125 12.9087C10.708 12.9119 10.5282 12.8359 10.373 12.6807C10.2282 12.5359 10.1558 12.3602 10.1558 12.1537C10.1558 11.9474 10.2282 11.7718 10.373 11.627L12.8673 9.1327C12.9609 9.03904 13.0597 8.97304 13.1635 8.9347C13.2673 8.8962 13.3795 8.87695 13.5 8.87695C13.6205 8.87695 13.7327 8.8962 13.8365 8.9347C13.9403 8.97304 14.0391 9.03904 14.1328 9.1327L16.627 11.627C16.7757 11.7756 16.849 11.9496 16.847 12.149C16.8452 12.3483 16.7667 12.5255 16.6115 12.6807C16.4563 12.8255 16.2807 12.898 16.0845 12.898C15.8885 12.898 15.7129 12.8255 15.5578 12.6807L14.2595 11.398C14.2532 11.8506 14.2683 12.2872 14.3048 12.7077C14.3413 13.1282 14.3858 13.491 14.4385 13.7962L12.9788 14.1462ZM14.9848 18.4595C14.6834 18.1223 14.3914 17.7285 14.1088 17.278C13.8261 16.8273 13.5905 16.3275 13.402 15.7787L14.8463 15.4192C14.9873 15.805 15.1613 16.1644 15.3683 16.4972C15.5753 16.8299 15.8038 17.1276 16.0538 17.3905L14.9848 18.4595Z" fill="#1C1B1F"/>
</g>
</svg>
