<svg width="156" height="32" viewBox="0 0 156 32" fill="none" xmlns="http://www.w3.org/2000/svg">
<g clip-path="url(#clip0_7_6)">
<path d="M31.716 19.19H31.7326V16.7637C31.7437 16.5212 31.7492 16.2773 31.7492 16.0335C31.7492 15.7896 31.7437 15.5443 31.7326 15.3032V12.81L31.716 6.48167C30.8237 6.60431 29.984 6.88999 29.2247 7.30529C29.2109 7.31226 29.197 7.32062 29.1845 7.32759C27.1976 8.43272 25.7774 10.4409 25.4698 12.8017C25.4698 12.8045 25.4698 12.8072 25.4698 12.81C25.4587 12.8937 25.4504 12.9773 25.4421 13.0609C25.4393 13.0929 25.4365 13.125 25.4338 13.157C25.4171 13.3577 25.4088 13.5612 25.4088 13.7674L25.3783 15.5178C25.388 15.6892 25.3922 15.8606 25.3922 16.0348C25.3922 17.1414 25.2051 18.2033 24.8629 19.1914C24.8629 19.1942 24.8615 19.1969 24.8601 19.1997C23.9138 21.9173 21.7841 24.0746 19.0919 25.0445C19.0892 25.0445 19.0864 25.0459 19.0836 25.0473C19.0753 25.0501 19.067 25.0529 19.0587 25.0571C19.0559 25.0571 19.0531 25.0584 19.0504 25.0598C18.3534 25.3079 17.6191 25.4765 16.8584 25.5546C16.7628 25.5643 16.6672 25.5727 16.5716 25.5797C16.5286 25.5824 16.4857 25.5852 16.4427 25.588H15.3135C15.2705 25.5852 15.2276 25.5824 15.1846 25.5797C15.089 25.5727 14.9934 25.5643 14.8978 25.5546C14.1496 25.4779 13.4263 25.3135 12.7404 25.0724C12.7293 25.0682 12.7183 25.0654 12.7072 25.0612C12.7044 25.0612 12.7016 25.0598 12.6989 25.0584C11.7913 24.7351 10.9461 24.2766 10.1882 23.7066C9.81408 23.4265 9.46214 23.1185 9.13376 22.7855C8.822 22.4705 8.53242 22.1333 8.26639 21.7779C7.68721 21.0017 7.22166 20.1348 6.89604 19.2011C6.89604 19.1983 6.89466 19.1955 6.89327 19.1928C6.54965 18.2047 6.36398 17.1428 6.36398 16.0362C6.36398 14.9297 6.55935 13.8204 6.91683 12.8128C6.91683 12.81 6.91821 12.8072 6.9196 12.8045C7.88119 10.1078 10.0122 7.97143 12.6975 7.01403C12.7003 7.01403 12.703 7.01263 12.7058 7.01124C12.7169 7.00706 12.728 7.00288 12.739 7.00009C13.7214 6.65448 14.7772 6.46773 15.8774 6.46773C16.0838 6.46773 16.2903 6.4747 16.494 6.48724L18.0985 6.41756C18.4213 6.41756 18.7386 6.39666 19.0504 6.35624C19.0531 6.35624 19.0559 6.35624 19.0587 6.35624C19.067 6.35624 19.0753 6.35346 19.0836 6.35206C19.0864 6.35206 19.0892 6.35206 19.0919 6.35206C21.4211 6.03432 23.4025 4.61284 24.4957 2.62835C24.5026 2.61441 24.511 2.60047 24.5179 2.58793C24.9336 1.82145 25.219 0.974134 25.3409 0.073864H15.8774C14.8036 0.073864 13.7533 0.181172 12.739 0.386032C12.728 0.388819 12.7169 0.390213 12.7058 0.393C12.703 0.393 12.7003 0.393 12.6975 0.394394C12.1197 0.51285 11.5544 0.661966 11.0001 0.841741C9.30973 1.38943 7.74402 2.21444 6.35428 3.26522C6.35151 3.26662 6.34874 3.2694 6.34597 3.27219C5.75294 3.72093 5.19178 4.21009 4.66803 4.73687C4.6611 4.74245 4.65556 4.74941 4.65001 4.75499C4.61815 4.78844 4.58489 4.82049 4.55302 4.85394C4.07223 5.34588 3.62191 5.86987 3.20762 6.42035C3.20485 6.42314 3.20347 6.42592 3.20069 6.42871C1.80957 8.28221 0.810564 10.4507 0.328381 12.8086C0.328381 12.8114 0.328381 12.8142 0.326996 12.817C0.196751 13.4539 0.105303 14.1047 0.0526505 14.7667C0.0457225 14.8447 0.0401802 14.9241 0.0360235 15.0022C0.0290955 15.1039 0.0235532 15.207 0.0193965 15.3088C0.0083118 15.5513 0.00276947 15.7951 0.00276947 16.039C0.00276947 16.2829 0.0083118 16.5282 0.0193965 16.7693C0.0235532 16.8724 0.0290955 16.9755 0.0360235 17.0787C0.0415658 17.1553 0.0457225 17.2333 0.0526505 17.31C0.102531 17.9497 0.189823 18.5796 0.31314 19.1955C0.31314 19.1983 0.31314 19.2011 0.314526 19.2039C0.782853 21.5493 1.76246 23.708 3.13142 25.5588C3.13696 25.5671 3.14389 25.5755 3.14943 25.5838C3.15081 25.5866 3.15358 25.5894 3.15497 25.5922C3.34341 25.8444 3.53739 26.0911 3.73969 26.3322C4.02373 26.6722 4.32302 26.9983 4.63339 27.3133C4.96177 27.645 5.30401 27.9613 5.6601 28.2624C5.88318 28.4505 6.11042 28.633 6.3432 28.81C6.34597 28.8128 6.34874 28.8142 6.35151 28.817C8.19572 30.2092 10.3517 31.2084 12.6947 31.6878C12.6975 31.6878 12.7003 31.6878 12.703 31.6892C12.7141 31.692 12.7252 31.6934 12.7363 31.6962C13.2295 31.7965 13.7311 31.8718 14.2396 31.9247C14.2964 31.9303 14.3546 31.9359 14.4114 31.9415C14.4766 31.947 14.5417 31.9526 14.6082 31.9582C14.6844 31.9652 14.7606 31.9693 14.8368 31.9749C15.1804 31.9972 15.5268 32.0084 15.8746 32.0084C16.2224 32.0084 16.5702 31.9972 16.9124 31.9749C16.9886 31.9693 17.0648 31.9652 17.141 31.9582C17.2062 31.9526 17.2727 31.947 17.3378 31.9415C17.3946 31.9359 17.4528 31.9303 17.5096 31.9247C18.0292 31.8718 18.5419 31.7924 19.0462 31.6892C19.049 31.6892 19.0518 31.6892 19.0545 31.6878C19.0628 31.6864 19.0712 31.685 19.0795 31.6823C19.0822 31.6823 19.085 31.6823 19.0878 31.6809C20.0688 31.4788 21.0165 31.1847 21.9213 30.8099C22.1541 30.7137 22.3841 30.6106 22.6113 30.5033C23.4177 30.1953 24.292 30.0267 25.2051 30.0267C25.28 30.0267 25.3562 30.0267 25.431 30.0308C25.4338 30.0308 25.4365 30.0308 25.4393 30.0308C26.5769 30.0671 27.6493 30.3639 28.5984 30.8656C28.8312 31.0259 29.0737 31.1722 29.3245 31.3046C29.8524 31.5833 30.4177 31.7979 31.0107 31.9415C31.0592 31.9526 31.1077 31.9638 31.1562 31.9749H31.7492V25.595H31.716V25.5866H31.7492V19.2067H31.716V19.1983V19.19Z" fill="#0037A5"/>
<path d="M25.3977 3.59272C25.4005 3.61362 25.4033 3.63313 25.406 3.65404C25.4407 3.89513 25.503 4.12786 25.5889 4.34945C25.7552 4.77868 26.0129 5.16331 26.3358 5.47966C26.6794 5.81552 27.0978 6.07334 27.5648 6.22524C27.8655 6.32419 28.1869 6.37854 28.5208 6.37993C28.5291 6.37993 28.5375 6.37993 28.5458 6.37993C30.2972 6.37993 31.7174 4.95149 31.7174 3.18997C31.7174 2.84575 31.6633 2.51407 31.5622 2.20329C31.4112 1.73365 31.1548 1.31278 30.8209 0.967164C30.5078 0.642454 30.1253 0.383243 29.6972 0.21601C29.5351 0.151904 29.3674 0.101735 29.1942 0.0655008C29.1319 0.0529583 29.0695 0.0404158 29.0058 0.0320542C28.8548 0.00975649 28.701 -0.00139236 28.5444 -0.00139236C28.3878 -0.00139236 28.234 0.00975649 28.083 0.0320542C28.0193 0.0418094 27.9569 0.0529583 27.8945 0.0655008C26.6018 0.33586 25.5986 1.39779 25.406 2.7245C25.4033 2.74401 25.4005 2.76492 25.3977 2.78582C25.3811 2.91821 25.3728 3.052 25.3728 3.18857C25.3728 3.2053 25.3728 3.22202 25.3728 3.23735C25.3742 3.3572 25.3825 3.47566 25.3977 3.59133V3.59272Z" fill="#F7981D"/>
<path d="M51.6434 9.93781H54.0724V24.4801H51.6434L51.5423 22.0232C51.0892 22.8663 50.4657 23.5506 49.6704 24.0732C48.8751 24.5972 47.9287 24.8578 46.8299 24.8578C45.7312 24.8578 44.7765 24.6571 43.8509 24.2543C42.9254 23.8516 42.1093 23.2941 41.3998 22.582C40.6918 21.8699 40.139 21.0476 39.7441 20.1167C39.3492 19.1858 39.151 18.1824 39.151 17.1065C39.151 16.0307 39.3436 15.09 39.7288 14.1688C40.114 13.2476 40.6516 12.4407 41.3403 11.7481C42.0289 11.0555 42.827 10.512 43.7332 10.119C44.6393 9.72598 45.612 9.52948 46.654 9.52948C47.7915 9.52948 48.7891 9.79845 49.6468 10.3364C50.5045 10.8743 51.1987 11.5697 51.7294 12.4226L51.6421 9.93642L51.6434 9.93781ZM46.7856 22.4872C47.7403 22.4872 48.5661 22.2517 49.2658 21.7821C49.9641 21.3124 50.5045 20.6742 50.8855 19.87C51.2666 19.0659 51.4564 18.1782 51.4564 17.2083C51.4564 16.2383 51.2638 15.3255 50.8786 14.5256C50.4934 13.7256 49.9503 13.0915 49.2519 12.6205C48.5536 12.1509 47.7319 11.9153 46.787 11.9153C45.842 11.9153 44.9649 12.1536 44.1849 12.6275C43.4048 13.1027 42.7854 13.7396 42.3268 14.5395C41.8695 15.3394 41.6395 16.2286 41.6395 17.2083C41.6395 18.188 41.8751 19.0771 42.3476 19.877C42.8201 20.6769 43.4463 21.3124 44.2264 21.7821C45.0065 22.2531 45.86 22.4872 46.7856 22.4872Z" fill="#142135"/>
<path d="M67.1578 2.66597H69.5867V24.4787H67.1578V22.0064C66.6659 22.8593 66.0064 23.5478 65.1764 24.0718C64.3479 24.5958 63.3738 24.8564 62.2556 24.8564C61.2054 24.8564 60.2216 24.6571 59.3057 24.2599C58.3898 23.8627 57.5821 23.3123 56.8837 22.6099C56.1854 21.9075 55.6381 21.095 55.2432 20.1739C54.8483 19.2527 54.6502 18.2646 54.6502 17.2069C54.6502 16.1491 54.8469 15.1597 55.2432 14.2329C55.6381 13.3076 56.1854 12.4923 56.8837 11.7899C57.5821 11.0875 58.3898 10.5371 59.3057 10.1399C60.2216 9.74271 61.204 9.54342 62.2556 9.54342C63.3738 9.54342 64.3465 9.80542 65.1764 10.328C66.005 10.852 66.6659 11.5405 67.1578 12.3933V2.66597ZM62.2847 22.4872C63.2394 22.4872 64.0652 22.2517 64.7649 21.7821C65.4633 21.3124 66.0036 20.6742 66.3847 19.87C66.7657 19.0659 66.9555 18.1782 66.9555 17.2083C66.9555 16.2383 66.7629 15.3255 66.3777 14.5256C65.9925 13.7256 65.4494 13.0915 64.7511 12.6205C64.0527 12.1509 63.2311 11.9153 62.2861 11.9153C61.3411 11.9153 60.4668 12.1536 59.6909 12.6275C58.915 13.1027 58.2956 13.7396 57.8328 14.5395C57.3701 15.3394 57.1387 16.2286 57.1387 17.2083C57.1387 18.188 57.3742 19.0771 57.8467 19.877C58.3192 20.6769 58.9455 21.3124 59.7255 21.7821C60.5056 22.2531 61.3592 22.4872 62.2847 22.4872Z" fill="#142135"/>
<path d="M76.02 24.7546C75.2399 24.7254 74.4806 24.5777 73.7435 24.3115C73.0064 24.0453 72.3607 23.6816 71.8065 23.2203C71.2522 22.7604 70.8504 22.2294 70.5996 21.6274L72.6821 20.7257C72.8262 21.056 73.0867 21.3654 73.4622 21.6567C73.8377 21.9479 74.2714 22.1807 74.7633 22.3549C75.2552 22.5291 75.7512 22.6168 76.2528 22.6168C76.7821 22.6168 77.2795 22.5346 77.7423 22.3702C78.2051 22.2057 78.5833 21.9605 78.8771 21.6357C79.1708 21.311 79.3177 20.9208 79.3177 20.4651C79.3177 19.9801 79.1556 19.5997 78.8327 19.3238C78.5099 19.0478 78.1053 18.829 77.6176 18.6688C77.1312 18.5085 76.6366 18.3566 76.135 18.2103C75.1415 17.958 74.2562 17.6556 73.4747 17.3016C72.6946 16.9477 72.0794 16.4975 71.6319 15.9498C71.1843 15.4021 70.9599 14.7012 70.9599 13.8483C70.9599 12.9466 71.2079 12.1662 71.7039 11.507C72.2 10.8478 72.854 10.3392 73.6631 9.97962C74.4723 9.62146 75.3397 9.44169 76.2653 9.44169C77.4319 9.44169 78.496 9.69393 79.4604 10.1984C80.4248 10.7029 81.1425 11.3858 81.615 12.2484L79.6627 13.3967C79.4992 13.0483 79.2484 12.7404 78.9103 12.4728C78.5723 12.2066 78.1871 11.9948 77.7534 11.8401C77.3197 11.6854 76.8763 11.6032 76.4232 11.5934C75.8634 11.5739 75.3411 11.6464 74.8547 11.8122C74.3684 11.9767 73.9777 12.2261 73.6839 12.5606C73.3902 12.895 73.2433 13.3089 73.2433 13.8037C73.2433 14.2984 73.3999 14.6566 73.713 14.9088C74.0262 15.1611 74.4363 15.3617 74.942 15.5122C75.4478 15.6627 75.9992 15.8342 76.5978 16.0279C77.4749 16.3094 78.2938 16.6341 79.0558 17.002C79.8165 17.3699 80.4317 17.8312 80.8986 18.3831C81.3656 18.9349 81.5942 19.6192 81.5859 20.4331C81.5859 21.325 81.3213 22.1026 80.7906 22.7674C80.2599 23.4321 79.574 23.938 78.7302 24.2864C77.8864 24.6348 76.983 24.7909 76.02 24.7519V24.7546Z" fill="#142135"/>
<path d="M82.0487 18.9531V9.93781H84.4776V18.4151C84.4776 19.1523 84.6563 19.8213 85.0124 20.4219C85.3685 21.0226 85.8479 21.5006 86.4507 21.8545C87.0534 22.2085 87.7157 22.3855 88.439 22.3855C89.1623 22.3855 89.8343 22.2085 90.4273 21.8545C91.0203 21.5006 91.4942 21.024 91.8517 20.4219C92.2078 19.8213 92.3865 19.1523 92.3865 18.4151V9.93781H94.8154L94.8293 24.4801H92.4004L92.3865 22.6336C91.8752 23.3123 91.2295 23.853 90.4495 24.2543C89.6694 24.6571 88.8256 24.8578 87.9194 24.8578C86.84 24.8578 85.8549 24.593 84.9626 24.0648C84.0702 23.5366 83.3622 22.8259 82.8371 21.934C82.3119 21.0421 82.0487 20.0484 82.0487 18.9531Z" fill="#142135"/>
<path d="M96.2745 24.4787V9.93642H98.7034V11.7537C99.2147 11.075 99.8576 10.5343 100.633 10.1329C101.409 9.73016 102.255 9.52948 103.17 9.52948C104.24 9.52948 105.218 9.79148 106.105 10.3141C106.992 10.8381 107.69 11.5307 108.202 12.3933C108.713 11.5307 109.408 10.8367 110.291 10.3141C111.174 9.79009 112.144 9.52948 113.205 9.52948C114.266 9.52948 115.282 9.79427 116.169 10.3224C117.055 10.8506 117.761 11.5614 118.287 12.4533C118.812 13.3452 119.076 14.3388 119.076 15.4342V24.4787H116.647V16.0153C116.647 15.2976 116.473 14.6343 116.126 14.0239C115.779 13.4135 115.311 12.9243 114.723 12.555C114.136 12.1871 113.485 12.0031 112.771 12.0031C112.058 12.0031 111.408 12.1759 110.819 12.5188C110.231 12.863 109.763 13.3382 109.417 13.9444C109.07 14.5506 108.896 15.2405 108.896 16.0167V24.4801H106.467V16.0167C106.467 15.2419 106.294 14.5506 105.946 13.9444C105.599 13.3382 105.128 12.863 104.537 12.5188C103.944 12.1746 103.291 12.0031 102.577 12.0031C101.864 12.0031 101.225 12.1871 100.632 12.555C100.039 12.9229 99.5694 13.4135 99.223 14.0239C98.8766 14.6343 98.702 15.299 98.702 16.0153V24.4787H96.2731H96.2745Z" fill="#142135"/>
<path d="M128.01 12.3808H124.727L124.714 24.4801H122.285L122.298 12.3808H119.811V9.93781H122.298L122.285 5.37235H124.714L124.727 9.93781H128.01V12.3808Z" fill="#142135"/>
<path d="M135.513 24.8578C134.183 24.8578 132.97 24.5135 131.877 23.8251C130.782 23.1367 129.911 22.2141 129.26 21.0546C128.608 19.8965 128.284 18.6144 128.284 17.2083C128.284 16.1421 128.473 15.1457 128.848 14.2204C129.224 13.295 129.742 12.4797 130.403 11.7774C131.062 11.075 131.831 10.5245 132.708 10.1273C133.585 9.73016 134.521 9.53088 135.513 9.53088C136.602 9.53088 137.602 9.75107 138.513 10.1928C139.423 10.6346 140.204 11.2464 140.854 12.0324C141.504 12.8184 141.992 13.7284 142.315 14.7667C142.637 15.8035 142.755 16.9142 142.669 18.0974H130.871C130.986 18.921 131.256 19.6554 131.68 20.3007C132.104 20.9459 132.646 21.456 133.307 21.835C133.966 22.2127 134.702 22.4078 135.511 22.4162C136.379 22.4162 137.164 22.1904 137.868 21.7403C138.572 21.2887 139.14 20.6714 139.574 19.8868L142.046 20.4679C141.468 21.757 140.595 22.8119 139.428 23.6314C138.262 24.4508 136.957 24.8606 135.51 24.8606L135.513 24.8578ZM130.8 16.1756H140.227C140.149 15.3617 139.888 14.6175 139.446 13.943C139.003 13.2699 138.439 12.7292 137.755 12.3223C137.07 11.9153 136.323 11.7119 135.514 11.7119C134.705 11.7119 133.962 11.9112 133.288 12.3083C132.613 12.7055 132.056 13.2421 131.618 13.9152C131.179 14.5897 130.907 15.3422 130.8 16.177V16.1756Z" fill="#142135"/>
<path d="M153.832 20.6407L156 21.8183C155.345 22.7395 154.513 23.4767 153.506 24.0286C152.499 24.5804 151.407 24.8578 150.232 24.8578C148.902 24.8578 147.689 24.5135 146.596 23.8251C145.501 23.1367 144.63 22.2141 143.979 21.0546C143.327 19.8965 143.003 18.6144 143.003 17.2083C143.003 16.1421 143.192 15.1457 143.567 14.2204C143.943 13.295 144.461 12.4797 145.122 11.7774C145.781 11.075 146.55 10.5245 147.427 10.1273C148.304 9.73016 149.24 9.53088 150.232 9.53088C151.408 9.53088 152.499 9.80681 153.506 10.3601C154.513 10.9119 155.345 11.6547 156 12.5843L153.832 13.7619C153.369 13.1905 152.82 12.7487 152.184 12.4379C151.548 12.1272 150.897 11.9725 150.232 11.9725C149.335 11.9725 148.523 12.2122 147.796 12.693C147.069 13.1724 146.492 13.8106 146.068 14.605C145.644 15.3994 145.432 16.2676 145.432 17.2083C145.432 18.1489 145.647 19.0144 146.075 19.8045C146.503 20.5947 147.082 21.2274 147.81 21.7026C148.537 22.1779 149.345 22.4148 150.232 22.4148C150.945 22.4148 151.615 22.2503 152.241 21.92C152.867 21.5912 153.398 21.1633 153.832 20.6407Z" fill="#142135"/>
</g>
<defs>
<clipPath id="clip0_7_6">
<rect width="156" height="32" fill="white"/>
</clipPath>
</defs>
</svg>
