<svg width="48" height="48" viewBox="0 0 48 48" fill="none" xmlns="http://www.w3.org/2000/svg">
<mask id="mask0_106_205" style="mask-type:alpha" maskUnits="userSpaceOnUse" x="0" y="0" width="48" height="48">
<rect x="0.378662" y="0.0463867" width="47.6166" height="47.6166" fill="#D9D9D9"/>
</mask>
<g mask="url(#mask0_106_205)">
<path d="M24.1869 33.1566L16.4686 37.8112C16.1809 37.9791 15.8927 38.0497 15.604 38.023C15.3154 37.9962 15.0541 37.899 14.8204 37.7313C14.5862 37.5633 14.4055 37.3439 14.2782 37.0731C14.1512 36.8023 14.1309 36.5027 14.2172 36.1743L16.2662 27.4104L9.45208 21.5119C9.19746 21.2907 9.03527 21.0344 8.9655 20.7431C8.89539 20.4518 8.91375 20.1687 9.02055 19.8939C9.12736 19.6195 9.28129 19.3951 9.48233 19.2208C9.68338 19.0466 9.95817 18.9327 10.3067 18.8791L19.2993 18.0934L22.7907 9.81755C22.9177 9.50969 23.1103 9.28203 23.3685 9.13455C23.6268 8.98707 23.8996 8.91333 24.1869 8.91333C24.4743 8.91333 24.7471 8.98707 25.0054 9.13455C25.2636 9.28203 25.4562 9.50969 25.5832 9.81755L29.0746 18.0934L38.0672 18.8791C38.4157 18.9327 38.6905 19.0466 38.8915 19.2208C39.0926 19.3951 39.2465 19.6195 39.3533 19.8939C39.4601 20.1687 39.4785 20.4518 39.4084 20.7431C39.3386 21.0344 39.1764 21.2907 38.9218 21.5119L32.1077 27.4104L34.1567 36.1743C34.243 36.5027 34.2226 36.8023 34.0957 37.0731C33.9684 37.3439 33.7876 37.5633 33.5535 37.7313C33.3197 37.899 33.0585 37.9962 32.7698 38.023C32.4812 38.0497 32.193 37.9791 31.9053 37.8112L24.1869 33.1566Z" fill="#1C1B1F"/>
</g>
</svg>
